<svg width="39" height="43" viewBox="0 0 39 43" fill="none" xmlns="http://www.w3.org/2000/svg">
<path d="M38.5074 13.6916C38.5095 13.464 38.465 13.2385 38.3767 13.0288C38.2885 12.8191 38.1582 12.6297 37.994 12.4722L26.0353 0.492067C25.7093 0.174214 25.2712 -0.0025395 24.8159 2.75758e-05H4.2786C3.3708 2.75758e-05 2.50018 0.360652 1.85826 1.00257C1.21634 1.64448 0.855721 2.51511 0.855721 3.42291V22.2488C0.855721 22.7027 1.03603 23.138 1.35699 23.4589C1.67795 23.7799 2.11326 23.9602 2.56716 23.9602C3.02107 23.9602 3.45638 23.7799 3.77733 23.4589C4.09829 23.138 4.2786 22.7027 4.2786 22.2488V3.42291H23.1045V13.6916C23.1045 14.1455 23.2848 14.5808 23.6057 14.9017C23.9267 15.2227 24.362 15.403 24.8159 15.403H35.0846V22.2488C35.0846 22.7027 35.2649 23.138 35.5858 23.4589C35.9068 23.7799 36.3421 23.9602 36.796 23.9602C37.2499 23.9602 37.6852 23.7799 38.0062 23.4589C38.3271 23.138 38.5074 22.7027 38.5074 22.2488V13.6916ZM26.5273 5.84032L32.6671 11.9801H26.5273V5.84032ZM3.42288 35.9403C3.42288 37.8229 4.77064 39.3632 6.41791 39.3632C7.09999 39.3564 7.75541 39.0973 8.25771 38.6358C8.42351 38.4828 8.61828 38.3645 8.83052 38.288C9.04276 38.2115 9.26818 38.1782 9.49348 38.1902C9.71879 38.2021 9.93942 38.2591 10.1424 38.3577C10.3453 38.4562 10.5264 38.5945 10.6751 38.7642C10.9814 39.099 11.1422 39.5417 11.1221 39.995C11.1021 40.4484 10.9028 40.8752 10.5682 41.1816C9.42751 42.206 7.95099 42.7768 6.41791 42.7861C2.88806 42.7861 0 39.7055 0 35.9403C0 32.1751 2.88806 29.0945 6.41791 29.0945C7.95099 29.1038 9.42751 29.6746 10.5682 30.699C10.9028 31.0055 11.1021 31.4323 11.1221 31.8856C11.1422 32.3389 10.9814 32.7816 10.6751 33.1164C10.5264 33.2861 10.3453 33.4244 10.1424 33.5229C9.93942 33.6215 9.71879 33.6785 9.49348 33.6905C9.26818 33.7024 9.04276 33.6691 8.83052 33.5926C8.61828 33.5161 8.42351 33.3978 8.25771 33.2448C7.75541 32.7833 7.09999 32.5242 6.41791 32.5174C4.77064 32.5174 3.42288 34.0577 3.42288 35.9403ZM20.0453 34.1861C19.3821 34.0149 18.2055 33.694 17.9701 33.4159V33.3731C17.9701 32.6672 18.4836 32.3035 19.4676 32.3035C20.2321 32.3191 20.9755 32.5569 21.607 32.9881H21.5856C21.896 33.2346 22.2801 33.3702 22.6766 33.3731C23.1305 33.3731 23.5658 33.1928 23.8868 32.8719C24.2077 32.5509 24.388 32.1156 24.388 31.6617C24.3922 31.4111 24.3384 31.1629 24.2308 30.9365C24.1232 30.7101 23.9647 30.5117 23.7676 30.3567C22.5333 29.4097 21.0235 28.8914 19.4676 28.8806C16.5796 28.8806 14.5473 30.7204 14.5473 33.3731C14.5473 36.0259 17.3283 37.01 19.1681 37.502C19.8955 37.6945 20.6657 37.8871 21.1363 38.1652C21.607 38.4433 21.393 38.3791 21.393 38.5075C21.393 38.6358 21.393 39.5771 19.4676 39.5771C18.7032 39.5615 17.9598 39.3237 17.3283 38.8925H17.3497C17.0393 38.646 16.6552 38.5104 16.2587 38.5075C15.8048 38.5075 15.3695 38.6878 15.0485 39.0087C14.7276 39.3297 14.5473 39.765 14.5473 40.2189C14.5431 40.4695 14.5969 40.7177 14.7045 40.9441C14.8121 41.1705 14.9706 41.3689 15.1677 41.5239C16.4021 42.471 17.9118 42.9892 19.4676 43C22.805 43 24.8159 41.31 24.8159 38.5075C24.8159 35.705 21.8209 34.6567 20.0453 34.1861ZM33.7368 34.1861C33.0736 34.0149 31.897 33.694 31.6617 33.4159V33.3731C31.6617 32.6672 32.1537 32.3035 33.1592 32.3035C33.9236 32.3191 34.667 32.5569 35.2985 32.9881H35.2771C35.5876 33.2346 35.9717 33.3702 36.3681 33.3731C36.822 33.3731 37.2574 33.1928 37.5783 32.8719C37.8993 32.5509 38.0796 32.1156 38.0796 31.6617C38.0838 31.4111 38.0299 31.1629 37.9223 30.9365C37.8147 30.7101 37.6562 30.5117 37.4592 30.3567C36.2248 29.4097 34.715 28.8914 33.1592 28.8806C30.2711 28.8806 28.2388 30.7204 28.2388 33.3731C28.2388 36.0259 31.0199 37.01 32.8597 37.502C33.587 37.6945 34.3572 37.8871 34.8278 38.1652C35.2985 38.4433 35.0846 38.3791 35.0846 38.5075C35.0846 38.6358 35.0846 39.5771 33.1592 39.5771C32.3947 39.5615 31.6514 39.3237 31.0199 38.8925H31.0413C30.7308 38.646 30.3467 38.5104 29.9502 38.5075C29.4963 38.5075 29.061 38.6878 28.7401 39.0087C28.4191 39.3297 28.2388 39.765 28.2388 40.2189C28.2346 40.4695 28.2884 40.7177 28.3961 40.9441C28.5037 41.1705 28.6622 41.3689 28.8592 41.5239C30.0936 42.471 31.6034 42.9892 33.1592 43C36.4965 43 38.5074 41.31 38.5074 38.5075C38.5074 35.705 35.5124 34.6567 33.7368 34.1861Z" fill="#7275DA"/>
</svg>
