<svg width="26" height="26" viewBox="0 0 26 26" fill="none" xmlns="http://www.w3.org/2000/svg">
<path d="M12.9969 25V13.6408M12.9969 25L9.99509 22.4757M12.9969 25L15.9987 22.4757M4.63268 8.73987C3.49705 9.04025 2.50486 9.76619 1.84251 10.7813C1.18016 11.7964 0.893255 13.0308 1.03569 14.2526C1.17812 15.4744 1.7401 16.5995 2.61603 17.4164C3.49196 18.2334 4.62155 18.686 5.79257 18.6893H6.99329" stroke="white" stroke-width="2" stroke-linecap="round" stroke-linejoin="round"/>
<path d="M17.5955 6.24209C17.1851 4.53388 16.1722 3.05361 14.762 2.10134C13.3518 1.14908 11.6499 0.796081 10.0013 1.1139C8.35269 1.43173 6.88072 2.39659 5.88379 3.81291C4.88687 5.22922 4.43957 6.99101 4.63257 8.74113C4.63257 8.74113 4.81628 9.85434 5.19211 10.4854" stroke="white" stroke-width="2" stroke-linecap="round" stroke-linejoin="round"/>
<path d="M19.0006 18.6893C19.8483 18.6887 20.6864 18.4994 21.4595 18.1338C22.2326 17.7682 22.9233 17.2347 23.4861 16.5683C24.049 15.9019 24.4711 15.1177 24.7249 14.2675C24.9786 13.4172 25.0582 12.5201 24.9583 11.6352C24.8584 10.7502 24.5814 9.8976 24.1454 9.13334C23.7094 8.36908 23.1245 7.71054 22.4289 7.20106C21.7334 6.69158 20.9431 6.34272 20.11 6.17744C19.277 6.01215 18.4201 6.03419 17.5957 6.24211L15.9988 6.699" stroke="white" stroke-width="2" stroke-linecap="round" stroke-linejoin="round"/>
</svg>
