<svg width="24" height="24" viewBox="0 0 24 24" fill="none" xmlns="http://www.w3.org/2000/svg">
<path d="M9.00084 0.416678C9.14728 0.594604 9.23699 0.812353 9.25838 1.04179C9.27977 1.27122 9.23187 1.5018 9.12085 1.70373C8.25356 3.29601 7.80063 5.08081 7.80373 6.89395C7.80373 12.9257 12.7212 17.8099 18.7818 17.8099C19.5723 17.8099 20.3419 17.7274 21.0815 17.5699C21.3082 17.5208 21.5443 17.5396 21.7604 17.6239C21.9765 17.7082 22.163 17.8543 22.2966 18.0439C22.4376 18.2411 22.5095 18.4793 22.5011 18.7216C22.4926 18.9639 22.4044 19.1965 22.2501 19.3835C21.0735 20.8287 19.5892 21.9931 17.9054 22.7919C16.2216 23.5907 14.3808 24.0036 12.5172 24.0007C5.60152 24.0007 0 18.4294 0 11.5651C0 6.39893 3.1713 1.96774 7.68672 0.0896647C7.91165 -0.0053915 8.16135 -0.0249014 8.39831 0.0340658C8.63527 0.0930331 8.8467 0.227293 9.00084 0.416678V0.416678ZM7.28768 1.96624C5.55142 2.89753 4.09994 4.2818 3.08749 5.97195C2.07503 7.6621 1.53944 9.59498 1.53764 11.5651C1.53764 17.5954 6.4566 22.4796 12.5172 22.4796C13.9685 22.4821 15.4059 22.1968 16.7461 21.6401C18.0864 21.0834 19.303 20.2664 20.3254 19.2365C19.8199 19.2995 19.3053 19.331 18.7818 19.331C11.8661 19.331 6.26609 13.7597 6.26609 6.89545C6.26609 5.14488 6.62912 3.47831 7.28768 1.96624V1.96624Z" fill="white"/>
<path d="M16.1926 4.72186C16.2141 4.6569 16.2555 4.60037 16.311 4.5603C16.3665 4.52023 16.4332 4.49867 16.5016 4.49867C16.57 4.49867 16.6367 4.52023 16.6922 4.5603C16.7477 4.60037 16.7891 4.6569 16.8106 4.72186L17.3912 6.46493C17.6507 7.24196 18.2598 7.85099 19.0368 8.1105L20.78 8.69102C20.845 8.71253 20.9015 8.75397 20.9416 8.80944C20.9816 8.86492 21.0032 8.93161 21.0032 9.00004C21.0032 9.06847 20.9816 9.13516 20.9416 9.19063C20.9015 9.2461 20.845 9.28754 20.78 9.30905L19.0368 9.88957C18.6536 10.0173 18.3053 10.2324 18.0197 10.5181C17.7341 10.8037 17.5189 11.1519 17.3912 11.5351L16.8106 13.2782C16.7891 13.3432 16.7477 13.3997 16.6922 13.4398C16.6367 13.4798 16.57 13.5014 16.5016 13.5014C16.4332 13.5014 16.3665 13.4798 16.311 13.4398C16.2555 13.3997 16.2141 13.3432 16.1926 13.2782L15.612 11.5351C15.4843 11.1519 15.2691 10.8037 14.9835 10.5181C14.6979 10.2324 14.3496 10.0173 13.9664 9.88957L12.2232 9.30905C12.1582 9.28754 12.1017 9.2461 12.0616 9.19063C12.0216 9.13516 12 9.06847 12 9.00004C12 8.93161 12.0216 8.86492 12.0616 8.80944C12.1017 8.75397 12.1582 8.71253 12.2232 8.69102L13.9664 8.1105C14.3496 7.98282 14.6979 7.76764 14.9835 7.48201C15.2691 7.19638 15.4843 6.84816 15.612 6.46493L16.1926 4.72186V4.72186ZM20.7965 0.148167C20.8113 0.105455 20.8391 0.0684175 20.8759 0.0422049C20.9127 0.0159923 20.9568 0.00190687 21.002 0.00190687C21.0472 0.00190687 21.0913 0.0159923 21.1282 0.0422049C21.165 0.0684175 21.1927 0.105455 21.2075 0.148167L21.5946 1.30922C21.7671 1.82824 22.1736 2.23475 22.6927 2.40726L23.8538 2.79428C23.8965 2.80909 23.9335 2.83683 23.9598 2.87367C23.986 2.9105 24.0001 2.95458 24.0001 2.99979C24.0001 3.04499 23.986 3.08908 23.9598 3.12591C23.9335 3.16274 23.8965 3.19049 23.8538 3.20529L22.6927 3.59231C22.4369 3.6774 22.2045 3.82094 22.0138 4.01155C21.8232 4.20216 21.6797 4.43458 21.5946 4.69036L21.2075 5.85141C21.1927 5.89412 21.165 5.93115 21.1282 5.95737C21.0913 5.98358 21.0472 5.99767 21.002 5.99767C20.9568 5.99767 20.9127 5.98358 20.8759 5.95737C20.8391 5.93115 20.8113 5.89412 20.7965 5.85141L20.4095 4.69036C20.3244 4.43458 20.1808 4.20216 19.9902 4.01155C19.7996 3.82094 19.5672 3.6774 19.3114 3.59231L18.1503 3.20529C18.1075 3.19049 18.0705 3.16274 18.0443 3.12591C18.0181 3.08908 18.004 3.04499 18.004 2.99979C18.004 2.95458 18.0181 2.9105 18.0443 2.87367C18.0705 2.83683 18.1075 2.80909 18.1503 2.79428L19.3114 2.40726C19.8304 2.23475 20.237 1.82824 20.4095 1.30922L20.7965 0.149667V0.148167Z" fill="white"/>
</svg>
