<svg width="25" height="24" viewBox="0 0 25 24" fill="none" xmlns="http://www.w3.org/2000/svg">
<path d="M11.5 12C12.1964 11.9999 12.8859 12.1384 13.5283 12.4074C14.1707 12.6764 14.7532 13.0705 15.2418 13.5667C15.7304 14.063 16.1153 14.6516 16.3743 15.2981C16.6332 15.9446 16.7609 16.6362 16.75 17.3325C16.7482 17.4478 16.7731 17.5619 16.8226 17.6661C16.8721 17.7702 16.945 17.8615 17.0355 17.9329C17.1261 18.0043 17.2319 18.0539 17.3447 18.0777C17.4575 18.1016 17.5743 18.0991 17.686 18.0705C18.0186 17.9853 18.3663 17.9772 18.7025 18.0468C19.0387 18.1164 19.3546 18.2618 19.626 18.4721C19.8974 18.6823 20.1173 18.9518 20.2687 19.2599C20.4202 19.568 20.4993 19.9067 20.5 20.25C20.5 20.8467 20.2629 21.419 19.841 21.841C19.419 22.2629 18.8467 22.5 18.25 22.5H5.49998C5.10114 22.4977 4.70674 22.416 4.33987 22.2595C3.973 22.103 3.64102 21.8749 3.36334 21.5886C3.08567 21.3023 2.86787 20.9635 2.7227 20.592C2.57753 20.2205 2.50789 19.8238 2.51787 19.425C2.52784 19.0263 2.61722 18.6336 2.78078 18.2698C2.94435 17.906 3.17881 17.5785 3.47045 17.3064C3.76209 17.0344 4.10506 16.8232 4.4793 16.6852C4.85354 16.5473 5.25152 16.4853 5.64998 16.503C5.82282 16.5119 5.99341 16.4608 6.13284 16.3582C6.27227 16.2557 6.37195 16.1081 6.41498 15.9405C6.70593 14.813 7.36328 13.8141 8.28373 13.1008C9.20417 12.3875 10.3355 12.0003 11.5 12ZM18.2095 16.5C18.0407 14.9792 17.3603 13.5609 16.2797 12.4775C15.1991 11.3942 13.7825 10.7102 12.2621 10.5376C10.7418 10.365 9.20786 10.714 7.91191 11.5275C6.61597 12.3411 5.63487 13.5707 5.12948 15.015C3.97139 15.1098 2.89486 15.6489 2.12523 16.5194C1.3556 17.3899 0.952533 18.5244 1.00041 19.6854C1.04828 20.8464 1.54338 21.9438 2.38207 22.748C3.22076 23.5523 4.33802 24.0009 5.49998 24H18.25C19.2445 24 20.1984 23.6049 20.9016 22.9017C21.6049 22.1984 22 21.2446 22 20.25C22 19.2554 21.6049 18.3016 20.9016 17.5984C20.1984 16.8951 19.2445 16.5 18.25 16.5H18.2095V16.5Z" fill="white"/>
<path d="M16.75 2.25C16.75 2.05109 16.6709 1.86032 16.5303 1.71967C16.3896 1.57902 16.1989 1.5 16 1.5C15.801 1.5 15.6103 1.57902 15.4696 1.71967C15.329 1.86032 15.25 2.05109 15.25 2.25V3.75C15.25 3.94891 15.329 4.13968 15.4696 4.28033C15.6103 4.42098 15.801 4.5 16 4.5C16.1989 4.5 16.3896 4.42098 16.5303 4.28033C16.6709 4.13968 16.75 3.94891 16.75 3.75V2.25ZM22.3645 5.196C22.4361 5.12682 22.4932 5.04406 22.5325 4.95255C22.5718 4.86105 22.5925 4.76264 22.5934 4.66305C22.5943 4.56347 22.5753 4.46471 22.5376 4.37253C22.4999 4.28036 22.4442 4.19662 22.3738 4.1262C22.3033 4.05578 22.2196 4.00009 22.1274 3.96238C22.0353 3.92467 21.9365 3.9057 21.8369 3.90656C21.7373 3.90743 21.6389 3.92812 21.5474 3.96742C21.4559 4.00673 21.3731 4.06387 21.304 4.1355L20.242 5.196C20.1011 5.33683 20.022 5.52784 20.022 5.727C20.022 5.92616 20.1011 6.11717 20.242 6.258C20.3828 6.39883 20.5738 6.47795 20.773 6.47795C20.9721 6.47795 21.1631 6.39883 21.304 6.258L22.3645 5.196V5.196ZM10.696 4.1355C10.5545 3.99888 10.3651 3.92329 10.1684 3.92499C9.97176 3.9267 9.78365 4.00558 9.6446 4.14464C9.50554 4.28369 9.42666 4.4718 9.42496 4.66845C9.42325 4.8651 9.49884 5.05455 9.63546 5.196L10.696 6.258C10.7657 6.32773 10.8485 6.38305 10.9396 6.42079C11.0307 6.45852 11.1283 6.47795 11.227 6.47795C11.3256 6.47795 11.4232 6.45852 11.5143 6.42079C11.6054 6.38305 11.6882 6.32773 11.758 6.258C11.8277 6.18827 11.883 6.10548 11.9207 6.01438C11.9585 5.92327 11.9779 5.82562 11.9779 5.727C11.9779 5.62838 11.9585 5.53073 11.9207 5.43963C11.883 5.34852 11.8277 5.26573 11.758 5.196L10.696 4.1355V4.1355ZM13.297 9.1965C13.4834 8.81016 13.7505 8.46829 14.0803 8.19396C14.4101 7.91963 14.7949 7.71921 15.2087 7.60622C15.6225 7.49324 16.0557 7.47032 16.4792 7.539C16.9026 7.60768 17.3064 7.76638 17.6633 8.00438C18.0202 8.24238 18.3219 8.55415 18.548 8.91866C18.7742 9.28317 18.9195 9.69194 18.9743 10.1174C19.029 10.5429 18.9919 10.9751 18.8654 11.385C18.7389 11.7949 18.526 12.1729 18.241 12.4935C18.5395 12.915 18.799 13.3665 19.015 13.8405C19.5233 13.3812 19.9201 12.8119 20.175 12.176C20.4299 11.5401 20.5363 10.8544 20.486 10.1711C20.4357 9.48784 20.23 8.82509 19.8847 8.23338C19.5394 7.64167 19.0635 7.13661 18.4934 6.75672C17.9232 6.37683 17.2739 6.13213 16.5948 6.04128C15.9158 5.95043 15.225 6.01583 14.575 6.23249C13.9251 6.44915 13.3332 6.81136 12.8445 7.29149C12.3557 7.77162 11.9831 8.357 11.755 9.003C12.283 9.0195 12.799 9.0855 13.297 9.1965ZM20.023 15.3075C20.923 15.63 21.7105 16.1925 22.306 16.9155C22.3876 16.8494 22.4545 16.7668 22.5022 16.6732C22.5499 16.5796 22.5774 16.477 22.5829 16.372C22.5884 16.2671 22.5718 16.1622 22.5342 16.064C22.4966 15.9659 22.4387 15.8768 22.3645 15.8025L21.304 14.742C21.197 14.6344 21.06 14.5618 20.911 14.5337C20.762 14.5056 20.6079 14.5234 20.4692 14.5846C20.3304 14.6459 20.2135 14.7478 20.1339 14.8768C20.0542 15.0059 20.0155 15.156 20.023 15.3075ZM22.75 9.75C22.551 9.75 22.3603 9.82902 22.2196 9.96967C22.079 10.1103 22 10.3011 22 10.5C22 10.6989 22.079 10.8897 22.2196 11.0303C22.3603 11.171 22.551 11.25 22.75 11.25H24.25C24.4489 11.25 24.6396 11.171 24.7803 11.0303C24.9209 10.8897 25 10.6989 25 10.5C25 10.3011 24.9209 10.1103 24.7803 9.96967C24.6396 9.82902 24.4489 9.75 24.25 9.75H22.75Z" fill="white"/>
</svg>
