<svg width="24" height="25" viewBox="0 0 24 25" fill="none" xmlns="http://www.w3.org/2000/svg">
<path fill-rule="evenodd" clip-rule="evenodd" d="M3 1.82143V20.0357C3 20.5188 3.1919 20.9821 3.53348 21.3237C3.87507 21.6652 4.33836 21.8571 4.82143 21.8571H12.7143V19.7109C12.2513 19.4436 11.8895 19.031 11.6849 18.5371C11.4803 18.0431 11.4444 17.4955 11.5828 16.9791C11.7211 16.4627 12.026 16.0064 12.4502 15.681C12.8743 15.3555 13.394 15.1791 13.9286 15.1791C14.4632 15.1791 14.9829 15.3555 15.407 15.681C15.8311 16.0064 16.136 16.4627 16.2744 16.9791C16.4128 17.4955 16.3769 18.0431 16.1723 18.5371C15.9677 19.031 15.6058 19.4436 15.1429 19.7109V21.8571H18.1786C18.6616 21.8571 19.1249 21.6652 19.4665 21.3237C19.8081 20.9821 20 20.5188 20 20.0357V1.82143C20 1.33836 19.8081 0.875068 19.4665 0.533484C19.1249 0.1919 18.6616 0 18.1786 0H4.82143C4.33836 0 3.87507 0.1919 3.53348 0.533484C3.1919 0.875068 3 1.33836 3 1.82143V1.82143ZM13.9286 18.8214C14.2506 18.8214 14.5595 18.6935 14.7872 18.4658C15.0149 18.2381 15.1429 17.9292 15.1429 17.6071C15.1429 17.2851 15.0149 16.9762 14.7872 16.7485C14.5595 16.5208 14.2506 16.3929 13.9286 16.3929C13.6065 16.3929 13.2977 16.5208 13.0699 16.7485C12.8422 16.9762 12.7143 17.2851 12.7143 17.6071C12.7143 17.9292 12.8422 18.2381 13.0699 18.4658C13.2977 18.6935 13.6065 18.8214 13.9286 18.8214V18.8214ZM7.85714 4.25C7.85714 4.08898 7.92111 3.93455 8.03497 3.82069C8.14883 3.70682 8.30326 3.64286 8.46429 3.64286H14.5357C14.6967 3.64286 14.8512 3.70682 14.965 3.82069C15.0789 3.93455 15.1429 4.08898 15.1429 4.25C15.1429 4.41102 15.0789 4.56545 14.965 4.67931C14.8512 4.79318 14.6967 4.85714 14.5357 4.85714H8.46429C8.30326 4.85714 8.14883 4.79318 8.03497 4.67931C7.92111 4.56545 7.85714 4.41102 7.85714 4.25ZM6.03571 7.28571C5.87469 7.28571 5.72026 7.34968 5.6064 7.46354C5.49254 7.5774 5.42857 7.73183 5.42857 7.89286C5.42857 8.05388 5.49254 8.20831 5.6064 8.32217C5.72026 8.43603 5.87469 8.5 6.03571 8.5H16.9643C17.1253 8.5 17.2797 8.43603 17.3936 8.32217C17.5075 8.20831 17.5714 8.05388 17.5714 7.89286C17.5714 7.73183 17.5075 7.5774 17.3936 7.46354C17.2797 7.34968 17.1253 7.28571 16.9643 7.28571H6.03571ZM5.42857 10.3214C5.42857 10.1604 5.49254 10.006 5.6064 9.89211C5.72026 9.77825 5.87469 9.71429 6.03571 9.71429H16.9643C17.1253 9.71429 17.2797 9.77825 17.3936 9.89211C17.5075 10.006 17.5714 10.1604 17.5714 10.3214C17.5714 10.4825 17.5075 10.6369 17.3936 10.7507C17.2797 10.8646 17.1253 10.9286 16.9643 10.9286H6.03571C5.87469 10.9286 5.72026 10.8646 5.6064 10.7507C5.49254 10.6369 5.42857 10.4825 5.42857 10.3214ZM6.03571 12.1429C5.87469 12.1429 5.72026 12.2068 5.6064 12.3207C5.49254 12.4345 5.42857 12.589 5.42857 12.75C5.42857 12.911 5.49254 13.0655 5.6064 13.1793C5.72026 13.2932 5.87469 13.3571 6.03571 13.3571H16.9643C17.1253 13.3571 17.2797 13.2932 17.3936 13.1793C17.5075 13.0655 17.5714 12.911 17.5714 12.75C17.5714 12.589 17.5075 12.4345 17.3936 12.3207C17.2797 12.2068 17.1253 12.1429 16.9643 12.1429H6.03571Z" fill="white"/>
<path d="M12.7142 24.2857V21.8571H15.1428V24.2857L13.9285 23.375L12.7142 24.2857Z" fill="white"/>
</svg>
