<svg width="52" height="52" viewBox="0 0 52 52" fill="none" xmlns="http://www.w3.org/2000/svg">
<path opacity="0.2" d="M42.25 17.875H30.875V6.5L42.25 17.875Z" fill="#7275DA"/>
<path d="M26 35.75C26 36.181 25.8288 36.5943 25.524 36.8991C25.2193 37.2038 24.806 37.375 24.375 37.375H22.75V43.875C22.75 44.306 22.5788 44.7193 22.274 45.0241C21.9693 45.3288 21.556 45.5 21.125 45.5C20.694 45.5 20.2807 45.3288 19.976 45.0241C19.6712 44.7193 19.5 44.306 19.5 43.875V37.375H17.875C17.444 37.375 17.0307 37.2038 16.726 36.8991C16.4212 36.5943 16.25 36.181 16.25 35.75C16.25 35.319 16.4212 34.9057 16.726 34.601C17.0307 34.2962 17.444 34.125 17.875 34.125H24.375C24.806 34.125 25.2193 34.2962 25.524 34.601C25.8288 34.9057 26 35.319 26 35.75ZM13 34.125C12.569 34.125 12.1557 34.2962 11.851 34.601C11.5462 34.9057 11.375 35.319 11.375 35.75V38.1875H8.9375V35.75C8.9375 35.319 8.76629 34.9057 8.46155 34.601C8.1568 34.2962 7.74348 34.125 7.3125 34.125C6.88152 34.125 6.4682 34.2962 6.16345 34.601C5.8587 34.9057 5.6875 35.319 5.6875 35.75V43.875C5.6875 44.306 5.8587 44.7193 6.16345 45.0241C6.4682 45.3288 6.88152 45.5 7.3125 45.5C7.74348 45.5 8.1568 45.3288 8.46155 45.0241C8.76629 44.7193 8.9375 44.306 8.9375 43.875V41.4375H11.375V43.875C11.375 44.306 11.5462 44.7193 11.851 45.0241C12.1557 45.3288 12.569 45.5 13 45.5C13.431 45.5 13.8443 45.3288 14.149 45.0241C14.4538 44.7193 14.625 44.306 14.625 43.875V35.75C14.625 35.319 14.4538 34.9057 14.149 34.601C13.8443 34.2962 13.431 34.125 13 34.125ZM47.9375 42.25H44.6875V35.75C44.6875 35.319 44.5163 34.9057 44.2115 34.601C43.9068 34.2962 43.4935 34.125 43.0625 34.125C42.6315 34.125 42.2182 34.2962 41.9135 34.601C41.6087 34.9057 41.4375 35.319 41.4375 35.75V43.875C41.4375 44.306 41.6087 44.7193 41.9135 45.0241C42.2182 45.3288 42.6315 45.5 43.0625 45.5H47.9375C48.3685 45.5 48.7818 45.3288 49.0865 45.0241C49.3913 44.7193 49.5625 44.306 49.5625 43.875C49.5625 43.444 49.3913 43.0307 49.0865 42.726C48.7818 42.4212 48.3685 42.25 47.9375 42.25ZM37.8625 34.2063C37.5359 34.0977 37.1828 34.0984 36.8566 34.2084C36.5304 34.3183 36.2489 34.5315 36.0547 34.8156L33.3125 38.6344L30.5703 34.8156C30.3704 34.537 30.0875 34.3288 29.7621 34.2207C29.4367 34.1126 29.0854 34.1103 28.7586 34.214C28.4317 34.3177 28.146 34.5221 27.9424 34.798C27.7388 35.0739 27.6277 35.4071 27.625 35.75V43.875C27.625 44.306 27.7962 44.7193 28.101 45.0241C28.4057 45.3288 28.819 45.5 29.25 45.5C29.681 45.5 30.0943 45.3288 30.399 45.0241C30.7038 44.7193 30.875 44.306 30.875 43.875V40.8281L31.9922 42.3719C32.1398 42.5856 32.337 42.7602 32.567 42.8809C32.797 43.0015 33.0528 43.0646 33.3125 43.0646C33.5722 43.0646 33.828 43.0015 34.058 42.8809C34.288 42.7602 34.4852 42.5856 34.6328 42.3719L35.75 40.8281V43.875C35.75 44.306 35.9212 44.7193 36.226 45.0241C36.5307 45.3288 36.944 45.5 37.375 45.5C37.806 45.5 38.2193 45.3288 38.524 45.0241C38.8288 44.7193 39 44.306 39 43.875V35.75C39.0052 35.4038 38.8967 35.0653 38.6913 34.7865C38.4859 34.5077 38.1948 34.3039 37.8625 34.2063ZM42.25 27.625C41.819 27.625 41.4057 27.4538 41.101 27.1491C40.7962 26.8443 40.625 26.431 40.625 26V19.5H30.875C30.444 19.5 30.0307 19.3288 29.726 19.0241C29.4212 18.7193 29.25 18.306 29.25 17.875V8.12503H11.375V26C11.375 26.431 11.2038 26.8443 10.899 27.1491C10.5943 27.4538 10.181 27.625 9.75 27.625C9.31902 27.625 8.9057 27.4538 8.60095 27.1491C8.29621 26.8443 8.125 26.431 8.125 26V8.12503C8.125 7.26307 8.46741 6.43642 9.0769 5.82693C9.6864 5.21744 10.513 4.87503 11.375 4.87503H30.875C31.3073 4.87259 31.7232 5.04041 32.0328 5.34221L43.3875 16.7172C43.5434 16.8668 43.6671 17.0466 43.7509 17.2457C43.8347 17.4448 43.877 17.659 43.875 17.875V26C43.875 26.431 43.7038 26.8443 43.399 27.1491C43.0943 27.4538 42.681 27.625 42.25 27.625ZM32.5 16.25H38.3297L32.5 10.4203V16.25Z" fill="#7275DA"/>
</svg>
