<svg width="53" height="122" viewBox="0 0 53 122" fill="none" xmlns="http://www.w3.org/2000/svg">
<path d="M13.5361 46.7461H6.9707C5.91699 46.7461 5.39014 46.4219 5.39014 45.7734C5.39014 45.179 5.60628 44.5711 6.03857 43.9497C6.47087 43.3013 7.02474 42.7069 7.7002 42.1665C8.40267 41.6261 9.17269 41.1668 10.0103 40.7886C10.8748 40.4103 11.7124 40.1942 12.5229 40.1401L15.7651 40.0591C20.061 40.0591 24.0597 40.5994 27.7612 41.6802C31.4627 42.7339 34.6779 44.4225 37.4067 46.7461C40.1356 49.0697 42.27 52.0552 43.8101 55.7026C45.3771 59.3501 46.1606 63.7676 46.1606 68.9551C46.1606 71.4137 45.904 73.8184 45.3906 76.1689C44.9043 78.5195 44.1883 80.735 43.2427 82.8154C42.297 84.8958 41.1488 86.8006 39.7979 88.5298C38.474 90.259 36.988 91.7585 35.3398 93.0283C33.6917 94.2712 31.895 95.2438 29.9497 95.9463C28.0044 96.6488 25.9645 97 23.8301 97C22.8844 97 22.4116 96.6893 22.4116 96.0679C22.4116 95.5815 22.7088 95.2033 23.3032 94.9331C25.5998 93.8794 27.6396 92.6501 29.4229 91.2451C31.2061 89.8402 32.7056 88.165 33.9214 86.2197C35.1642 84.2474 36.0964 81.9508 36.7178 79.3301C37.3662 76.7093 37.6904 73.6562 37.6904 70.1709C37.6904 66.7126 37.2716 63.5649 36.4341 60.728C35.6235 57.8911 34.2726 55.446 32.3813 53.3926C30.4901 51.3392 28.0044 49.7451 24.9243 48.6104C21.8442 47.4486 18.0482 46.8271 13.5361 46.7461ZM5.39014 95.2573V51.6094C5.39014 50.6367 5.71436 49.9883 6.36279 49.6641C7.03825 49.3398 8.06494 49.1777 9.44287 49.1777C10.9559 49.1777 12.0096 49.3398 12.604 49.6641C13.2254 49.9613 13.5361 50.6097 13.5361 51.6094V88.6919C13.5361 89.7996 14.09 90.3535 15.1978 90.3535H21.9253C23.0871 90.3535 23.668 90.6912 23.668 91.3667C23.668 91.772 23.2492 92.2988 22.4116 92.9473C21.6011 93.5957 20.5879 94.2171 19.3721 94.8115C18.1562 95.4059 16.7783 95.9193 15.2383 96.3516C13.6982 96.7839 12.2933 97 11.0234 97H7.05176C5.94401 97 5.39014 96.4191 5.39014 95.2573Z" fill="#2DC0B7"/>
<path d="M16.5361 45.7461H9.9707C8.91699 45.7461 8.39014 45.4219 8.39014 44.7734C8.39014 44.179 8.60628 43.5711 9.03857 42.9497C9.47087 42.3013 10.0247 41.7069 10.7002 41.1665C11.4027 40.6261 12.1727 40.1668 13.0103 39.7886C13.8748 39.4103 14.7124 39.1942 15.5229 39.1401L18.7651 39.0591C23.061 39.0591 27.0597 39.5994 30.7612 40.6802C34.4627 41.7339 37.6779 43.4225 40.4067 45.7461C43.1356 48.0697 45.27 51.0552 46.8101 54.7026C48.3771 58.3501 49.1606 62.7676 49.1606 67.9551C49.1606 70.4137 48.904 72.8184 48.3906 75.1689C47.9043 77.5195 47.1883 79.735 46.2427 81.8154C45.297 83.8958 44.1488 85.8006 42.7979 87.5298C41.474 89.259 39.988 90.7585 38.3398 92.0283C36.6917 93.2712 34.895 94.2438 32.9497 94.9463C31.0044 95.6488 28.9645 96 26.8301 96C25.8844 96 25.4116 95.6893 25.4116 95.0679C25.4116 94.5815 25.7088 94.2033 26.3032 93.9331C28.5998 92.8794 30.6396 91.6501 32.4229 90.2451C34.2061 88.8402 35.7056 87.165 36.9214 85.2197C38.1642 83.2474 39.0964 80.9508 39.7178 78.3301C40.3662 75.7093 40.6904 72.6562 40.6904 69.1709C40.6904 65.7126 40.2716 62.5649 39.4341 59.728C38.6235 56.8911 37.2726 54.446 35.3813 52.3926C33.4901 50.3392 31.0044 48.7451 27.9243 47.6104C24.8442 46.4486 21.0482 45.8271 16.5361 45.7461ZM8.39014 94.2573V50.6094C8.39014 49.6367 8.71436 48.9883 9.36279 48.6641C10.0382 48.3398 11.0649 48.1777 12.4429 48.1777C13.9559 48.1777 15.0096 48.3398 15.604 48.6641C16.2254 48.9613 16.5361 49.6097 16.5361 50.6094V87.6919C16.5361 88.7996 17.09 89.3535 18.1978 89.3535H24.9253C26.0871 89.3535 26.668 89.6912 26.668 90.3667C26.668 90.772 26.2492 91.2988 25.4116 91.9473C24.6011 92.5957 23.5879 93.2171 22.3721 93.8115C21.1562 94.4059 19.7783 94.9193 18.2383 95.3516C16.6982 95.7839 15.2933 96 14.0234 96H10.0518C8.94401 96 8.39014 95.4191 8.39014 94.2573Z" fill="white"/>
</svg>
