<svg width="1920" height="231" viewBox="0 0 1920 231" fill="none" xmlns="http://www.w3.org/2000/svg">
<g filter="url(#filter0_i_4_24)">
<path fill-rule="evenodd" clip-rule="evenodd" d="M0 64.2812L80 70.07C160 75.28 320 86.2788 480 64.2812C640 42.2836 800 -13.2894 960 2.9194C1120 19.7071 1280 108.855 1440 125.643C1600 141.852 1760 86.2788 1840 58.4923L1920 30.7059V231H1840C1760 231 1600 231 1440 231C1280 231 1120 231 960 231C800 231 640 231 480 231C320 231 160 231 80 231H0V64.2812Z" fill="white"/>
<path fill-rule="evenodd" clip-rule="evenodd" d="M0 64.2812L80 70.07C160 75.28 320 86.2788 480 64.2812C640 42.2836 800 -13.2894 960 2.9194C1120 19.7071 1280 108.855 1440 125.643C1600 141.852 1760 86.2788 1840 58.4923L1920 30.7059V231H1840C1760 231 1600 231 1440 231C1280 231 1120 231 960 231C800 231 640 231 480 231C320 231 160 231 80 231H0V64.2812Z" stroke="black"/>
</g>
<defs>
<filter id="filter0_i_4_24" x="0" y="0" width="1920" height="235" filterUnits="userSpaceOnUse" color-interpolation-filters="sRGB">
<feFlood flood-opacity="0" result="BackgroundImageFix"/>
<feBlend mode="normal" in="SourceGraphic" in2="BackgroundImageFix" result="shape"/>
<feColorMatrix in="SourceAlpha" type="matrix" values="0 0 0 0 0 0 0 0 0 0 0 0 0 0 0 0 0 0 127 0" result="hardAlpha"/>
<feOffset dy="10"/>
<feGaussianBlur stdDeviation="2"/>
<feComposite in2="hardAlpha" operator="arithmetic" k2="-1" k3="1"/>
<feColorMatrix type="matrix" values="0 0 0 0 0 0 0 0 0 0 0 0 0 0 0 0 0 0 0.25 0"/>
<feBlend mode="normal" in2="shape" result="effect1_innerShadow_4_24"/>
</filter>
</defs>
</svg>
