<svg width="227" height="50" viewBox="0 0 227 50" fill="none" xmlns="http://www.w3.org/2000/svg">
<path d="M36.1741 0.176758C36.1741 0.176758 13.5278 0.176758 7.86617 1.64562C4.76719 2.46818 2.32423 4.87665 1.48989 7.93188C0 13.5135 0 25.0877 0 25.0877C0 25.0877 0 36.7218 1.48989 42.2447C2.32423 45.2999 4.76719 47.7084 7.86617 48.5309C13.5278 49.9998 36.1741 49.9998 36.1741 49.9998C36.1741 49.9998 58.8205 49.9998 64.4821 48.5309C67.581 47.7084 70.0252 45.2999 70.8595 42.2447C72.3494 36.663 72.3494 25.0877 72.3494 25.0877C72.3494 25.0877 72.3494 13.5135 70.8595 7.93188C70.0252 4.87665 67.581 2.46818 64.4821 1.64562C58.8205 0.176758 36.1741 0.176758 36.1741 0.176758ZM28.9039 14.3949L47.7359 25.1474L28.9039 35.8402V14.3949Z" fill="#7275DA"/>
<path d="M87.6653 32.6087L79.5603 3.64282H86.6522L89.5128 16.7451C90.2279 19.9765 90.7643 22.738 91.1219 25.0294H91.3007C91.539 23.3843 92.0754 20.6816 92.9097 16.8038L95.8895 3.64282H102.981L94.7572 32.6087V46.5335H87.7249L87.6653 32.6087ZM105.067 45.5935C103.637 44.6534 102.624 43.1845 102.028 41.1281C101.432 39.1305 101.134 36.4278 101.134 33.1375V28.6134C101.134 25.2644 101.492 22.5617 102.147 20.5053C102.862 18.4489 103.935 16.9801 105.365 16.04C106.855 15.0999 108.762 14.6299 111.146 14.6299C113.47 14.6299 115.377 15.0999 116.808 16.04C118.238 16.9801 119.251 18.5077 119.907 20.5053C120.562 22.503 120.92 25.2057 120.92 28.6134V33.1375C120.92 36.4865 120.622 39.1305 119.966 41.1869C119.311 43.1845 118.298 44.7121 116.867 45.6522C115.437 46.5923 113.47 47.0623 111.027 47.0623C108.464 47.0036 106.498 46.5335 105.067 45.5935V45.5935ZM113.113 40.7169C113.53 39.718 113.709 38.0141 113.709 35.7227V25.9695C113.709 23.7368 113.53 22.0917 113.113 21.0341C112.696 19.9765 112.04 19.5065 111.027 19.5065C110.073 19.5065 109.358 20.0353 109.001 21.0341C108.583 22.0917 108.405 23.7368 108.405 25.9695V35.7227C108.405 38.0141 108.583 39.718 109.001 40.7169C109.358 41.7157 110.073 42.2445 111.086 42.2445C111.98 42.2445 112.696 41.7157 113.113 40.7169V40.7169ZM143.924 15.2174V46.5335H138.322L137.726 42.7145H137.547C136.057 45.5935 133.733 47.0623 130.693 47.0623C128.608 47.0623 127.058 46.3573 126.045 45.0059C125.032 43.6546 124.555 41.5394 124.555 38.6017V15.2174H131.707V38.1904C131.707 39.6005 131.885 40.5993 132.183 41.1869C132.481 41.7744 133.018 42.0682 133.733 42.0682C134.329 42.0682 134.925 41.8919 135.521 41.4807C136.117 41.1281 136.534 40.6581 136.772 40.0705V15.2174H143.924V15.2174Z" fill="#7275DA"/>
<path d="M163.352 9.34192H156.26V46.5335H149.287V9.40068H142.195V3.76025H163.352V9.34192Z" fill="#7275DA"/>
<path d="M180.575 15.2174V46.5335H174.973L174.377 42.7144H174.198C172.708 45.5934 170.384 47.0623 167.345 47.0623C165.259 47.0623 163.709 46.3572 162.696 45.0059C161.683 43.6545 161.206 41.5394 161.206 38.6016V15.2174H168.358V38.1904C168.358 39.6005 168.537 40.5993 168.835 41.1868C169.133 41.7744 169.669 42.0681 170.384 42.0681C170.98 42.0681 171.576 41.8919 172.172 41.4806C172.768 41.1281 173.185 40.658 173.423 40.0705V15.2174H180.575V15.2174ZM204.234 20.2115C203.817 18.2139 203.102 16.8038 202.149 15.9224C201.195 15.0411 199.824 14.5711 198.156 14.5711C196.845 14.5711 195.593 14.9236 194.461 15.6874C193.328 16.3925 192.434 17.3913 191.838 18.5664H191.779V2.0564H184.866V46.5335H190.766L191.481 43.5958H191.66C192.196 44.6533 193.03 45.4759 194.163 46.1222C195.295 46.7097 196.487 47.0623 197.858 47.0623C200.301 47.0623 202.029 45.9459 203.162 43.772C204.294 41.5981 204.89 38.1316 204.89 33.49V28.5546C204.89 24.9119 204.652 22.2092 204.234 20.2115V20.2115ZM197.679 32.9612C197.679 35.2526 197.56 37.0153 197.381 38.3079C197.202 39.6005 196.845 40.5405 196.427 41.0693C195.951 41.5981 195.355 41.8919 194.639 41.8919C194.044 41.8919 193.507 41.7744 193.03 41.4806C192.554 41.1868 192.136 40.7756 191.838 40.2468V22.5029C192.077 21.6804 192.494 20.9753 193.09 20.3878C193.686 19.859 194.342 19.5652 194.997 19.5652C195.712 19.5652 196.308 19.859 196.666 20.3878C197.083 20.9753 197.321 21.9154 197.5 23.208C197.679 24.5593 197.738 26.4395 197.738 28.8484L197.679 32.9612V32.9612ZM215.021 33.1962V34.7826C215.021 36.7803 215.081 38.3079 215.2 39.3067C215.319 40.3055 215.558 41.0693 215.975 41.4806C216.332 41.9506 216.928 42.1857 217.763 42.1857C218.835 42.1857 219.55 41.7744 219.968 40.9518C220.385 40.1293 220.564 38.7779 220.623 36.839L226.762 37.1915C226.821 37.4853 226.821 37.8378 226.821 38.3079C226.821 41.1868 226.046 43.3607 224.437 44.7708C222.828 46.181 220.564 46.886 217.643 46.886C214.127 46.886 211.684 45.7697 210.254 43.5958C208.823 41.4218 208.108 38.0728 208.108 33.49V28.0258C208.108 23.3255 208.823 19.9177 210.313 17.7438C211.803 15.5699 214.306 14.5123 217.822 14.5123C220.266 14.5123 222.173 14.9824 223.484 15.8637C224.795 16.745 225.689 18.1551 226.225 19.9765C226.762 21.8566 227 24.4418 227 27.7321V33.0787H215.021V33.1962V33.1962ZM215.915 20.0352C215.558 20.5053 215.319 21.2103 215.2 22.2092C215.081 23.208 215.021 24.7356 215.021 26.792V29.0247H220.266V26.792C220.266 24.7944 220.206 23.2667 220.087 22.2092C219.968 21.1516 219.67 20.4465 219.312 20.0352C218.955 19.624 218.359 19.3889 217.643 19.3889C216.869 19.3889 216.273 19.624 215.915 20.0352Z" fill="#7275DA"/>
</svg>
