<svg width="52" height="52" viewBox="0 0 52 52" fill="none" xmlns="http://www.w3.org/2000/svg">
<path d="M30.3334 7.08275C30.3334 5.56392 29.1027 4.33325 27.5839 4.33325H24.4184C22.8974 4.33325 21.6667 5.56392 21.6667 7.08275C21.6667 8.33509 20.8087 9.40975 19.6409 9.86908C19.4567 9.94275 19.2725 10.0208 19.0927 10.0988C17.9422 10.5971 16.575 10.4454 15.6867 9.55925C15.1711 9.04404 14.4721 8.75463 13.7432 8.75463C13.0143 8.75463 12.3153 9.04404 11.7997 9.55925L9.55937 11.7996C9.04416 12.3152 8.75475 13.0142 8.75475 13.7431C8.75475 14.472 9.04416 15.171 9.55937 15.6866C10.4477 16.5749 10.5994 17.9399 10.0967 19.0926C10.0177 19.274 9.94188 19.4567 9.86921 19.6407C9.40987 20.8086 8.33521 21.6666 7.08287 21.6666C5.56404 21.6666 4.33337 22.8973 4.33337 24.4161V27.5838C4.33337 29.1026 5.56404 30.3333 7.08287 30.3333C8.33521 30.3333 9.40987 31.1913 9.86921 32.3591C9.94287 32.5433 10.0209 32.7274 10.0967 32.9072C10.5972 34.0577 10.4455 35.4249 9.55937 36.3133C9.04416 36.8288 8.75475 37.5279 8.75475 38.2567C8.75475 38.9856 9.04416 39.6847 9.55937 40.2003L11.7997 42.4406C12.3153 42.9558 13.0143 43.2452 13.7432 43.2452C14.4721 43.2452 15.1711 42.9558 15.6867 42.4406C16.575 41.5522 17.94 41.4006 19.0927 41.9011C19.2725 41.9813 19.4567 42.0571 19.6409 42.1307C20.8087 42.5901 21.6667 43.6648 21.6667 44.9171C21.6667 46.4359 22.8974 47.6666 24.4162 47.6666H27.5839C29.1027 47.6666 30.3334 46.4359 30.3334 44.9171C30.3334 43.6648 31.1914 42.5901 32.3592 42.1286C32.5434 42.0571 32.7275 41.9812 32.9074 41.9032C34.0579 41.4006 35.425 41.5544 36.3112 42.4406C36.5665 42.696 36.8697 42.8986 37.2033 43.0369C37.537 43.1751 37.8946 43.2463 38.2558 43.2463C38.617 43.2463 38.9746 43.1751 39.3082 43.0369C39.6419 42.8986 39.945 42.696 40.2004 42.4406L42.4407 40.2003C42.9559 39.6847 43.2453 38.9856 43.2453 38.2567C43.2453 37.5279 42.9559 36.8288 42.4407 36.3133C41.5524 35.4249 41.4007 34.0599 41.9012 32.9072C41.9814 32.7274 42.0572 32.5433 42.1309 32.3591C42.5902 31.1913 43.6649 30.3333 44.9172 30.3333C46.436 30.3333 47.6667 29.1026 47.6667 27.5838V24.4183C47.6667 22.8994 46.436 21.6688 44.9172 21.6688C43.6649 21.6688 42.5902 20.8108 42.1287 19.6429C42.0561 19.4589 41.9803 19.2761 41.9012 19.0948C41.4029 17.9443 41.5545 16.5771 42.4407 15.6888C42.9559 15.1732 43.2453 14.4741 43.2453 13.7453C43.2453 13.0164 42.9559 12.3173 42.4407 11.8018L40.2004 9.56142C39.6848 9.04621 38.9857 8.7568 38.2569 8.7568C37.528 8.7568 36.8289 9.04621 36.3134 9.56142C35.425 10.4498 34.06 10.6014 32.9074 10.1009C32.726 10.0212 32.5432 9.94463 32.3592 9.87125C31.1914 9.40975 30.3334 8.33508 30.3334 7.08492V7.08275Z" stroke="#7275DA" stroke-width="2"/>
<path d="M34.6667 25.9999C34.6667 28.2985 33.7536 30.5029 32.1283 32.1282C30.503 33.7535 28.2986 34.6666 26 34.6666C23.7015 34.6666 21.4971 33.7535 19.8718 32.1282C18.2465 30.5029 17.3334 28.2985 17.3334 25.9999C17.3334 23.7014 18.2465 21.497 19.8718 19.8717C21.4971 18.2463 23.7015 17.3333 26 17.3333C28.2986 17.3333 30.503 18.2463 32.1283 19.8717C33.7536 21.497 34.6667 23.7014 34.6667 25.9999V25.9999Z" stroke="#7275DA" stroke-width="2"/>
</svg>
