<svg width="52" height="52" viewBox="0 0 52 52" fill="none" xmlns="http://www.w3.org/2000/svg">
<path d="M26.2031 34.1758C26.2031 34.3992 26.3758 34.582 26.584 34.582H35.9785C36.1867 34.582 36.3594 34.3992 36.3594 34.1758V31.7383C36.3594 31.5148 36.1867 31.332 35.9785 31.332H26.584C26.3758 31.332 26.2031 31.5148 26.2031 31.7383V34.1758ZM16.3059 34.4855L26.0559 26.3098C26.2488 26.1473 26.2488 25.8477 26.0559 25.6852L16.3059 17.5145C16.247 17.4644 16.175 17.4323 16.0984 17.4219C16.0219 17.4116 15.944 17.4234 15.8739 17.456C15.8039 17.4886 15.7447 17.5407 15.7033 17.6059C15.662 17.6712 15.6402 17.747 15.6406 17.8242V21.0082C15.6406 21.1301 15.6914 21.2418 15.7879 21.318L21.3637 26L15.7879 30.682C15.7425 30.72 15.7058 30.7674 15.6804 30.8208C15.655 30.8743 15.6414 30.9326 15.6406 30.9918V34.1758C15.6406 34.5211 16.0418 34.709 16.3059 34.4855ZM44.6875 5.6875H7.3125C6.41367 5.6875 5.6875 6.41367 5.6875 7.3125V44.6875C5.6875 45.5863 6.41367 46.3125 7.3125 46.3125H44.6875C45.5863 46.3125 46.3125 45.5863 46.3125 44.6875V7.3125C46.3125 6.41367 45.5863 5.6875 44.6875 5.6875ZM42.6562 42.6562H9.34375V9.34375H42.6562V42.6562Z" fill="#7275DA"/>
</svg>
