<svg width="52" height="52" viewBox="0 0 52 52" fill="none" xmlns="http://www.w3.org/2000/svg">
<path d="M45.5 14.625V45.5C45.5 47.2239 44.8152 48.8772 43.5962 50.0962C42.3772 51.3152 40.7239 52 39 52H13C11.2761 52 9.62279 51.3152 8.40381 50.0962C7.18482 48.8772 6.5 47.2239 6.5 45.5V6.5C6.5 4.77609 7.18482 3.12279 8.40381 1.90381C9.62279 0.68482 11.2761 0 13 0L30.875 0L45.5 14.625ZM35.75 14.625C34.4571 14.625 33.2171 14.1114 32.3029 13.1971C31.3886 12.2829 30.875 11.0429 30.875 9.75V3.25H13C12.138 3.25 11.3114 3.59241 10.7019 4.2019C10.0924 4.8114 9.75 5.63805 9.75 6.5V45.5C9.75 46.362 10.0924 47.1886 10.7019 47.7981C11.3114 48.4076 12.138 48.75 13 48.75H39C39.862 48.75 40.6886 48.4076 41.2981 47.7981C41.9076 47.1886 42.25 46.362 42.25 45.5V14.625H35.75Z" fill="#7275DA"/>
<path d="M28.0995 21.5995C28.2504 21.4481 28.4297 21.3281 28.6272 21.2462C28.8246 21.1642 29.0362 21.1221 29.25 21.1221C29.4637 21.1221 29.6754 21.1642 29.8728 21.2462C30.0702 21.3281 30.2495 21.4481 30.4005 21.5995L36.9005 28.0995C37.0518 28.2504 37.1719 28.4297 37.2538 28.6272C37.3357 28.8246 37.3779 29.0362 37.3779 29.25C37.3779 29.4637 37.3357 29.6754 37.2538 29.8728C37.1719 30.0702 37.0518 30.2495 36.9005 30.4005L30.4005 36.9005C30.0953 37.2056 29.6815 37.377 29.25 37.377C28.8185 37.377 28.4046 37.2056 28.0995 36.9005C27.7943 36.5953 27.6229 36.1815 27.6229 35.75C27.6229 35.3185 27.7943 34.9046 28.0995 34.5995L33.4522 29.25L28.0995 23.9005C27.9481 23.7495 27.8281 23.5702 27.7462 23.3728C27.6642 23.1754 27.6221 22.9637 27.6221 22.75C27.6221 22.5362 27.6642 22.3246 27.7462 22.1272C27.8281 21.9297 27.9481 21.7504 28.0995 21.5995ZM23.9005 21.5995C23.7495 21.4481 23.5702 21.3281 23.3728 21.2462C23.1754 21.1642 22.9637 21.1221 22.75 21.1221C22.5362 21.1221 22.3246 21.1642 22.1272 21.2462C21.9297 21.3281 21.7504 21.4481 21.5995 21.5995L15.0995 28.0995C14.9481 28.2504 14.8281 28.4297 14.7462 28.6272C14.6642 28.8246 14.6221 29.0362 14.6221 29.25C14.6221 29.4637 14.6642 29.6754 14.7462 29.8728C14.8281 30.0702 14.9481 30.2495 15.0995 30.4005L21.5995 36.9005C21.9046 37.2056 22.3185 37.377 22.75 37.377C23.1815 37.377 23.5953 37.2056 23.9005 36.9005C24.2056 36.5953 24.377 36.1815 24.377 35.75C24.377 35.3185 24.2056 34.9046 23.9005 34.5995L18.5477 29.25L23.9005 23.9005C24.0518 23.7495 24.1719 23.5702 24.2538 23.3728C24.3357 23.1754 24.3779 22.9637 24.3779 22.75C24.3779 22.5362 24.3357 22.3246 24.2538 22.1272C24.1719 21.9297 24.0518 21.7504 23.9005 21.5995Z" fill="#7275DA"/>
</svg>
