<svg width="52" height="52" viewBox="0 0 52 52" fill="none" xmlns="http://www.w3.org/2000/svg">
<path d="M26 4.33325C14.053 4.33325 4.33331 14.0529 4.33331 25.9999C4.33331 37.9469 14.053 47.6666 26 47.6666C37.947 47.6666 47.6666 37.9469 47.6666 25.9999C47.6666 14.0529 37.947 4.33325 26 4.33325ZM8.66665 25.9999C8.66665 24.0521 9.00465 22.1823 9.60048 20.4338L13 23.8333L17.3333 28.1666V32.4999L21.6666 36.8332L23.8333 38.9999V43.1838C15.2988 42.1112 8.66665 34.8226 8.66665 25.9999ZM39.715 36.5581C38.3001 35.4184 36.1551 34.6666 34.6666 34.6666V32.4999C34.6666 31.3506 34.2101 30.2484 33.3974 29.4358C32.5848 28.6231 31.4826 28.1666 30.3333 28.1666H21.6666V21.6666C22.8159 21.6666 23.9181 21.21 24.7308 20.3974C25.5434 19.5847 26 18.4825 26 17.3333V15.1666H28.1666C29.3159 15.1666 30.4181 14.71 31.2308 13.8974C32.0434 13.0847 32.5 11.9825 32.5 10.8333V9.94275C38.844 12.5189 43.3333 18.7416 43.3333 25.9999C43.3329 29.8234 42.0599 33.538 39.715 36.5581Z" fill="#7275DA"/>
</svg>
