<svg width="52" height="52" viewBox="0 0 52 52" fill="none" xmlns="http://www.w3.org/2000/svg">
<path d="M20.3016 37.9382C13.6066 39.8016 24.3533 43.6582 32.8683 40.1049C32.0419 39.7835 31.2446 39.3921 30.4849 38.9349C27.5287 39.6079 24.475 39.7401 21.4716 39.3249C18.6333 38.9999 20.3016 37.9382 20.3016 37.9382ZM31.8499 34.2982C28.0367 35.1275 24.1122 35.3179 20.2366 34.8616C17.3983 34.5582 19.2616 33.1932 19.2616 33.1932C11.8949 35.6199 23.3566 38.3932 33.6483 35.3599C32.9792 35.1401 32.3657 34.7779 31.8499 34.2982ZM35.7933 13.2166C35.7933 13.2166 20.9083 16.9216 28.0149 25.1116C28.2922 25.4439 28.4988 25.8294 28.6221 26.2443C28.7455 26.6592 28.7829 27.0949 28.7322 27.5247C28.6815 27.9546 28.5438 28.3696 28.3273 28.7445C28.1108 29.1193 27.8203 29.4461 27.4733 29.7049C27.4733 29.7049 32.8033 26.9532 30.3549 23.5082C27.9066 20.0632 26.3249 18.6982 35.7933 13.2166Z" fill="#7275DA"/>
<path d="M39.2817 41.4699C39.2817 41.4699 40.495 42.4666 37.9167 43.2466C32.9984 44.7416 17.485 45.1966 13.1734 43.2466C11.6134 42.5749 14.5167 41.6433 15.34 41.4482C15.8281 41.3223 16.3311 41.264 16.835 41.2749C15.1017 40.0616 5.67671 43.6583 12.0467 44.6982C29.4884 47.6666 43.7667 43.4849 39.2817 41.4699ZM33.3017 30.8966C33.9388 30.4937 34.6051 30.1388 35.295 29.8349C35.295 29.8349 32.0234 30.4199 28.795 30.7016C25.3235 31.0366 21.8295 31.0729 18.3517 30.8099C13.195 30.1383 21.1034 28.1666 21.1034 28.1666C18.7235 28.1481 16.3745 28.7057 14.2567 29.7916C9.79338 32.0233 25.285 32.9983 33.3017 30.8966ZM35.2734 36.1833C35.226 36.2568 35.1676 36.3226 35.1 36.3783C45.9334 33.5183 41.99 26.3033 36.79 28.1233C36.5032 28.2288 36.2543 28.4173 36.075 28.6649C36.075 28.6649 36.3784 28.5566 37.0067 28.4049C39.65 27.8633 43.3334 31.9366 35.2734 36.1833ZM26 28.1666C24.3967 24.5483 18.9367 21.3633 26 15.7949C34.8617 8.83992 30.3334 4.33325 30.3334 4.33325C32.1534 11.5049 23.8334 13.6716 20.93 18.1349C18.915 21.1899 21.9484 24.4616 26 28.1666Z" fill="#7275DA"/>
<path d="M35.555 46.1933C29.009 47.314 22.329 47.4163 15.7517 46.4966C15.7517 46.4966 16.7484 47.3199 21.905 47.6449C29.7267 48.1433 41.73 47.3849 42.0334 43.6799C42.0334 43.6799 41.47 45.0666 35.555 46.1933Z" fill="#7275DA"/>
</svg>
