<svg width="55" height="55" viewBox="0 0 55 55" fill="none" xmlns="http://www.w3.org/2000/svg">
<path d="M41.25 46.9791H25.1304C24.9348 48.2554 24.3764 49.4487 23.5217 50.4166H41.25C42.4656 50.4166 43.6314 49.9337 44.4909 49.0742C45.3505 48.2146 45.8334 47.0488 45.8334 45.8332V22.5224C45.8331 21.3069 45.35 20.1413 44.4904 19.282L31.1323 5.92617C31.0969 5.89323 31.0594 5.86261 31.02 5.8345C30.9917 5.81262 30.9642 5.78968 30.9375 5.76575C30.7798 5.61696 30.6122 5.47913 30.4356 5.35325C30.377 5.3154 30.3157 5.2817 30.2523 5.25242L30.1423 5.19742L30.0277 5.13096C29.904 5.05992 29.7779 4.98659 29.6473 4.93159C29.191 4.74931 28.708 4.6425 28.2173 4.61534C28.172 4.61238 28.1269 4.60703 28.0821 4.59929C28.0199 4.58969 27.9571 4.58433 27.8942 4.58325H13.75C12.5344 4.58325 11.3687 5.06614 10.5091 5.92568C9.64957 6.78522 9.16669 7.95101 9.16669 9.16658V32.1245C9.79087 32.0337 10.4277 32.0918 11.0251 32.2942C11.6225 32.4965 12.1636 32.8373 12.6042 33.2887V9.16658C12.6042 8.86269 12.7249 8.57124 12.9398 8.35636C13.1547 8.14147 13.4461 8.02075 13.75 8.02075H27.5V18.3333C27.5 19.5488 27.9829 20.7146 28.8424 21.5742C29.702 22.4337 30.8678 22.9166 32.0834 22.9166H42.3959V45.8332C42.3959 46.1371 42.2751 46.4286 42.0602 46.6435C41.8454 46.8584 41.5539 46.9791 41.25 46.9791ZM39.8246 19.4791H32.0834C31.7795 19.4791 31.488 19.3584 31.2731 19.1435C31.0582 18.9286 30.9375 18.6371 30.9375 18.3333V10.5897L39.8246 19.4791ZM9.7396 34.3749C10.1954 34.3749 10.6326 34.556 10.9549 34.8783C11.2773 35.2007 11.4584 35.6378 11.4584 36.0937V45.8332C11.4584 47.0488 10.9755 48.2146 10.1159 49.0742C9.25639 49.9337 8.0906 50.4166 6.87502 50.4166C5.65944 50.4166 4.49366 49.9337 3.63411 49.0742C2.77457 48.2146 2.29169 47.0488 2.29169 45.8332V45.2603C2.29169 44.8045 2.47277 44.3673 2.7951 44.045C3.11743 43.7227 3.5546 43.5416 4.01044 43.5416C4.46628 43.5416 4.90345 43.7227 5.22578 44.045C5.54811 44.3673 5.72919 44.8045 5.72919 45.2603V45.8332C5.72919 46.1371 5.84991 46.4286 6.06479 46.6435C6.27968 46.8584 6.57113 46.9791 6.87502 46.9791C7.17891 46.9791 7.47036 46.8584 7.68525 46.6435C7.90013 46.4286 8.02085 46.1371 8.02085 45.8332V36.0937C8.02085 35.6378 8.20194 35.2007 8.52426 34.8783C8.84659 34.556 9.28376 34.3749 9.7396 34.3749ZM18.2188 34.3749C17.0336 34.3749 15.8969 34.8457 15.0589 35.6838C14.2208 36.5218 13.75 37.6585 13.75 38.8437V39.3799C13.75 40.787 14.4902 42.0933 15.6979 42.8174L19.2019 44.9212C19.2864 44.9721 19.3564 45.044 19.405 45.1299C19.4536 45.2159 19.4791 45.3129 19.4792 45.4116V45.9478C19.4792 46.2213 19.3705 46.4836 19.1771 46.677C18.9837 46.8704 18.7214 46.9791 18.4479 46.9791H18.2188C17.9453 46.9791 17.683 46.8704 17.4896 46.677C17.2962 46.4836 17.1875 46.2213 17.1875 45.9478V45.8332C17.1875 45.3774 17.0064 44.9402 16.6841 44.6179C16.3618 44.2956 15.9246 44.1145 15.4688 44.1145C15.0129 44.1145 14.5758 44.2956 14.2534 44.6179C13.9311 44.9402 13.75 45.3774 13.75 45.8332V45.9478C13.75 47.133 14.2208 48.2697 15.0589 49.1077C15.8969 49.9458 17.0336 50.4166 18.2188 50.4166H18.4479C19.6331 50.4166 20.7698 49.9458 21.6078 49.1077C22.4459 48.2697 22.9167 47.133 22.9167 45.9478V45.4116C22.9164 44.7192 22.7368 44.0387 22.3954 43.4363C22.0541 42.8339 21.5626 42.3302 20.9688 41.9741L17.4648 39.8703C17.3803 39.8194 17.3103 39.7475 17.2617 39.6616C17.2131 39.5756 17.1876 39.4786 17.1875 39.3799V38.8437C17.1875 38.5702 17.2962 38.3079 17.4896 38.1145C17.683 37.9211 17.9453 37.8124 18.2188 37.8124H18.4479C18.7214 37.8124 18.9837 37.9211 19.1771 38.1145C19.3705 38.3079 19.4792 38.5702 19.4792 38.8437V38.9582C19.4792 39.4141 19.6603 39.8513 19.9826 40.1736C20.3049 40.4959 20.7421 40.677 21.1979 40.677C21.6538 40.677 22.0909 40.4959 22.4133 40.1736C22.7356 39.8513 22.9167 39.4141 22.9167 38.9582V38.8437C22.9167 37.6585 22.4459 36.5218 21.6078 35.6838C20.7698 34.8457 19.6331 34.3749 18.4479 34.3749H18.2188Z" fill="#7275DA"/>
</svg>
