<svg width="24" height="24" viewBox="0 0 24 24" fill="none" xmlns="http://www.w3.org/2000/svg">
<path d="M0.359536 12.8157L12.6787 23.8685C12.7732 23.9528 12.8939 24 13.021 24H15.9068C16.1481 24 16.259 23.6899 16.0764 23.5281L4.65721 13.2809L23.7391 13.2809C23.8826 13.2809 24 13.1596 24 13.0112V10.9888C24 10.8404 23.8826 10.7191 23.7391 10.7191L4.66047 10.7191L16.0796 0.471911C16.2622 0.306742 16.1514 4.17233e-07 15.9101 4.17233e-07H12.9265C12.8645 4.17233e-07 12.8026 0.0235959 12.7569 0.0674161L0.359536 11.1843C0.246653 11.2857 0.156144 11.4111 0.09412 11.5518C0.0320961 11.6925 1.13426e-06 11.8454 1.13426e-06 12C1.13426e-06 12.1546 0.0320961 12.3075 0.09412 12.4482C0.156144 12.5889 0.246653 12.7143 0.359536 12.8157V12.8157Z" fill="white"/>
</svg>
