<svg width="24" height="24" viewBox="0 0 24 24" fill="none" xmlns="http://www.w3.org/2000/svg">
<path d="M22.4955 24C9.69901 24.018 -0.0134859 14.19 1.4056e-05 1.5045C1.4056e-05 0.674999 0.672014 0 1.50001 0H5.46001C6.20251 0 6.83401 0.546 6.94351 1.281C7.20466 3.04358 7.71739 4.75957 8.46601 6.37649L8.62051 6.70949C8.72429 6.93358 8.74662 7.18686 8.68363 7.42564C8.62065 7.66443 8.47631 7.87374 8.27551 8.01749C7.04851 8.89349 6.58051 10.656 7.53601 12.03C8.73899 13.76 10.2404 15.2619 11.97 16.4655C13.3455 17.4195 15.108 16.9515 15.9825 15.726C16.1261 15.5246 16.3356 15.3797 16.5747 15.3164C16.8139 15.2531 17.0676 15.2755 17.292 15.3795L17.6235 15.5325C19.2405 16.2825 20.9565 16.7955 22.719 17.0565C23.454 17.166 24 17.7975 24 18.5415V22.5C24 22.6971 23.9612 22.8923 23.8857 23.0743C23.8102 23.2564 23.6996 23.4219 23.5601 23.5612C23.4207 23.7005 23.2551 23.8109 23.073 23.8862C22.8908 23.9615 22.6956 24.0002 22.4985 24H22.4955Z" fill="white"/>
</svg>
