<svg width="24" height="24" viewBox="0 0 24 24" fill="none" xmlns="http://www.w3.org/2000/svg">
<path d="M23.6405 11.1843L11.3213 0.13146C11.2268 0.0471908 11.1061 0 10.979 0H8.09319C7.8519 0 7.74103 0.310112 7.92363 0.47191L19.3428 10.7191H0.26086C0.117387 10.7191 0 10.8404 0 10.9888V13.0112C0 13.1596 0.117387 13.2809 0.26086 13.2809H19.3395L7.92037 23.5281C7.73777 23.6933 7.84863 24 8.08993 24H11.0735C11.1355 24 11.1974 23.9764 11.2431 23.9326L23.6405 12.8157C23.7533 12.7143 23.8439 12.5889 23.9059 12.4482C23.9679 12.3075 24 12.1546 24 12C24 11.8454 23.9679 11.6925 23.9059 11.5518C23.8439 11.4111 23.7533 11.2857 23.6405 11.1843V11.1843Z" fill="white"/>
</svg>
