<svg width="52" height="52" viewBox="0 0 52 52" fill="none" xmlns="http://www.w3.org/2000/svg">
<path d="M35.75 22.6484H16.25C16.0266 22.6484 15.8438 22.8312 15.8438 23.0547V43.4688C15.8438 43.6922 16.0266 43.875 16.25 43.875H35.75C35.9734 43.875 36.1562 43.6922 36.1562 43.4688V23.0547C36.1562 22.8312 35.9734 22.6484 35.75 22.6484ZM19.0938 25.8984H32.9062V31.8398H19.0938V25.8984ZM32.9062 40.625H19.0938V34.6836H32.9062V40.625Z" fill="#7275DA"/>
<path d="M21.5312 37.9844C21.5312 38.4154 21.7025 38.8287 22.0072 39.1334C22.3119 39.4382 22.7253 39.6094 23.1562 39.6094C23.5872 39.6094 24.0006 39.4382 24.3053 39.1334C24.61 38.8287 24.7812 38.4154 24.7812 37.9844C24.7812 37.5534 24.61 37.1401 24.3053 36.8353C24.0006 36.5306 23.5872 36.3594 23.1562 36.3594C22.7253 36.3594 22.3119 36.5306 22.0072 36.8353C21.7025 37.1401 21.5312 37.5534 21.5312 37.9844ZM21.5312 28.9453C21.5312 29.3763 21.7025 29.7896 22.0072 30.0944C22.3119 30.3991 22.7253 30.5703 23.1562 30.5703C23.5872 30.5703 24.0006 30.3991 24.3053 30.0944C24.61 29.7896 24.7812 29.3763 24.7812 28.9453C24.7812 28.5143 24.61 28.101 24.3053 27.7963C24.0006 27.4915 23.5872 27.3203 23.1562 27.3203C22.7253 27.3203 22.3119 27.4915 22.0072 27.7963C21.7025 28.101 21.5312 28.5143 21.5312 28.9453Z" fill="#7275DA"/>
<path d="M41.2039 18.7332C38.8782 12.5937 32.952 8.22656 26.0102 8.22656C19.0684 8.22656 13.1422 12.5887 10.8164 18.7281C6.44417 19.8809 3.22464 23.8773 3.25003 28.6203C3.2805 33.9219 7.39378 38.2332 12.5735 38.6953C12.8121 38.7156 13.0153 38.5277 13.0153 38.2891V35.2219C13.0153 35.0187 12.8629 34.8461 12.6598 34.8207C11.2887 34.648 9.99378 34.0488 8.99846 33.0688C7.77971 31.8754 7.1094 30.2707 7.1094 28.5695C7.1094 27.1477 7.57151 25.807 8.43987 24.6898C9.28792 23.6031 10.4813 22.816 11.7965 22.4707L13.7211 21.9629L14.427 20.0992C14.8637 18.9414 15.4731 17.8547 16.2399 16.8746C16.9965 15.8996 17.8953 15.0465 18.9008 14.3355C20.9879 12.868 23.4457 12.091 26.0102 12.091C28.5746 12.091 31.0324 12.868 33.1196 14.3406C34.1301 15.0516 35.0239 15.9047 35.7805 16.8797C36.5473 17.8598 37.1567 18.9465 37.5934 20.1043L38.2942 21.9629L40.2137 22.4707C42.966 23.202 44.8907 25.7055 44.8907 28.5645C44.8907 30.2707 44.2203 31.8703 43.0016 33.0637C42.0114 34.0387 40.7215 34.643 39.3504 34.8156C39.1473 34.841 39 35.0137 39 35.2168V38.2891C39 38.5277 39.2082 38.7156 39.4469 38.6953C44.6114 38.2281 48.7145 33.9219 48.75 28.6305C48.7805 23.8875 45.566 19.891 41.2039 18.7332Z" fill="#7275DA"/>
</svg>
