<svg width="52" height="42" viewBox="0 0 52 42" fill="none" xmlns="http://www.w3.org/2000/svg">
<path d="M10.4 7.875H41.6V28.875H46.8V6.5625C46.8 4.39934 45.045 2.625 42.9 2.625H9.1C6.95744 2.625 5.2 4.39934 5.2 6.5625V28.875H10.4V7.875ZM50.7 31.5H1.3C0.589062 31.5 0 32.0988 0 32.8125V34.125C0 37.0166 2.33594 39.375 5.2 39.375H46.8C49.6641 39.375 52 37.0166 52 34.125V32.8125C52 32.0988 51.415 31.5 50.7 31.5ZM29.7294 23.4773C30.0462 23.7973 30.4606 23.9531 30.875 23.9531C31.2894 23.9531 31.7062 23.7941 32.0239 23.4737L35.9239 19.5362C36.5586 18.8953 36.5586 17.8546 35.9239 17.2139L32.0239 13.2764C31.3892 12.6355 30.3607 12.6355 29.7261 13.2764C29.0914 13.9173 29.0914 14.9581 29.7261 15.5987L32.4772 18.3747L29.7261 21.1506C29.0875 21.7957 29.0875 22.8375 29.7294 23.4773ZM22.2706 13.2809C21.6359 12.6399 20.6074 12.6399 19.9729 13.2809L16.0729 17.2184C15.4382 17.8593 15.4382 18.9 16.0729 19.5407L19.9729 23.4782C20.2962 23.7973 20.7106 23.9531 21.125 23.9531C21.5394 23.9531 21.9562 23.7941 22.2739 23.4737C22.9086 22.8328 22.9086 21.7921 22.2739 21.1514L19.5244 18.375L22.2755 15.5991C22.8394 14.9625 22.8394 13.9207 22.2706 13.2809Z" fill="#7275DA"/>
</svg>
