<svg width="248" height="167" viewBox="0 0 248 167" fill="none" xmlns="http://www.w3.org/2000/svg">
<path fill-rule="evenodd" clip-rule="evenodd" d="M239.76 96.4867C238.992 95.7547 237.726 95.414 236.932 95.7257C233.382 97.1192 229.926 98.558 226.498 99.9845C209.249 107.164 192.75 114.032 168.989 113.237C150.038 112.604 125.195 106.928 108.739 94.583C114.05 91.5423 116.854 86.8159 117.475 80.6812C117.769 77.7842 117.77 73.7418 116.383 69.6917C115.001 65.656 112.126 61.3165 106.366 58.2307C101.394 55.5673 97.1626 56.4215 94.3996 57.921C91.588 59.4468 89.6371 61.9289 88.9264 63.7576C85.6101 72.2915 92.6707 84.4332 102.943 93.3686C100.614 94.2875 97.8828 94.9327 94.726 95.293C80.6085 96.9043 65.2265 94.0403 49.5489 89.1018C34.5272 84.3699 19.386 77.7848 4.94339 71.5036C4.27814 71.2143 3.61435 70.9256 2.95214 70.6377C1.88351 70.1733 0.789605 70.3204 0.508815 70.9665C0.228025 71.6125 0.866682 72.5127 1.9353 72.9772C2.63009 73.2792 3.32762 73.5826 4.02772 73.8871C18.3861 80.1323 33.8331 86.851 49.2108 91.6951C65.3744 96.7866 81.6265 99.8628 96.6636 98.1465C100.285 97.7332 103.403 96.9744 106.043 95.8927C106.151 95.9753 106.26 96.0575 106.369 96.1394C124.361 109.639 150.789 115.465 170.256 116.116C194.996 116.943 212.265 109.741 229.513 102.547C232.896 101.136 236.277 99.7261 239.714 98.3767C240.508 98.0649 240.529 97.2188 239.76 96.4867ZM105.64 92.0804C96.1712 83.8566 89.922 72.8392 92.8193 65.3835C93.4015 63.8852 95.0944 61.7272 97.4638 60.4414C99.8818 59.1291 102.369 58.9999 104.838 60.323C108.909 62.5038 111.261 65.7229 112.504 69.3498C113.741 72.9625 113.765 76.687 113.483 79.473C112.913 85.0997 110.396 89.3533 105.64 92.0804Z" fill="#7275DA"/>
<path fill-rule="evenodd" clip-rule="evenodd" d="M241.629 96.9466C241.449 97.2278 241.271 97.5034 241.201 97.6529C240.612 98.9064 240.065 100.187 239.524 101.453C239.299 101.981 239.075 102.506 238.849 103.025C238.568 103.671 239.207 104.571 240.275 105.036C241.344 105.5 242.438 105.353 242.719 104.707C242.953 104.168 243.182 103.632 243.41 103.099C243.946 101.844 244.476 100.603 245.052 99.3761C245.052 99.3769 245.052 99.3767 245.053 99.3754C245.055 99.3709 245.065 99.3527 245.087 99.3153C245.113 99.2719 245.147 99.2165 245.191 99.1478C245.24 99.0703 245.293 98.987 245.353 98.8938C245.403 98.8156 245.458 98.7305 245.518 98.6358C245.772 98.237 246.087 97.7306 246.36 97.2169C246.623 96.7192 246.883 96.1488 246.981 95.6305C247.027 95.3847 247.062 95.0374 246.945 94.6531C246.827 94.2657 246.415 93.4753 245.22 92.9562C243.805 92.341 242.394 92.0255 241.156 91.8379C240.084 91.6755 239.021 91.5935 238.13 91.5247C238.003 91.515 237.88 91.5055 237.761 91.496C236.644 91.4077 235.51 91.2291 234.29 91.0135C233.976 90.9581 233.651 90.8991 233.318 90.8386C232.398 90.6716 231.418 90.4937 230.453 90.3503C229.363 90.1882 228.622 90.6883 228.8 91.4673C228.977 92.2463 230.005 93.0092 231.096 93.1712C231.958 93.2994 232.794 93.4511 233.68 93.6121C234.034 93.6762 234.395 93.7418 234.77 93.808C236.043 94.0331 237.399 94.2511 238.79 94.3611C238.922 94.3715 239.052 94.3817 239.181 94.3917C240.091 94.4624 240.935 94.528 241.782 94.6563C242.151 94.7122 242.496 94.7769 242.82 94.852C242.745 95.0268 242.651 95.2202 242.541 95.4275C242.3 95.8836 242.013 96.3467 241.763 96.7382C241.719 96.8068 241.674 96.8769 241.629 96.9466Z" fill="#7275DA"/>
</svg>
