<svg width="356" height="48" viewBox="0 0 356 48" fill="none" xmlns="http://www.w3.org/2000/svg">
<g clip-path="url(#clip0_45_877)">
<path d="M47.2005 9.38782H58.9914V9.56787e-06H47.2005C42.3715 0.00614193 37.6735 1.58085 33.8063 4.48962C29.9391 7.3984 27.1096 11.4856 25.739 16.1426C25.8126 14.0376 26.0838 11.9444 26.5491 9.8907C26.7794 8.89887 26.7524 7.86416 26.4706 6.88587C26.1888 5.90758 25.6617 5.01856 24.9399 4.30413C21.1243 1.50304 16.5215 -0.00438191 11.7975 9.56787e-06H0.00665283V9.38782H11.7975C15.2532 9.38782 18.5675 10.7685 21.0111 13.226C23.4546 15.6836 24.8274 19.0168 24.8274 22.4923C24.8274 25.9679 23.4546 29.301 21.0111 31.7586C18.5675 34.2162 15.2532 35.5968 11.7975 35.5968H0.00665283V44.9934H11.7975C16.6266 44.9873 21.3245 43.4126 25.1917 40.5038C29.0589 37.595 31.8884 33.5078 33.259 28.8508C33.1839 30.9557 32.9127 33.0488 32.4489 35.1027C32.2173 36.0945 32.2437 37.1296 32.5256 38.1081C32.8075 39.0866 33.3353 39.9756 34.0581 40.6893C37.8737 43.4904 42.4766 44.9978 47.2005 44.9934H58.9914V35.6034H47.2005C43.7448 35.6034 40.4306 34.2228 37.987 31.7652C35.5434 29.3076 34.1706 25.9744 34.1706 22.4989C34.1706 19.0234 35.5434 15.6902 37.987 13.2326C40.4306 10.7751 43.7448 9.3944 47.2005 9.3944V9.38782Z" fill="#7275DA"/>
</g>
<path d="M86.4646 37V11.1H98.2306C101.043 11.1 103.522 11.6427 105.668 12.728C107.814 13.7887 109.491 15.281 110.7 17.205C111.908 19.129 112.513 21.4107 112.513 24.05C112.513 26.6647 111.908 28.9463 110.7 30.895C109.491 32.819 107.814 34.3237 105.668 35.409C103.522 36.4697 101.043 37 98.2306 37H86.4646ZM92.4586 32.079H97.9346C99.6612 32.079 101.154 31.7583 102.412 31.117C103.694 30.451 104.681 29.5137 105.372 28.305C106.087 27.0963 106.445 25.678 106.445 24.05C106.445 22.3973 106.087 20.979 105.372 19.795C104.681 18.5863 103.694 17.6613 102.412 17.02C101.154 16.354 99.6612 16.021 97.9346 16.021H92.4586V32.079ZM126.505 37.296C124.236 37.296 122.238 36.852 120.511 35.964C118.809 35.076 117.489 33.8673 116.552 32.338C115.615 30.784 115.146 29.0203 115.146 27.047C115.146 25.049 115.602 23.2853 116.515 21.756C117.452 20.202 118.723 18.9933 120.326 18.13C121.929 17.242 123.742 16.798 125.765 16.798C127.714 16.798 129.465 17.2173 131.019 18.056C132.598 18.87 133.843 20.054 134.756 21.608C135.669 23.1373 136.125 24.975 136.125 27.121C136.125 27.343 136.113 27.602 136.088 27.898C136.063 28.1693 136.039 28.4283 136.014 28.675H119.845V25.308H132.98L130.76 26.307C130.76 25.271 130.55 24.3707 130.131 23.606C129.712 22.8413 129.132 22.2493 128.392 21.83C127.652 21.386 126.789 21.164 125.802 21.164C124.815 21.164 123.94 21.386 123.175 21.83C122.435 22.2493 121.855 22.8537 121.436 23.643C121.017 24.4077 120.807 25.3203 120.807 26.381V27.269C120.807 28.3543 121.041 29.3163 121.51 30.155C122.003 30.969 122.682 31.598 123.545 32.042C124.433 32.4613 125.469 32.671 126.653 32.671C127.714 32.671 128.639 32.5107 129.428 32.19C130.242 31.8693 130.982 31.3883 131.648 30.747L134.719 34.077C133.806 35.113 132.659 35.9147 131.278 36.482C129.897 37.0247 128.306 37.296 126.505 37.296ZM146.665 37.296C144.963 37.296 143.322 37.0987 141.744 36.704C140.19 36.2847 138.956 35.7667 138.044 35.15L139.968 31.006C140.88 31.5733 141.953 32.042 143.187 32.412C144.445 32.7573 145.678 32.93 146.887 32.93C148.219 32.93 149.156 32.7697 149.699 32.449C150.266 32.1283 150.55 31.6843 150.55 31.117C150.55 30.6483 150.328 30.303 149.884 30.081C149.464 29.8343 148.897 29.6493 148.182 29.526C147.466 29.4027 146.677 29.2793 145.814 29.156C144.975 29.0327 144.124 28.8723 143.261 28.675C142.397 28.453 141.608 28.1323 140.893 27.713C140.177 27.2937 139.598 26.7263 139.154 26.011C138.734 25.2957 138.525 24.3707 138.525 23.236C138.525 21.978 138.882 20.868 139.598 19.906C140.338 18.944 141.398 18.1917 142.78 17.649C144.161 17.0817 145.814 16.798 147.738 16.798C149.094 16.798 150.476 16.946 151.882 17.242C153.288 17.538 154.459 17.9697 155.397 18.537L153.473 22.644C152.511 22.0767 151.536 21.6943 150.55 21.497C149.588 21.275 148.65 21.164 147.738 21.164C146.455 21.164 145.518 21.3367 144.926 21.682C144.334 22.0273 144.038 22.4713 144.038 23.014C144.038 23.5073 144.247 23.8773 144.667 24.124C145.111 24.3707 145.69 24.568 146.406 24.716C147.121 24.864 147.898 24.9997 148.737 25.123C149.6 25.2217 150.463 25.382 151.327 25.604C152.19 25.826 152.967 26.1467 153.658 26.566C154.373 26.9607 154.953 27.5157 155.397 28.231C155.841 28.9217 156.063 29.8343 156.063 30.969C156.063 32.2023 155.693 33.3 154.953 34.262C154.213 35.1993 153.14 35.9393 151.734 36.482C150.352 37.0247 148.663 37.296 146.665 37.296ZM159.624 37V17.094H165.396V37H159.624ZM162.51 14.319C161.449 14.319 160.586 14.0107 159.92 13.394C159.254 12.7773 158.921 12.0127 158.921 11.1C158.921 10.1873 159.254 9.42267 159.92 8.806C160.586 8.18933 161.449 7.881 162.51 7.881C163.571 7.881 164.434 8.177 165.1 8.769C165.766 9.33633 166.099 10.0763 166.099 10.989C166.099 11.951 165.766 12.7527 165.1 13.394C164.459 14.0107 163.595 14.319 162.51 14.319ZM180.114 44.474C178.239 44.474 176.426 44.2397 174.675 43.771C172.948 43.327 171.505 42.6487 170.346 41.736L172.64 37.592C173.479 38.2827 174.539 38.8253 175.822 39.22C177.129 39.6393 178.412 39.849 179.67 39.849C181.717 39.849 183.197 39.3927 184.11 38.48C185.047 37.5673 185.516 36.2107 185.516 34.41V31.413L185.886 26.418L185.812 21.386V17.094H191.288V33.67C191.288 37.37 190.326 40.0957 188.402 41.847C186.478 43.5983 183.715 44.474 180.114 44.474ZM179.226 36.038C177.376 36.038 175.699 35.6433 174.194 34.854C172.714 34.04 171.518 32.9177 170.605 31.487C169.717 30.0317 169.273 28.342 169.273 26.418C169.273 24.4693 169.717 22.7797 170.605 21.349C171.518 19.8937 172.714 18.7713 174.194 17.982C175.699 17.1927 177.376 16.798 179.226 16.798C180.903 16.798 182.383 17.1433 183.666 17.834C184.949 18.5 185.948 19.5483 186.663 20.979C187.378 22.385 187.736 24.198 187.736 26.418C187.736 28.6133 187.378 30.4263 186.663 31.857C185.948 33.263 184.949 34.3113 183.666 35.002C182.383 35.6927 180.903 36.038 179.226 36.038ZM180.373 31.302C181.384 31.302 182.285 31.1047 183.074 30.71C183.863 30.2907 184.48 29.711 184.924 28.971C185.368 28.231 185.59 27.38 185.59 26.418C185.59 25.4313 185.368 24.5803 184.924 23.865C184.48 23.125 183.863 22.5577 183.074 22.163C182.285 21.7437 181.384 21.534 180.373 21.534C179.362 21.534 178.461 21.7437 177.672 22.163C176.883 22.5577 176.254 23.125 175.785 23.865C175.341 24.5803 175.119 25.4313 175.119 26.418C175.119 27.38 175.341 28.231 175.785 28.971C176.254 29.711 176.883 30.2907 177.672 30.71C178.461 31.1047 179.362 31.302 180.373 31.302ZM208.759 16.798C210.338 16.798 211.744 17.1187 212.977 17.76C214.235 18.3767 215.222 19.3387 215.937 20.646C216.652 21.9287 217.01 23.5813 217.01 25.604V37H211.238V26.492C211.238 24.8887 210.88 23.7047 210.165 22.94C209.474 22.1753 208.488 21.793 207.205 21.793C206.292 21.793 205.466 21.9903 204.726 22.385C204.011 22.755 203.443 23.3347 203.024 24.124C202.629 24.9133 202.432 25.9247 202.432 27.158V37H196.66V17.094H202.173V22.607L201.137 20.942C201.852 19.61 202.876 18.5863 204.208 17.871C205.54 17.1557 207.057 16.798 208.759 16.798ZM235.044 37.444C233.046 37.444 231.184 37.1233 229.457 36.482C227.755 35.816 226.275 34.8787 225.017 33.67C223.759 32.4613 222.772 31.043 222.057 29.415C221.366 27.787 221.021 25.9987 221.021 24.05C221.021 22.1013 221.366 20.313 222.057 18.685C222.772 17.057 223.759 15.6387 225.017 14.43C226.3 13.2213 227.792 12.2963 229.494 11.655C231.196 10.989 233.058 10.656 235.081 10.656C237.326 10.656 239.348 11.0507 241.149 11.84C242.974 12.6047 244.504 13.7393 245.737 15.244L241.889 18.796C241.001 17.7847 240.014 17.0323 238.929 16.539C237.844 16.021 236.66 15.762 235.377 15.762C234.168 15.762 233.058 15.9593 232.047 16.354C231.036 16.7487 230.16 17.316 229.42 18.056C228.68 18.796 228.1 19.6717 227.681 20.683C227.286 21.6943 227.089 22.8167 227.089 24.05C227.089 25.2833 227.286 26.4057 227.681 27.417C228.1 28.4283 228.68 29.304 229.42 30.044C230.16 30.784 231.036 31.3513 232.047 31.746C233.058 32.1407 234.168 32.338 235.377 32.338C236.66 32.338 237.844 32.0913 238.929 31.598C240.014 31.08 241.001 30.303 241.889 29.267L245.737 32.819C244.504 34.3237 242.974 35.4707 241.149 36.26C239.348 37.0493 237.313 37.444 235.044 37.444ZM258.163 37.296C256.042 37.296 254.155 36.852 252.502 35.964C250.874 35.076 249.579 33.8673 248.617 32.338C247.68 30.784 247.211 29.0203 247.211 27.047C247.211 25.049 247.68 23.2853 248.617 21.756C249.579 20.202 250.874 18.9933 252.502 18.13C254.155 17.242 256.042 16.798 258.163 16.798C260.26 16.798 262.135 17.242 263.787 18.13C265.44 18.9933 266.735 20.1897 267.672 21.719C268.61 23.2483 269.078 25.0243 269.078 27.047C269.078 29.0203 268.61 30.784 267.672 32.338C266.735 33.8673 265.44 35.076 263.787 35.964C262.135 36.852 260.26 37.296 258.163 37.296ZM258.163 32.56C259.125 32.56 259.989 32.338 260.753 31.894C261.518 31.45 262.122 30.821 262.566 30.007C263.01 29.1683 263.232 28.1817 263.232 27.047C263.232 25.8877 263.01 24.901 262.566 24.087C262.122 23.273 261.518 22.644 260.753 22.2C259.989 21.756 259.125 21.534 258.163 21.534C257.201 21.534 256.338 21.756 255.573 22.2C254.809 22.644 254.192 23.273 253.723 24.087C253.279 24.901 253.057 25.8877 253.057 27.047C253.057 28.1817 253.279 29.1683 253.723 30.007C254.192 30.821 254.809 31.45 255.573 31.894C256.338 32.338 257.201 32.56 258.163 32.56ZM281.335 37.296C279.683 37.296 278.203 36.9753 276.895 36.334C275.613 35.6927 274.614 34.7183 273.898 33.411C273.183 32.079 272.825 30.3893 272.825 28.342V17.094H278.597V27.491C278.597 29.1437 278.943 30.3647 279.633 31.154C280.349 31.9187 281.348 32.301 282.63 32.301C283.518 32.301 284.308 32.116 284.998 31.746C285.689 31.3513 286.232 30.7593 286.626 29.97C287.021 29.156 287.218 28.1447 287.218 26.936V17.094H292.99V37H287.514V31.524L288.513 33.115C287.847 34.4963 286.861 35.5447 285.553 36.26C284.271 36.9507 282.865 37.296 281.335 37.296ZM298.338 37V17.094H303.851V22.718L303.074 21.09C303.666 19.684 304.615 18.6233 305.923 17.908C307.23 17.168 308.821 16.798 310.696 16.798V22.126C310.449 22.1013 310.227 22.089 310.03 22.089C309.832 22.0643 309.623 22.052 309.401 22.052C307.822 22.052 306.539 22.5083 305.553 23.421C304.591 24.309 304.11 25.7027 304.11 27.602V37H298.338ZM320.969 37.296C319.267 37.296 317.627 37.0987 316.048 36.704C314.494 36.2847 313.261 35.7667 312.348 35.15L314.272 31.006C315.185 31.5733 316.258 32.042 317.491 32.412C318.749 32.7573 319.983 32.93 321.191 32.93C322.523 32.93 323.461 32.7697 324.003 32.449C324.571 32.1283 324.854 31.6843 324.854 31.117C324.854 30.6483 324.632 30.303 324.188 30.081C323.769 29.8343 323.202 29.6493 322.486 29.526C321.771 29.4027 320.982 29.2793 320.118 29.156C319.28 29.0327 318.429 28.8723 317.565 28.675C316.702 28.453 315.913 28.1323 315.197 27.713C314.482 27.2937 313.902 26.7263 313.458 26.011C313.039 25.2957 312.829 24.3707 312.829 23.236C312.829 21.978 313.187 20.868 313.902 19.906C314.642 18.944 315.703 18.1917 317.084 17.649C318.466 17.0817 320.118 16.798 322.042 16.798C323.399 16.798 324.78 16.946 326.186 17.242C327.592 17.538 328.764 17.9697 329.701 18.537L327.777 22.644C326.815 22.0767 325.841 21.6943 324.854 21.497C323.892 21.275 322.955 21.164 322.042 21.164C320.76 21.164 319.822 21.3367 319.23 21.682C318.638 22.0273 318.342 22.4713 318.342 23.014C318.342 23.5073 318.552 23.8773 318.971 24.124C319.415 24.3707 319.995 24.568 320.71 24.716C321.426 24.864 322.203 24.9997 323.041 25.123C323.905 25.2217 324.768 25.382 325.631 25.604C326.495 25.826 327.272 26.1467 327.962 26.566C328.678 26.9607 329.257 27.5157 329.701 28.231C330.145 28.9217 330.367 29.8343 330.367 30.969C330.367 32.2023 329.997 33.3 329.257 34.262C328.517 35.1993 327.444 35.9393 326.038 36.482C324.657 37.0247 322.967 37.296 320.969 37.296ZM343.808 37.296C341.538 37.296 339.54 36.852 337.814 35.964C336.112 35.076 334.792 33.8673 333.855 32.338C332.917 30.784 332.449 29.0203 332.449 27.047C332.449 25.049 332.905 23.2853 333.818 21.756C334.755 20.202 336.025 18.9933 337.629 18.13C339.232 17.242 341.045 16.798 343.068 16.798C345.016 16.798 346.768 17.2173 348.322 18.056C349.9 18.87 351.146 20.054 352.059 21.608C352.971 23.1373 353.428 24.975 353.428 27.121C353.428 27.343 353.415 27.602 353.391 27.898C353.366 28.1693 353.341 28.4283 353.317 28.675H337.148V25.308H350.283L348.063 26.307C348.063 25.271 347.853 24.3707 347.434 23.606C347.014 22.8413 346.435 22.2493 345.695 21.83C344.955 21.386 344.091 21.164 343.105 21.164C342.118 21.164 341.242 21.386 340.478 21.83C339.738 22.2493 339.158 22.8537 338.739 23.643C338.319 24.4077 338.11 25.3203 338.11 26.381V27.269C338.11 28.3543 338.344 29.3163 338.813 30.155C339.306 30.969 339.984 31.598 340.848 32.042C341.736 32.4613 342.772 32.671 343.956 32.671C345.016 32.671 345.941 32.5107 346.731 32.19C347.545 31.8693 348.285 31.3883 348.951 30.747L352.022 34.077C351.109 35.113 349.962 35.9147 348.581 36.482C347.199 37.0247 345.608 37.296 343.808 37.296Z" fill="#7275DA"/>
<defs>
<clipPath id="clip0_45_877">
<rect width="59" height="45" fill="white"/>
</clipPath>
</defs>
</svg>
