<svg width="567" height="554" viewBox="0 0 567 554" fill="none" xmlns="http://www.w3.org/2000/svg">
<path opacity="0.64" d="M220.377 553.958C322.303 553.958 404.931 537.335 404.931 516.828C404.931 496.321 322.303 479.698 220.377 479.698C118.451 479.698 35.8237 496.321 35.8237 516.828C35.8237 537.335 118.451 553.958 220.377 553.958Z" fill="#6669D6"/>
<path d="M131.908 510.862C134.498 502.463 142.427 497.988 155.301 494.22C163.465 491.865 173.827 490.766 190.076 487.469C198.005 485.899 203.578 482.759 203.578 482.759V491.787C203.578 491.787 149.806 502.384 141.406 516.278C137.324 523.108 138.58 539.829 157.813 541.556C151.925 542.419 142.27 540.928 137.089 535.668C130.652 529.153 128.925 520.439 131.908 510.862Z" fill="#282323" stroke="black" stroke-width="4" stroke-miterlimit="10" stroke-linecap="round" stroke-linejoin="round"/>
<path d="M203.578 491.786C203.578 491.786 171.393 497.752 154.202 505.131C139.13 511.647 139.601 518.398 139.208 525.306C138.973 529.309 141.799 539.2 153.26 540.927C166.919 542.968 183.011 540.77 203.578 527.661C203.578 495.554 203.578 491.786 203.578 491.786Z" fill="#442C2A"/>
<path opacity="0.37" d="M139.208 525.306C139.522 519.733 139.287 514.238 147.137 508.9C146.823 510.862 146.744 512.746 146.666 514.709C146.43 518.712 156.086 513.531 167.547 515.18C179.479 516.985 186.544 530.644 203.578 521.46C203.578 523.422 203.578 525.463 203.578 527.583C183.011 540.692 166.919 542.812 153.26 540.849C141.799 539.201 138.973 529.231 139.208 525.306Z" fill="#442C2A"/>
<path d="M203.578 491.786C203.578 491.786 171.393 497.752 154.202 505.131C139.13 511.647 139.601 518.398 139.208 525.306C138.973 529.309 141.799 539.2 153.26 540.927C166.919 542.968 183.011 540.77 203.578 527.661C203.578 495.554 203.578 491.786 203.578 491.786Z" stroke="black" stroke-width="4" stroke-miterlimit="10" stroke-linecap="round" stroke-linejoin="round"/>
<path d="M173.748 510.234C171.158 511.647 171.786 525.384 178.066 527.268" stroke="black" stroke-width="4" stroke-miterlimit="10" stroke-linecap="round" stroke-linejoin="round"/>
<path d="M183.56 509.214C180.891 512.982 182.775 521.852 187.564 524.05" stroke="black" stroke-width="4" stroke-miterlimit="10" stroke-linecap="round" stroke-linejoin="round"/>
<path d="M192.588 506.073C189.919 509.841 191.803 518.712 196.591 520.91" stroke="black" stroke-width="4" stroke-miterlimit="10" stroke-linecap="round" stroke-linejoin="round"/>
<path d="M285.218 465.41C268.262 477.185 244.163 483.937 218.964 483.937C193.844 483.937 169.666 477.185 152.71 465.41C144.939 459.994 131.908 448.69 131.908 433.618C131.908 418.546 144.939 407.242 152.71 401.825C169.666 390.05 193.766 383.299 218.964 383.299C244.084 383.299 268.262 390.05 285.218 401.825C292.99 407.242 306.021 418.546 306.021 433.618C306.021 448.69 292.99 459.994 285.218 465.41Z" fill="#151E28"/>
<path d="M362.854 446.178C362.54 447.748 362.226 449.24 361.755 450.81C349.509 495.476 290.477 529.388 219.435 529.388C148.235 529.388 89.0463 495.319 77.0358 450.496C76.7218 449.24 76.4078 447.984 76.1723 446.728C75.8583 444.373 75.9368 442.018 76.4078 439.663C79.3123 426.475 95.3263 418.86 112.204 422.628C123.272 425.062 131.907 431.891 135.754 439.977C136.146 441.704 136.774 443.431 137.481 445.079C141.563 454.499 149.727 461.564 155.222 465.489C171.628 477.264 195.1 484.015 219.435 484.015C243.848 484.015 267.241 477.264 283.648 465.489C289.221 461.486 297.464 454.342 301.467 444.922C302.095 443.431 302.645 441.782 303.037 440.212C306.805 432.048 315.519 425.219 326.666 422.707C343.543 418.939 359.557 426.631 362.462 439.741C363.011 441.782 363.09 443.98 362.854 446.178Z" fill="#2A3749"/>
<path opacity="0.67" d="M362.462 439.584C362.384 439.192 362.305 438.877 362.148 438.485C361.913 439.741 361.599 441.076 361.206 442.332C349.117 486.998 290.007 520.91 219.043 520.91C147.843 520.91 88.6541 486.841 76.6436 442.017C76.4866 441.546 76.4081 441.075 76.2511 440.526C75.9371 442.567 75.8585 444.608 76.1725 446.57C76.408 447.826 76.7221 449.082 77.0361 450.338C89.0466 495.162 148.236 529.231 219.435 529.231C290.478 529.231 349.51 495.319 361.756 450.652C362.148 449.161 362.541 447.591 362.855 446.021C363.09 443.98 363.012 441.782 362.462 439.584Z" fill="#151E28"/>
<path d="M362.854 446.178C362.54 447.748 362.226 449.24 361.755 450.81C349.509 495.476 290.477 529.388 219.435 529.388C148.235 529.388 89.0463 495.319 77.0358 450.496C76.7218 449.24 76.4078 447.984 76.1723 446.728C75.8583 444.373 75.9368 442.018 76.4078 439.663C79.3123 426.475 95.3263 418.86 112.204 422.628C123.272 425.062 131.907 431.891 135.754 439.977C136.146 441.704 136.774 443.431 137.481 445.079C141.563 454.499 149.727 461.564 155.222 465.489C171.628 477.264 195.1 484.015 219.435 484.015C243.848 484.015 267.241 477.264 283.648 465.489C289.221 461.486 297.464 454.342 301.467 444.922C302.095 443.431 302.645 441.782 303.037 440.212C306.805 432.048 315.519 425.219 326.666 422.707C343.543 418.939 359.557 426.631 362.462 439.741C363.011 441.782 363.09 443.98 362.854 446.178Z" stroke="black" stroke-width="4" stroke-miterlimit="10" stroke-linecap="round" stroke-linejoin="round"/>
<path d="M220.377 459.994C259.439 459.994 291.105 449.239 291.105 435.973C291.105 422.706 259.439 411.952 220.377 411.952C181.315 411.952 149.648 422.706 149.648 435.973C149.648 449.239 181.315 459.994 220.377 459.994Z" fill="#C51141"/>
<path d="M220.377 459.994C259.439 459.994 291.105 449.239 291.105 435.973C291.105 422.706 259.439 411.952 220.377 411.952C181.315 411.952 149.648 422.706 149.648 435.973C149.648 449.239 181.315 459.994 220.377 459.994Z" stroke="black" stroke-width="4" stroke-miterlimit="10" stroke-linecap="round" stroke-linejoin="round"/>
<path d="M300.918 383.535H137.952C125.47 383.535 115.815 372.623 117.385 360.22L124.607 302.523C126.648 286.038 140.621 273.714 157.263 273.714H281.764C298.327 273.714 312.3 286.038 314.42 302.523L321.642 360.22C323.055 372.623 313.399 383.535 300.918 383.535Z" fill="#F1534D"/>
<path d="M300.918 383.535H137.952C125.47 383.535 115.815 372.623 117.385 360.22L124.607 302.523C126.648 286.038 140.621 273.714 157.263 273.714H281.764C298.327 273.714 312.3 286.038 314.42 302.523L321.642 360.22C323.055 372.623 313.399 383.535 300.918 383.535Z" stroke="black" stroke-width="4" stroke-miterlimit="10" stroke-linecap="round" stroke-linejoin="round"/>
<path d="M155.614 322.462L154.044 342.165" stroke="black" stroke-width="4" stroke-miterlimit="10" stroke-linecap="round" stroke-linejoin="round"/>
<path d="M284.433 322.462L286.003 342.165" stroke="black" stroke-width="4" stroke-miterlimit="10" stroke-linecap="round" stroke-linejoin="round"/>
<path d="M300.918 383.535H137.952C125.47 383.535 115.815 372.623 117.385 360.22L124.607 302.523C126.648 286.038 140.621 273.714 157.263 273.714H281.764C298.327 273.714 312.3 286.038 314.42 302.523L321.642 360.22C323.055 372.623 313.399 383.535 300.918 383.535Z" fill="#EF4371"/>
<g opacity="0.24">
<path opacity="0.24" d="M124.529 308.646C126.57 292.161 140.543 279.836 157.185 279.836H281.686C298.249 279.836 312.222 292.161 314.342 308.646L321.485 365.872C321.721 364.067 321.799 362.183 321.564 360.22L314.342 302.523C312.301 286.038 298.328 273.714 281.686 273.714H157.185C140.621 273.714 126.648 286.038 124.529 302.523L117.307 360.22C117.071 362.104 117.071 363.988 117.385 365.872L124.529 308.646Z" fill="#9B2121"/>
<path opacity="0.24" d="M164.406 279.836C164.406 279.836 174.062 281.563 174.847 286.901C175.475 291.219 175.396 294.045 177.045 295.772C178.693 297.499 182.54 301.031 190.311 301.031C185.994 296.714 185.915 281.564 184.738 281.564C183.639 281.564 180.813 274.028 180.813 274.028L177.045 272.3C177.123 272.3 163.229 274.027 164.406 279.836Z" fill="#9B2121"/>
<path opacity="0.24" d="M267.555 279.836C267.555 279.836 257.9 281.563 257.115 286.901C256.487 291.219 256.565 294.045 254.917 295.772C253.268 297.421 249.422 301.031 241.65 301.031C245.968 296.714 246.046 281.564 247.224 281.564C248.323 281.564 251.149 274.028 251.149 274.028L254.917 272.3C254.838 272.3 268.733 274.027 267.555 279.836Z" fill="#9B2121"/>
</g>
<path d="M300.918 383.535H137.952C125.47 383.535 115.815 372.623 117.385 360.22L124.607 302.523C126.648 286.038 140.621 273.714 157.263 273.714H281.764C298.327 273.714 312.3 286.038 314.42 302.523L321.642 360.22C323.055 372.623 313.399 383.535 300.918 383.535Z" stroke="black" stroke-width="4" stroke-miterlimit="10" stroke-linecap="round" stroke-linejoin="round"/>
<path d="M155.614 322.462L154.044 342.165" stroke="black" stroke-width="4" stroke-miterlimit="10" stroke-linecap="round" stroke-linejoin="round"/>
<path d="M284.433 322.462L286.003 342.165" stroke="black" stroke-width="4" stroke-miterlimit="10" stroke-linecap="round" stroke-linejoin="round"/>
<path d="M198.476 240.901L172.649 239.566L160.56 240.901C160.56 240.901 152.475 246.945 152.475 248.594C152.475 250.242 153.26 263.666 153.26 263.666C153.26 263.666 172.335 266.256 174.376 268.219C176.417 270.181 188.506 281.485 188.506 281.485L200.203 276.932L206.326 260.604L198.476 240.901Z" fill="#9B2121"/>
<path d="M193.923 230.931H164.093C152.082 230.931 142.27 240.665 142.27 252.754C142.27 264.765 152.004 274.577 164.093 274.577H168.018C174.376 274.577 179.479 279.68 179.479 286.038V287.216C179.479 294.83 185.68 301.032 193.295 301.032V286.902C193.452 286.902 193.609 287.059 193.609 287.216V286.038C193.609 271.908 182.148 260.447 168.018 260.447H164.093C159.854 260.447 156.4 256.993 156.4 252.754C156.4 248.515 159.854 245.061 164.093 245.061H193.923V230.931Z" fill="#EF4371"/>
<path d="M192.117 277.168C188.506 267.434 179.086 260.369 168.096 260.369H164.171C159.932 260.369 156.478 256.915 156.478 252.676C156.478 248.437 159.932 244.983 164.171 244.983H194.001V230.853H164.171C152.161 230.853 142.348 240.587 142.348 252.676C142.348 264.686 152.082 274.499 164.171 274.499H168.096C174.455 274.499 179.557 279.601 179.557 285.96V287.137C179.557 294.752 185.759 300.953 193.373 300.953" stroke="black" stroke-width="4" stroke-miterlimit="10" stroke-linecap="round" stroke-linejoin="round"/>
<path d="M232.623 240.901L258.449 239.566L270.538 240.901C270.538 240.901 278.624 246.945 278.624 248.594C278.624 250.242 277.839 263.666 277.839 263.666C277.839 263.666 258.763 266.256 256.722 268.219C254.681 270.26 242.592 281.485 242.592 281.485L230.896 276.932L224.773 260.604L232.623 240.901Z" fill="#9B2121"/>
<path d="M237.176 230.931H267.006C279.016 230.931 288.829 240.665 288.829 252.754C288.829 264.765 279.095 274.577 267.006 274.577H263.081C256.722 274.577 251.62 279.68 251.62 286.038V287.216C251.62 294.83 245.418 301.032 237.804 301.032V286.902C237.647 286.902 237.49 287.059 237.49 287.216V286.038C237.49 271.908 248.951 260.447 263.081 260.447H267.006C271.245 260.447 274.699 256.993 274.699 252.754C274.699 248.515 271.245 245.061 267.006 245.061H237.176V230.931Z" fill="#EC255A"/>
<path d="M239.06 277.168C242.671 267.434 252.091 260.369 263.081 260.369H267.006C271.245 260.369 274.699 256.915 274.699 252.676C274.699 248.437 271.245 244.983 267.006 244.983H237.176V230.853H267.006C279.016 230.853 288.829 240.587 288.829 252.676C288.829 264.686 279.095 274.499 267.006 274.499H263.081C256.722 274.499 251.62 279.601 251.62 285.96V287.137C251.62 294.752 245.418 300.953 237.804 300.953" stroke="black" stroke-width="4" stroke-miterlimit="10" stroke-linecap="round" stroke-linejoin="round"/>
<path d="M217.002 289.885C233.91 289.885 247.617 276.178 247.617 259.27C247.617 242.361 233.91 228.655 217.002 228.655C200.094 228.655 186.387 242.361 186.387 259.27C186.387 276.178 200.094 289.885 217.002 289.885Z" fill="#EF4371"/>
<path d="M187.721 250.242C196.199 255.659 206.247 258.877 217.002 258.877C227.756 258.877 237.804 255.737 246.282 250.242C242.436 237.682 230.818 228.576 217.002 228.576C203.264 228.655 191.568 237.761 187.721 250.242Z" fill="#F1534D"/>
<path d="M217.002 289.885C233.91 289.885 247.617 276.178 247.617 259.27C247.617 242.361 233.91 228.655 217.002 228.655C200.094 228.655 186.387 242.361 186.387 259.27C186.387 276.178 200.094 289.885 217.002 289.885Z" stroke="black" stroke-width="4" stroke-miterlimit="10" stroke-linecap="round" stroke-linejoin="round"/>
<path d="M217.001 277.011C207.032 277.011 198.946 268.925 198.946 258.956V245.454C198.946 242.942 200.987 240.901 203.499 240.901H230.582C233.094 240.901 235.135 242.942 235.135 245.454V258.956C235.056 268.925 226.971 277.011 217.001 277.011Z" fill="#FFC897"/>
<path d="M230.582 240.901H203.499C200.987 240.901 198.946 243.099 198.946 245.768V256.836C204.598 258.956 210.643 260.133 217.001 260.133C223.36 260.133 229.404 258.956 235.056 256.836V245.768C235.056 243.099 233.015 240.901 230.582 240.901Z" fill="#E5A973"/>
<path d="M217.001 277.011C207.032 277.011 198.946 268.925 198.946 258.956V245.454C198.946 242.942 200.987 240.901 203.499 240.901H230.582C233.094 240.901 235.135 242.942 235.135 245.454V258.956C235.056 268.925 226.971 277.011 217.001 277.011Z" stroke="black" stroke-width="4" stroke-miterlimit="10" stroke-linecap="round" stroke-linejoin="round"/>
<path d="M236.548 480.404H219.749V534.019H236.548V480.404Z" fill="#607691"/>
<path d="M236.548 480.404H219.749V534.019H236.548V480.404Z" stroke="black" stroke-width="4" stroke-miterlimit="10" stroke-linecap="round" stroke-linejoin="round"/>
<path d="M137.402 444.922C136.696 443.274 136.146 441.625 135.675 439.82C136.539 441.547 137.088 443.195 137.402 444.922Z" stroke="black" stroke-width="4" stroke-miterlimit="10" stroke-linecap="round" stroke-linejoin="round"/>
<path d="M301.546 444.765C301.86 443.116 302.409 441.546 303.116 440.055C302.723 441.703 302.174 443.273 301.546 444.765Z" stroke="black" stroke-width="4" stroke-miterlimit="10" stroke-linecap="round" stroke-linejoin="round"/>
<path d="M301.31 440.997H137.638C131.829 440.997 126.883 436.679 126.098 430.87L115.893 350.958C115.03 344.05 120.446 337.848 127.433 337.848H311.515C318.502 337.848 323.918 343.971 323.055 350.958L312.85 430.87C312.065 436.601 307.119 440.997 301.31 440.997Z" fill="#B5B5B5"/>
<path opacity="0.21" d="M312.772 425.847C312.065 431.656 307.12 435.973 301.232 435.973H137.638C131.829 435.973 126.884 431.656 126.099 425.847L116.051 347.111C115.815 348.367 115.737 349.623 115.894 350.957L126.099 430.87C126.805 436.679 131.751 440.997 137.638 440.997H301.311C307.12 440.997 312.065 436.679 312.85 430.87L323.055 350.957C323.212 349.623 323.134 348.367 322.898 347.111L312.772 425.847Z" fill="#7E7E7E"/>
<path opacity="0.21" d="M115.972 351.664C116.914 346.326 121.624 342.087 127.354 342.087H311.437C317.246 342.087 321.877 346.247 322.819 351.664L322.898 350.879C323.761 343.971 318.345 337.77 311.358 337.77H127.433C120.446 337.77 115.03 343.892 115.893 350.879L115.972 351.664Z" fill="#7E7E7E"/>
<path d="M301.31 440.997H137.638C131.829 440.997 126.883 436.679 126.098 430.87L115.893 350.958C115.03 344.05 120.446 337.848 127.433 337.848H311.515C318.502 337.848 323.918 343.971 323.055 350.958L312.85 430.87C312.065 436.601 307.119 440.997 301.31 440.997Z" stroke="black" stroke-width="4" stroke-miterlimit="10" stroke-linecap="round" stroke-linejoin="round"/>
<path opacity="0.66" d="M227.207 384.556C223.674 384.556 220.848 381.73 220.848 378.197C220.848 377.962 220.848 377.726 220.927 377.491C220.299 377.412 219.671 377.333 219.043 377.333C213.312 377.333 208.602 382.044 208.602 387.774C208.602 393.505 213.312 398.215 219.043 398.215C224.773 398.215 229.483 393.505 229.483 387.774C229.483 386.597 229.248 385.419 228.934 384.32C228.384 384.399 227.835 384.556 227.207 384.556Z" fill="#B5B5B5"/>
<path d="M308.218 510.862C305.628 502.463 297.699 497.988 284.825 494.22C276.661 491.865 266.299 490.766 250.05 487.469C242.121 485.899 236.548 482.759 236.548 482.759V491.787C236.548 491.787 290.32 502.384 298.72 516.278C302.802 523.108 301.546 539.829 282.313 541.556C288.201 542.419 297.856 540.928 303.037 535.668C309.474 529.153 311.201 520.439 308.218 510.862Z" fill="#282323" stroke="black" stroke-width="4" stroke-miterlimit="10" stroke-linecap="round" stroke-linejoin="round"/>
<path d="M236.548 491.786C236.548 491.786 268.733 497.752 285.924 505.131C300.996 511.647 300.525 518.398 300.918 525.306C301.153 529.309 298.327 539.2 286.866 540.927C273.207 542.968 257.115 540.77 236.548 527.661C236.548 495.554 236.548 491.786 236.548 491.786Z" fill="#442C2A"/>
<path opacity="0.37" d="M300.918 525.306C300.604 519.733 300.839 514.238 292.989 508.9C293.303 510.862 293.382 512.746 293.46 514.709C293.696 518.712 290.87 528.603 279.409 530.33C267.477 532.136 253.582 530.644 236.548 521.46C236.548 523.422 236.548 525.463 236.548 527.583C257.115 540.692 273.207 542.812 286.866 540.849C298.406 539.201 301.153 529.231 300.918 525.306Z" fill="#442C2A"/>
<path d="M236.548 491.786C236.548 491.786 268.733 497.752 285.924 505.131C300.996 511.647 300.525 518.398 300.918 525.306C301.153 529.309 298.327 539.2 286.866 540.927C273.207 542.968 257.115 540.77 236.548 527.661C236.548 495.554 236.548 491.786 236.548 491.786Z" stroke="black" stroke-width="4" stroke-miterlimit="10" stroke-linecap="round" stroke-linejoin="round"/>
<path d="M266.378 510.234C268.969 511.647 268.341 525.384 262.061 527.268" stroke="black" stroke-width="4" stroke-miterlimit="10" stroke-linecap="round" stroke-linejoin="round"/>
<path d="M256.565 509.214C259.234 512.982 257.351 521.852 252.562 524.05" stroke="black" stroke-width="4" stroke-miterlimit="10" stroke-linecap="round" stroke-linejoin="round"/>
<path d="M247.538 506.073C250.207 509.841 248.323 518.712 243.535 520.91" stroke="black" stroke-width="4" stroke-miterlimit="10" stroke-linecap="round" stroke-linejoin="round"/>
<path d="M189.448 293.025V334.786" stroke="black" stroke-width="6" stroke-miterlimit="10" stroke-linecap="round" stroke-linejoin="round"/>
<path d="M242.436 293.025V322.462" stroke="black" stroke-width="6" stroke-miterlimit="10" stroke-linecap="round" stroke-linejoin="round"/>
<path d="M242.435 331.332C246.034 331.332 248.951 328.415 248.951 324.817C248.951 321.219 246.034 318.301 242.435 318.301C238.837 318.301 235.92 321.219 235.92 324.817C235.92 328.415 238.837 331.332 242.435 331.332Z" fill="black"/>
<path d="M242.436 326.701C243.91 326.701 245.105 325.506 245.105 324.032C245.105 322.558 243.91 321.363 242.436 321.363C240.961 321.363 239.767 322.558 239.767 324.032C239.767 325.506 240.961 326.701 242.436 326.701Z" fill="#7E7E7E"/>
<path d="M217.001 254.167C189.683 254.167 167.468 232.03 167.468 204.634V147.172H266.535V204.634C266.535 231.952 244.398 254.167 217.001 254.167Z" fill="#FFC897"/>
<path d="M217.001 247.338C189.683 247.338 167.468 225.201 167.468 197.804V204.634C167.468 231.952 189.605 254.167 217.001 254.167C244.319 254.167 266.535 232.03 266.535 204.634V197.804C266.535 225.122 244.398 247.338 217.001 247.338Z" fill="#E5A973"/>
<path d="M217.001 254.167C189.683 254.167 167.468 232.03 167.468 204.634V147.172H266.535V204.634C266.535 231.952 244.398 254.167 217.001 254.167Z" stroke="black" stroke-width="4" stroke-miterlimit="10" stroke-linecap="round" stroke-linejoin="round"/>
<path d="M266.927 152.902C266.77 150.233 266.613 147.485 266.535 144.816C233.565 146.386 200.438 146.151 167.546 143.246C167.311 146.308 167.154 149.369 166.918 152.431C168.41 153.765 169.98 155.178 171.471 156.513C172.727 157.141 174.376 158.004 175.867 158.789C182.461 162.243 191.646 166.639 200.438 168.366C203.656 168.994 207.032 169.308 210.486 169.23C225.322 169.073 237.804 163.185 243.063 160.752C243.848 160.359 244.476 160.045 244.869 159.967C245.183 159.81 245.497 159.731 245.968 159.731C246.91 159.731 248.009 159.967 249.343 160.202C251.07 160.595 253.111 160.987 255.388 160.83C257.978 160.673 260.333 159.888 262.61 158.397C263.944 156.513 265.436 154.707 266.927 152.902Z" fill="#E5A973"/>
<path d="M243.063 123.072C243.063 123.072 203.421 96.9315 170.608 126.133C164.485 131.55 162.051 139.321 162.051 146.465V184.302H167.546V156.827C167.546 154.786 168.959 153.216 170.686 153.216C173.512 153.216 188.82 161.38 201.772 163.656C221.319 167.032 239.138 158.004 242.985 156.67C249.579 154.315 254.917 162.479 263.238 153.294H263.552C265.279 153.294 266.692 154.943 266.692 156.905V184.38H272.187V146.7C272.03 137.437 261.354 114.201 243.063 123.072Z" fill="#231A17"/>
<g opacity="0.34">
<path opacity="0.34" d="M167.468 179.121H161.973V184.302H167.468V179.121Z" fill="#231A17"/>
<path opacity="0.34" d="M272.03 179.121H266.535V184.302H272.03V179.121Z" fill="#231A17"/>
</g>
<path d="M243.063 123.072C243.063 123.072 203.421 96.9315 170.608 126.133C164.485 131.55 162.051 139.321 162.051 146.465V184.302H167.546V156.827C167.546 154.786 168.959 153.216 170.686 153.216C173.512 153.216 188.82 161.38 201.772 163.656C221.319 167.032 239.138 158.004 242.985 156.67C249.579 154.315 254.917 162.479 263.238 153.294H263.552C265.279 153.294 266.692 154.943 266.692 156.905V184.38H272.187V146.7C272.03 137.437 261.354 114.201 243.063 123.072Z" stroke="black" stroke-width="4" stroke-miterlimit="10" stroke-linecap="round" stroke-linejoin="round"/>
<path d="M209.544 148.585C209.544 148.585 166.997 151.332 157.97 128.724" stroke="black" stroke-width="4" stroke-miterlimit="10" stroke-linecap="round" stroke-linejoin="round"/>
<path d="M215.589 143.168C215.589 143.168 174.612 140.577 163.936 117.969" stroke="black" stroke-width="4" stroke-miterlimit="10" stroke-linecap="round" stroke-linejoin="round"/>
<path d="M266.535 178.179V203.927C272.03 203.927 276.426 198.197 276.426 191.053C276.426 183.91 272.03 178.179 266.535 178.179Z" fill="#FFC897"/>
<path d="M266.535 179.592V202.436C269.754 200.316 271.952 195.999 271.952 190.975C271.952 186.029 269.754 181.712 266.535 179.592Z" fill="#E5A973"/>
<path d="M266.535 178.179V203.927C272.03 203.927 276.426 198.197 276.426 191.053C276.426 183.91 272.03 178.179 266.535 178.179Z" stroke="black" stroke-width="4" stroke-miterlimit="10" stroke-linecap="round" stroke-linejoin="round"/>
<path d="M167.546 178.179V203.927C162.051 203.927 157.655 198.197 157.655 191.053C157.577 183.91 162.051 178.179 167.546 178.179Z" fill="#FFC897"/>
<path d="M167.546 180.063C164.72 182.339 162.758 186.421 162.758 191.053C162.758 195.684 164.642 199.766 167.546 202.043V180.063Z" fill="#E5A973"/>
<path d="M167.546 178.179V203.927C162.051 203.927 157.655 198.197 157.655 191.053C157.577 183.91 162.051 178.179 167.546 178.179Z" stroke="black" stroke-width="4" stroke-miterlimit="10" stroke-linecap="round" stroke-linejoin="round"/>
<path d="M214.961 199.138L211.664 209.893C211.664 211.07 215.51 210.128 219.435 211.07" stroke="black" stroke-width="4" stroke-miterlimit="10" stroke-linecap="round" stroke-linejoin="round"/>
<path d="M233.486 219.234C234.664 227.398 224.145 234.62 215.902 233.129" stroke="black" stroke-width="3" stroke-miterlimit="10" stroke-linecap="round" stroke-linejoin="round"/>
<path d="M199.182 190.033C201.003 190.033 202.479 188.451 202.479 186.5C202.479 184.549 201.003 182.968 199.182 182.968C197.361 182.968 195.885 184.549 195.885 186.5C195.885 188.451 197.361 190.033 199.182 190.033Z" stroke="black" stroke-width="2" stroke-miterlimit="10" stroke-linecap="round" stroke-linejoin="round"/>
<path d="M199.182 190.033C201.003 190.033 202.479 188.451 202.479 186.5C202.479 184.549 201.003 182.968 199.182 182.968C197.361 182.968 195.885 184.549 195.885 186.5C195.885 188.451 197.361 190.033 199.182 190.033Z" fill="black"/>
<path d="M187.799 179.042C189.448 177.08 193.294 175.745 197.847 175.745C201.458 175.745 204.598 176.609 206.561 177.943" stroke="black" stroke-width="3" stroke-miterlimit="10" stroke-linecap="round" stroke-linejoin="round"/>
<path d="M235.292 190.033C237.113 190.033 238.589 188.451 238.589 186.5C238.589 184.549 237.113 182.968 235.292 182.968C233.471 182.968 231.995 184.549 231.995 186.5C231.995 188.451 233.471 190.033 235.292 190.033Z" stroke="black" stroke-width="2" stroke-miterlimit="10" stroke-linecap="round" stroke-linejoin="round"/>
<path d="M235.292 190.033C237.113 190.033 238.589 188.451 238.589 186.5C238.589 184.549 237.113 182.968 235.292 182.968C233.471 182.968 231.995 184.549 231.995 186.5C231.995 188.451 233.471 190.033 235.292 190.033Z" fill="black"/>
<path d="M246.675 179.042C245.026 177.08 241.18 175.745 236.627 175.745C233.016 175.745 229.876 176.609 227.913 177.943" stroke="black" stroke-width="3" stroke-miterlimit="10" stroke-linecap="round" stroke-linejoin="round"/>
<g clip-path="url(#clip0_122_1644)">
<path d="M243.371 52.55V54.55C243.37 54.9006 243.473 55.2436 243.667 55.5356C243.861 55.8276 244.137 56.0554 244.461 56.19C244.651 56.27 244.871 56.36 245.111 56.44L245.231 56.73V58.28C245.23 58.5497 245.31 58.8134 245.46 59.0378C245.609 59.2621 245.822 59.437 246.071 59.5401L246.501 59.7001V60.0801C246.558 61.3374 247.098 62.5244 248.007 63.394C248.917 64.2637 250.128 64.749 251.386 64.749C252.645 64.749 253.855 64.2637 254.765 63.394C255.675 62.5244 256.214 61.3374 256.271 60.0801L256.431 59.6501L256.721 59.5401C256.97 59.437 257.183 59.2621 257.333 59.0378C257.482 58.8134 257.562 58.5497 257.561 58.28V56.7401V56.85V56.5201L258.391 56.2001C258.715 56.0654 258.991 55.8376 259.185 55.5456C259.379 55.2537 259.482 54.9106 259.481 54.5601V52.5601L243.371 52.55Z" fill="#D9E1E4"/>
<path d="M251.4 62C249.817 62.0016 248.245 61.7344 246.75 61.21C246.632 61.161 246.537 61.0683 246.485 60.951C246.432 60.8337 246.427 60.7009 246.47 60.58C246.519 60.4616 246.613 60.367 246.73 60.3165C246.848 60.2661 246.981 60.2637 247.1 60.31C249.756 61.2336 252.645 61.2336 255.3 60.31C255.36 60.2857 255.423 60.2735 255.487 60.2739C255.55 60.2744 255.614 60.2876 255.672 60.3127C255.731 60.3379 255.784 60.3745 255.828 60.4204C255.873 60.4663 255.907 60.5205 255.93 60.58C255.977 60.6982 255.976 60.8301 255.928 60.9476C255.879 61.0652 255.787 61.1593 255.67 61.21C254.311 61.745 252.861 62.0132 251.4 62Z" fill="#94B5BF"/>
<path d="M251.562 55.35C248.785 55.3595 246.027 54.9032 243.402 54C243.282 53.9536 243.186 53.8616 243.135 53.7444C243.083 53.6272 243.08 53.4943 243.127 53.375C243.173 53.2556 243.265 53.1596 243.382 53.108C243.499 53.0565 243.632 53.0536 243.752 53.1C243.832 53.1 251.512 56.02 258.652 53.1C258.711 53.077 258.774 53.0659 258.837 53.0673C258.9 53.0686 258.963 53.0825 259.021 53.108C259.079 53.1336 259.131 53.1703 259.175 53.2161C259.219 53.2619 259.254 53.3159 259.277 53.375C259.3 53.4341 259.311 53.4971 259.309 53.5605C259.308 53.6239 259.294 53.6864 259.268 53.7444C259.243 53.8025 259.206 53.8549 259.16 53.8987C259.115 53.9426 259.061 53.977 259.002 54C256.632 54.9257 254.105 55.3841 251.562 55.35Z" fill="#94B5BF"/>
<path d="M257.36 56.46V56.79V56.68V57.76L257.17 57.83C255.211 58.5495 253.147 58.9447 251.06 59C249.013 58.9572 246.987 58.5823 245.06 57.89V56.68L245 56.53C246.924 57.2353 248.951 57.6171 251 57.66L257.36 56.46Z" fill="#94B5BF"/>
<path d="M260.669 51.33V47.46C260.669 47.46 260.209 40.29 263.539 34.93C266.869 29.57 269.889 26.33 269.889 18.72C269.889 11.11 263.329 0.540039 251.219 0.540039C239.109 0.540039 232.539 11.11 232.539 18.72C232.539 26.33 235.539 29.58 238.899 34.93C240.876 38.0419 241.876 41.6747 241.769 45.36V51.36C241.766 51.5313 241.813 51.6998 241.903 51.8452C241.994 51.9907 242.124 52.1069 242.279 52.18C245.092 53.4302 248.136 54.0762 251.214 54.0762C254.292 54.0762 257.336 53.4302 260.149 52.18C260.311 52.1064 260.446 51.9861 260.539 51.8346C260.632 51.6832 260.677 51.5074 260.669 51.33Z" fill="#FBE481"/>
<path opacity="0.5" d="M263.212 35.1701C261.234 38.2819 260.235 41.9148 260.342 45.6001V51.6001C260.341 51.7719 260.292 51.9401 260.2 52.0852C260.108 52.2304 259.977 52.3464 259.822 52.4201C257.748 53.3614 255.536 53.9656 253.272 54.2101C253.272 53.5001 253.212 52.6301 253.162 51.6001V45.6001C253.04 41.9171 254.029 38.2827 256.002 35.1701C259.332 29.8201 262.352 26.5801 262.352 18.9601C262.352 12.1401 257.082 2.96009 247.262 1.12009C248.455 0.890867 249.667 0.777009 250.882 0.78009C263.002 0.78009 269.562 11.3501 269.562 19.0001C269.562 26.6501 266.532 29.8201 263.212 35.1701Z" fill="#F8A547"/>
<path d="M263.05 34.9999C261.563 37.493 260.792 40.3473 260.82 43.2499C260.82 44.7899 260.82 45.6899 260.82 45.6899L260.15 51.3999C260.15 51.5717 260.1 51.7399 260.008 51.8851C259.916 52.0302 259.785 52.1463 259.63 52.2199C257.565 53.1558 255.364 53.7567 253.11 53.9999C253.11 53.9299 253.11 53.8799 253.11 53.8099C254.897 53.6518 256.653 53.248 258.33 52.6099C258.65 52.4599 258.83 52.6999 258.83 52.3499V45.4199C258.722 41.739 259.718 38.11 261.69 34.9999C265.02 29.6499 268.06 26.4099 268.06 18.7899C268.06 11.1699 261.7 0.999901 250 0.619901C250.25 0.619901 250.51 0.619901 250.76 0.619901C262.84 0.599901 269.41 11.1699 269.41 18.7799C269.41 26.3899 266.38 29.6399 263.05 34.9999Z" fill="#FCA100"/>
<path d="M238.899 34.9999C240.874 38.1089 241.874 41.7379 241.769 45.4199V51.4199C241.77 51.5928 241.821 51.7618 241.915 51.907C242.009 52.0522 242.142 52.1677 242.299 52.2399C244.371 53.1719 246.579 53.7661 248.839 53.9999C248.839 53.9299 248.839 53.8799 248.839 53.8099C247.043 53.5057 245.295 52.9678 243.639 52.2099C243.309 52.0599 243.119 52.6999 243.119 52.3499L243.999 48.5299C244.94 44.2871 244.349 39.848 242.329 35.9999C242.149 35.6699 241.949 35.3399 241.739 34.9999C238.419 29.6399 235.379 26.3999 235.379 18.7799C235.379 11.1599 240.249 0.999885 251.999 0.619885C251.759 0.619885 251.499 0.619885 251.239 0.619885C248.452 0.578957 245.693 1.17791 243.174 2.37066C240.655 3.56341 238.443 5.31816 236.709 7.49988C234.114 10.6978 232.648 14.6632 232.539 18.7799C232.539 26.3999 235.569 29.6399 238.899 34.9999Z" fill="white"/>
<path d="M236.82 32.2499C236.728 32.2507 236.638 32.2281 236.558 32.1844C236.477 32.1406 236.409 32.0772 236.36 31.9999C233.89 28.1899 232 24.7899 232 18.7199C232.069 15.6235 232.915 12.594 234.46 9.9099C234.495 9.84679 234.543 9.79129 234.6 9.74657C234.657 9.70185 234.722 9.66878 234.791 9.64928C234.861 9.62977 234.934 9.6242 235.006 9.63288C235.078 9.64157 235.147 9.66434 235.21 9.6999C235.272 9.73516 235.326 9.78233 235.37 9.83868C235.413 9.89504 235.445 9.95947 235.464 10.0283C235.483 10.097 235.487 10.1688 235.478 10.2395C235.469 10.3101 235.446 10.3782 235.41 10.4399C233.955 12.962 233.158 15.8091 233.09 18.7199C233.09 24.4999 234.82 27.6299 237.27 31.4099C237.31 31.4691 237.338 31.5359 237.352 31.6063C237.366 31.6766 237.365 31.749 237.351 31.8191C237.336 31.8892 237.307 31.9556 237.265 32.0142C237.224 32.0727 237.171 32.1223 237.11 32.1599C237.024 32.2181 236.923 32.2494 236.82 32.2499Z" fill="#3E3126"/>
<path d="M260.721 43.74C260.579 43.7248 260.448 43.6547 260.357 43.5445C260.265 43.4343 260.22 43.2928 260.231 43.15C260.313 42.3428 260.443 41.5413 260.621 40.75C261.108 38.5864 261.956 36.5206 263.131 34.64C263.641 33.82 264.131 33.04 264.641 32.29C267.301 28.22 269.401 25 269.401 18.72C269.401 11.33 263.101 1.08999 251.271 1.08999C246.85 1.02318 242.567 2.63067 239.281 5.58999C239.231 5.64965 239.168 5.69778 239.097 5.73114C239.026 5.7645 238.949 5.78233 238.87 5.78344C238.792 5.78455 238.714 5.76891 238.642 5.73757C238.571 5.70623 238.506 5.65991 238.454 5.60171C238.401 5.54351 238.362 5.47478 238.338 5.40011C238.315 5.32545 238.307 5.24657 238.316 5.16877C238.326 5.09097 238.351 5.01603 238.392 4.94898C238.432 4.88194 238.487 4.82432 238.551 4.77999C242.025 1.65296 246.548 -0.0533182 251.221 -8.17748e-06C263.761 -8.17748e-06 270.441 10.87 270.441 18.72C270.441 25.33 268.151 28.83 265.501 32.88C265.021 33.63 264.501 34.4 264.001 35.22C262.895 37.001 262.094 38.9546 261.631 41C261.463 41.7448 261.342 42.4997 261.271 43.26C261.254 43.3934 261.189 43.5159 261.087 43.6044C260.986 43.6928 260.856 43.7411 260.721 43.74Z" fill="#3E3126"/>
<path d="M251.329 54.6099C248.133 54.5968 244.976 53.9155 242.059 52.6099C241.807 52.496 241.594 52.3116 241.445 52.0792C241.296 51.8467 241.217 51.576 241.219 51.2999V46.7999C241.237 46.6681 241.302 46.5472 241.402 46.4596C241.502 46.3721 241.631 46.3239 241.764 46.3239C241.897 46.3239 242.025 46.3721 242.126 46.4596C242.226 46.5472 242.291 46.6681 242.309 46.7999V51.2999C242.309 51.3665 242.328 51.4317 242.363 51.4882C242.399 51.5447 242.449 51.5903 242.509 51.6199C245.248 52.8411 248.214 53.4723 251.214 53.4723C254.213 53.4723 257.179 52.8411 259.919 51.6199C259.981 51.5927 260.034 51.548 260.071 51.4911C260.109 51.4343 260.129 51.3679 260.129 51.2999V44.6899C260.129 44.5457 260.185 44.4073 260.286 44.3045C260.387 44.2016 260.525 44.1425 260.669 44.1399C260.815 44.1399 260.954 44.1978 261.058 44.301C261.161 44.4041 261.219 44.544 261.219 44.6899V51.3299C261.216 51.6078 261.135 51.8792 260.985 52.1129C260.834 52.3465 260.621 52.5327 260.369 52.6499C257.531 53.9439 254.448 54.6123 251.329 54.6099Z" fill="#3E3126"/>
<path d="M241.461 41.9999C241.336 41.9998 241.214 41.9557 241.117 41.8754C241.02 41.7951 240.955 41.6835 240.931 41.5599C240.633 40.0257 240.146 38.5344 239.481 37.1199C239.451 37.0556 239.434 36.9859 239.43 36.9149C239.427 36.8438 239.438 36.7728 239.462 36.7059C239.486 36.639 239.523 36.5775 239.571 36.525C239.619 36.4725 239.677 36.43 239.741 36.3999C239.873 36.3382 240.023 36.3308 240.16 36.3795C240.297 36.4282 240.409 36.529 240.471 36.6599C241.176 38.1598 241.69 39.7421 242.001 41.3699C242.028 41.5117 241.998 41.6582 241.917 41.7779C241.837 41.8976 241.713 41.9809 241.571 42.0099L241.461 41.9999Z" fill="#3E3126"/>
<path d="M263.527 26.1046C263.965 24.9181 263.635 23.7036 262.791 23.3918C261.946 23.0801 260.907 23.7892 260.469 24.9757C260.031 26.1622 260.36 27.3767 261.205 27.6885C262.049 28.0002 263.089 27.2911 263.527 26.1046Z" fill="#FFB320"/>
<path d="M263.84 22.1499C264.392 22.1499 264.84 21.7022 264.84 21.1499C264.84 20.5976 264.392 20.1499 263.84 20.1499C263.288 20.1499 262.84 20.5976 262.84 21.1499C262.84 21.7022 263.288 22.1499 263.84 22.1499Z" fill="#FFB320"/>
<path opacity="0.75" d="M261.181 22.29C261.402 22.29 261.581 22.1109 261.581 21.89C261.581 21.6691 261.402 21.49 261.181 21.49C260.96 21.49 260.781 21.6691 260.781 21.89C260.781 22.1109 260.96 22.29 261.181 22.29Z" fill="#FFB320"/>
<path d="M259.539 27.7299C259.903 27.7299 260.199 27.4344 260.199 27.0699C260.199 26.7054 259.903 26.4099 259.539 26.4099C259.174 26.4099 258.879 26.7054 258.879 27.0699C258.879 27.4344 259.174 27.7299 259.539 27.7299Z" fill="#FFB320"/>
<path opacity="0.35" d="M262.939 18.8301C263.348 18.8301 263.679 18.4988 263.679 18.0901C263.679 17.6814 263.348 17.3501 262.939 17.3501C262.531 17.3501 262.199 17.6814 262.199 18.0901C262.199 18.4988 262.531 18.8301 262.939 18.8301Z" fill="#FFB320"/>
<path opacity="0.35" d="M260.54 20.1699C260.888 20.1699 261.17 19.8879 261.17 19.5399C261.17 19.192 260.888 18.9099 260.54 18.9099C260.192 18.9099 259.91 19.192 259.91 19.5399C259.91 19.8879 260.192 20.1699 260.54 20.1699Z" fill="#FFB320"/>
<path opacity="0.35" d="M258.991 23.9299C259.284 23.9299 259.521 23.6926 259.521 23.3999C259.521 23.1072 259.284 22.8699 258.991 22.8699C258.698 22.8699 258.461 23.1072 258.461 23.3999C258.461 23.6926 258.698 23.9299 258.991 23.9299Z" fill="#FFB320"/>
<path opacity="0.75" d="M257.322 13.1301C257.543 13.1301 257.722 12.951 257.722 12.7301C257.722 12.5092 257.543 12.3301 257.322 12.3301C257.101 12.3301 256.922 12.5092 256.922 12.7301C256.922 12.951 257.101 13.1301 257.322 13.1301Z" fill="#E2AB63"/>
<path opacity="0.35" d="M255.56 9.66994C255.969 9.66994 256.3 9.33863 256.3 8.92994C256.3 8.52125 255.969 8.18994 255.56 8.18994C255.152 8.18994 254.82 8.52125 254.82 8.92994C254.82 9.33863 255.152 9.66994 255.56 9.66994Z" fill="#E2AB63"/>
<path opacity="0.35" d="M255.11 12.3401C255.458 12.3401 255.74 12.058 255.74 11.7101C255.74 11.3621 255.458 11.0801 255.11 11.0801C254.762 11.0801 254.48 11.3621 254.48 11.7101C254.48 12.058 254.762 12.3401 255.11 12.3401Z" fill="#E2AB63"/>
<path opacity="0.35" d="M257.061 15.9101C257.354 15.9101 257.591 15.6728 257.591 15.3801C257.591 15.0874 257.354 14.8501 257.061 14.8501C256.769 14.8501 256.531 15.0874 256.531 15.3801C256.531 15.6728 256.769 15.9101 257.061 15.9101Z" fill="#E2AB63"/>
<path d="M252.492 53.9399C252.436 53.9399 252.38 53.9287 252.328 53.907C252.277 53.8853 252.23 53.8534 252.191 53.8134C252.152 53.7733 252.121 53.7258 252.101 53.6737C252.08 53.6216 252.07 53.5659 252.072 53.5099V38.2299H249.932V53.3399C249.916 53.4414 249.864 53.534 249.786 53.6009C249.709 53.6677 249.609 53.7045 249.507 53.7045C249.404 53.7045 249.304 53.6677 249.227 53.6009C249.149 53.534 249.097 53.4414 249.082 53.3399V38.2299H247.002C246.232 38.2299 245.495 37.9244 244.951 37.3805C244.407 36.8366 244.102 36.099 244.102 35.3299V34.7899C244.102 34.0208 244.407 33.2831 244.951 32.7393C245.495 32.1954 246.232 31.8899 247.002 31.8899C247.771 31.8899 248.508 32.1954 249.052 32.7393C249.596 33.2831 249.902 34.0208 249.902 34.7899V37.3799H252.042V34.7899C252.085 34.0489 252.41 33.3525 252.95 32.8433C253.49 32.3341 254.204 32.0504 254.947 32.0504C255.689 32.0504 256.403 32.3341 256.943 32.8433C257.483 33.3525 257.808 34.0489 257.852 34.7899V35.3299C257.849 36.0897 257.55 36.8183 257.017 37.3602C256.484 37.9021 255.761 38.2142 255.002 38.2299H253.002V53.5099C253.003 53.5738 252.989 53.6371 252.963 53.6953C252.937 53.7534 252.898 53.805 252.849 53.8462C252.8 53.8873 252.743 53.9171 252.681 53.9333C252.619 53.9495 252.554 53.9518 252.492 53.9399ZM252.922 37.3799H254.922C255.193 37.3825 255.462 37.3315 255.714 37.2298C255.965 37.1281 256.194 36.9777 256.388 36.7872C256.581 36.5967 256.735 36.3699 256.84 36.1198C256.945 35.8697 257 35.6013 257.002 35.3299V34.7899C256.965 34.2696 256.733 33.7825 256.352 33.4268C255.97 33.0711 255.468 32.8733 254.947 32.8733C254.425 32.8733 253.923 33.0711 253.542 33.4268C253.16 33.7825 252.928 34.2696 252.892 34.7899L252.922 37.3799ZM247.002 32.7399C246.475 32.7526 245.974 32.9674 245.601 33.3397C245.229 33.7121 245.014 34.2135 245.002 34.7399V35.2799C245.001 35.815 245.21 36.329 245.584 36.7121C245.958 37.0951 246.467 37.3168 247.002 37.3299H249.002V34.7899C249.002 34.2548 248.793 33.7408 248.419 33.3577C248.045 32.9747 247.536 32.7529 247.002 32.7399Z" fill="#3E3126"/>
<path d="M261.971 14.8187C263.462 14.4295 264.26 12.5415 263.753 10.6017C263.247 8.66191 261.628 7.40489 260.137 7.79408C258.646 8.18327 257.848 10.0713 258.354 12.0111C258.861 13.9509 260.48 15.2079 261.971 14.8187Z" fill="#FFB320"/>
<path d="M247.682 57.2801H247.582C246.483 57.0348 245.406 56.7003 244.362 56.2801C243.959 56.1447 243.619 55.8665 243.407 55.4981C243.196 55.1296 243.126 54.6964 243.212 54.2801C243.227 54.1536 243.29 54.0379 243.389 53.9576C243.488 53.8774 243.615 53.8388 243.742 53.8501C243.804 53.8551 243.865 53.8726 243.921 53.9016C243.977 53.9306 244.026 53.9706 244.067 54.0191C244.107 54.0676 244.137 54.1236 244.155 54.1839C244.173 54.2442 244.178 54.3075 244.172 54.3701C244.092 55.1701 244.642 55.3701 244.672 55.3701C245.685 55.7537 246.724 56.0645 247.782 56.3001C247.907 56.3288 248.016 56.4057 248.085 56.5142C248.155 56.6228 248.178 56.7542 248.152 56.8801C248.133 56.9914 248.075 57.0925 247.989 57.1656C247.903 57.2388 247.794 57.2793 247.682 57.2801Z" fill="white"/>
<path d="M248.181 57.8399H248.101C246.731 57.5855 245.39 57.19 244.101 56.6599C243.703 56.4976 243.363 56.2209 243.122 55.8649C242.882 55.5088 242.753 55.0895 242.751 54.6599V52.6599C242.742 52.5987 242.746 52.5361 242.763 52.4765C242.78 52.4168 242.809 52.3616 242.85 52.3146C242.89 52.2675 242.94 52.2297 242.996 52.2038C243.053 52.178 243.114 52.1646 243.176 52.1646C243.238 52.1646 243.299 52.178 243.356 52.2038C243.412 52.2297 243.462 52.2675 243.502 52.3146C243.543 52.3616 243.572 52.4168 243.59 52.4765C243.607 52.5361 243.61 52.5987 243.601 52.6599V54.6599C243.599 54.9259 243.676 55.1864 243.822 55.4088C243.968 55.6312 244.176 55.8055 244.421 55.9099C245.663 56.3947 246.949 56.7597 248.261 56.9999C248.316 57.0096 248.368 57.0299 248.414 57.0598C248.461 57.0897 248.502 57.1286 248.533 57.1741C248.565 57.2197 248.587 57.271 248.599 57.3252C248.61 57.3794 248.611 57.4354 248.601 57.4899C248.582 57.5879 248.53 57.6764 248.454 57.7403C248.377 57.8041 248.281 57.8394 248.181 57.8399Z" fill="#3E3126"/>
<path d="M251.001 58.1499C250.9 58.1343 250.807 58.0828 250.74 58.0049C250.674 57.9269 250.637 57.8276 250.637 57.7249C250.637 57.6222 250.674 57.5229 250.74 57.4449C250.807 57.367 250.9 57.3155 251.001 57.2999C253.404 57.2668 255.778 56.7817 258.001 55.8699C258.248 55.767 258.458 55.5933 258.606 55.3708C258.754 55.1483 258.832 54.887 258.831 54.6199V52.6199C258.822 52.5586 258.826 52.496 258.843 52.4364C258.86 52.3768 258.89 52.3216 258.93 52.2745C258.97 52.2275 259.02 52.1897 259.077 52.1638C259.133 52.1379 259.194 52.1245 259.256 52.1245C259.318 52.1245 259.38 52.1379 259.436 52.1638C259.492 52.1897 259.542 52.2275 259.583 52.2745C259.623 52.3216 259.653 52.3768 259.67 52.4364C259.687 52.496 259.691 52.5586 259.681 52.6199V54.6199C259.679 55.0506 259.548 55.4708 259.306 55.8269C259.064 56.1831 258.721 56.4591 258.321 56.6199C256.001 57.5895 253.516 58.1088 251.001 58.1499Z" fill="#3E3126"/>
<path d="M251.358 61.1501C249.423 61.1222 247.51 60.7322 245.718 60.0001C245.391 59.8634 245.112 59.6327 244.916 59.3372C244.72 59.0416 244.617 58.6946 244.618 58.3401V56.8001C244.609 56.7388 244.613 56.6762 244.63 56.6166C244.647 56.557 244.677 56.5018 244.717 56.4547C244.757 56.4076 244.807 56.3699 244.864 56.344C244.92 56.3181 244.981 56.3047 245.043 56.3047C245.105 56.3047 245.166 56.3181 245.223 56.344C245.279 56.3699 245.329 56.4076 245.37 56.4547C245.41 56.5018 245.44 56.557 245.457 56.6166C245.474 56.6762 245.478 56.7388 245.468 56.8001V58.3401C245.466 58.5254 245.519 58.7072 245.62 58.8622C245.722 59.0172 245.867 59.1384 246.038 59.2101C247.727 59.9047 249.532 60.2745 251.358 60.3001C251.42 60.2906 251.482 60.2946 251.542 60.3116C251.601 60.3286 251.657 60.3583 251.704 60.3987C251.751 60.4391 251.788 60.4892 251.814 60.5455C251.84 60.6018 251.854 60.6631 251.854 60.7251C251.854 60.7871 251.84 60.8483 251.814 60.9047C251.788 60.961 251.751 61.0111 251.704 61.0514C251.657 61.0918 251.601 61.1215 251.542 61.1385C251.482 61.1556 251.42 61.1595 251.358 61.1501Z" fill="#3E3126"/>
<path d="M251.081 61.1501C251.02 61.1595 250.958 61.1556 250.898 61.1385C250.838 61.1215 250.783 61.0918 250.736 61.0514C250.689 61.0111 250.651 60.961 250.625 60.9047C250.599 60.8483 250.586 60.7871 250.586 60.7251C250.586 60.6631 250.599 60.6018 250.625 60.5455C250.651 60.4892 250.689 60.4391 250.736 60.3987C250.783 60.3583 250.838 60.3286 250.898 60.3116C250.958 60.2946 251.02 60.2906 251.081 60.3001C252.904 60.275 254.706 59.9051 256.391 59.2101C256.563 59.1395 256.709 59.0186 256.811 58.8634C256.913 58.7081 256.965 58.5257 256.961 58.3401V56.8001C256.952 56.7388 256.956 56.6762 256.973 56.6166C256.99 56.557 257.02 56.5018 257.06 56.4547C257.1 56.4076 257.15 56.3699 257.207 56.344C257.263 56.3181 257.324 56.3047 257.386 56.3047C257.448 56.3047 257.51 56.3181 257.566 56.344C257.622 56.3699 257.672 56.4076 257.713 56.4547C257.753 56.5018 257.783 56.557 257.8 56.6166C257.817 56.6762 257.821 56.7388 257.811 56.8001V58.3401C257.813 58.6932 257.71 59.0388 257.516 59.334C257.322 59.6292 257.046 59.8608 256.721 60.0001C254.93 60.7322 253.017 61.1222 251.081 61.1501Z" fill="#3E3126"/>
<path d="M251.221 65.4599C249.813 65.4599 248.462 64.9005 247.467 63.9047C246.471 62.9088 245.911 61.5582 245.911 60.1499C245.902 60.0886 245.906 60.0261 245.923 59.9664C245.94 59.9068 245.97 59.8516 246.01 59.8046C246.05 59.7575 246.1 59.7197 246.157 59.6938C246.213 59.6679 246.274 59.6545 246.336 59.6545C246.398 59.6545 246.46 59.6679 246.516 59.6938C246.572 59.7197 246.622 59.7575 246.663 59.8046C246.703 59.8516 246.733 59.9068 246.75 59.9664C246.767 60.0261 246.771 60.0886 246.761 60.1499C246.761 61.3328 247.231 62.4672 248.068 63.3036C248.904 64.14 250.038 64.6099 251.221 64.6099C252.404 64.6099 253.539 64.14 254.375 63.3036C255.211 62.4672 255.681 61.3328 255.681 60.1499C255.672 60.0886 255.676 60.0261 255.693 59.9664C255.71 59.9068 255.74 59.8516 255.78 59.8046C255.82 59.7575 255.87 59.7197 255.927 59.6938C255.983 59.6679 256.044 59.6545 256.106 59.6545C256.168 59.6545 256.23 59.6679 256.286 59.6938C256.342 59.7197 256.392 59.7575 256.433 59.8046C256.473 59.8516 256.503 59.9068 256.52 59.9664C256.537 60.0261 256.541 60.0886 256.531 60.1499C256.531 60.8472 256.394 61.5377 256.127 62.182C255.86 62.8262 255.469 63.4116 254.976 63.9047C254.483 64.3977 253.898 64.7889 253.253 65.0557C252.609 65.3226 251.919 65.4599 251.221 65.4599Z" fill="#3E3126"/>
<path d="M239.151 35.8799C239.482 35.8799 239.751 35.6113 239.751 35.2799C239.751 34.9486 239.482 34.6799 239.151 34.6799C238.819 34.6799 238.551 34.9486 238.551 35.2799C238.551 35.6113 238.819 35.8799 239.151 35.8799Z" fill="#3E3126"/>
<path d="M241.772 44.19C242.103 44.19 242.372 43.9214 242.372 43.59C242.372 43.2586 242.103 42.99 241.772 42.99C241.44 42.99 241.172 43.2586 241.172 43.59C241.172 43.9214 241.44 44.19 241.772 44.19Z" fill="#3E3126"/>
<path d="M235.998 9.35991C236.33 9.35991 236.598 9.09128 236.598 8.75991C236.598 8.42854 236.33 8.15991 235.998 8.15991C235.667 8.15991 235.398 8.42854 235.398 8.75991C235.398 9.09128 235.667 9.35991 235.998 9.35991Z" fill="#3E3126"/>
<path d="M237.192 23.74H237.082C237.045 23.7257 237.011 23.7042 236.983 23.6768C236.954 23.6494 236.931 23.6166 236.916 23.5804C236.9 23.5441 236.891 23.5051 236.891 23.4656C236.89 23.426 236.897 23.3868 236.912 23.35L238.552 19.45C238.567 19.4132 238.59 19.3799 238.619 19.352C238.648 19.3241 238.681 19.302 238.719 19.2872C238.756 19.2723 238.795 19.2649 238.835 19.2654C238.875 19.2659 238.915 19.2743 238.952 19.29C238.988 19.3058 239.022 19.3286 239.05 19.3572C239.078 19.3859 239.1 19.4197 239.115 19.4569C239.129 19.494 239.137 19.5337 239.136 19.5737C239.136 19.6137 239.127 19.6532 239.112 19.69L237.472 23.55C237.45 23.6062 237.411 23.6544 237.361 23.6883C237.311 23.7222 237.252 23.7402 237.192 23.74Z" fill="#3E3126"/>
<path d="M239.379 21.86H239.269C239.232 21.8457 239.199 21.8242 239.17 21.7968C239.142 21.7694 239.119 21.7366 239.103 21.7004C239.087 21.6641 239.079 21.6251 239.078 21.5856C239.077 21.5461 239.085 21.5068 239.099 21.47L239.999 19.35C240.013 19.3132 240.035 19.2797 240.063 19.2515C240.09 19.2233 240.123 19.201 240.16 19.186C240.196 19.171 240.235 19.1637 240.275 19.1644C240.314 19.165 240.353 19.1738 240.389 19.19C240.426 19.2042 240.46 19.2258 240.488 19.2534C240.516 19.281 240.538 19.314 240.553 19.3506C240.568 19.3871 240.576 19.4262 240.575 19.4657C240.574 19.5052 240.565 19.5441 240.549 19.58L239.669 21.67C239.646 21.7278 239.606 21.7771 239.554 21.8112C239.502 21.8452 239.441 21.8623 239.379 21.86Z" fill="#3E3126"/>
<path d="M241.71 15.5482C242.699 14.1306 242.723 12.4383 241.763 11.7682C240.802 11.0981 239.222 11.7041 238.233 13.1217C237.244 14.5393 237.22 16.2317 238.18 16.9017C239.14 17.5718 240.721 16.9658 241.71 15.5482Z" fill="#FFEFAE"/>
<path d="M245.881 11.5858C246.374 10.8793 246.385 10.035 245.905 9.69992C245.425 9.36489 244.636 9.66605 244.143 10.3726C243.65 11.0791 243.639 11.9235 244.119 12.2585C244.599 12.5935 245.388 12.2924 245.881 11.5858Z" fill="#FFEFAE"/>
</g>
<g clip-path="url(#clip1_122_1644)">
<path d="M23.8727 444.927L21.0093 444.149L20.5322 445.913L23.3957 446.691L23.8727 444.927Z" fill="#F7A1B7"/>
<path d="M24.175 444.409L21.2559 442.414L22.0542 440.754L24.735 442.581L24.175 444.409Z" fill="#F7A1B7"/>
<path d="M27.415 441.816L26.3804 439.029L24.6719 439.666L25.7064 442.453L27.415 441.816Z" fill="#F7A1B7"/>
<path d="M30.6128 440.646L29.5781 437.858L27.8696 438.495L28.9042 441.283L30.6128 440.646Z" fill="#F7A1B7"/>
<path d="M22.9513 448.351L20.0879 447.572L19.6108 449.336L22.4742 450.115L22.9513 448.351Z" fill="#F7A1B7"/>
<path d="M22.3891 452.244H22.2699C22.1541 452.211 22.0559 452.134 21.9959 452.029C21.9358 451.924 21.9188 451.8 21.9482 451.683L24.4503 442.426C24.4718 442.356 24.5087 442.292 24.5582 442.238C24.6076 442.185 24.6685 442.143 24.7363 442.116L32.9337 439.177L32.0997 437.039L22.4129 440.778L19.6248 451.074C19.6111 451.133 19.5854 451.189 19.5493 451.238C19.5132 451.287 19.4674 451.327 19.4149 451.358C19.3623 451.388 19.304 451.407 19.2439 451.414C19.1836 451.42 19.1227 451.414 19.0648 451.396C18.949 451.363 18.8508 451.286 18.7908 451.181C18.7307 451.076 18.7137 450.952 18.7431 450.835L21.5908 440.312C21.6105 440.241 21.6469 440.176 21.6966 440.122C21.7462 440.068 21.808 440.027 21.8767 440.001L32.1712 436C32.2835 435.961 32.4067 435.966 32.5154 436.015C32.6241 436.064 32.7097 436.152 32.755 436.263L33.9465 439.237C33.973 439.293 33.9867 439.354 33.9867 439.416C33.9867 439.478 33.973 439.539 33.9465 439.595C33.9223 439.652 33.8863 439.702 33.8412 439.743C33.7959 439.784 33.7425 439.815 33.6844 439.834L25.2725 442.868L22.8299 451.898C22.8039 451.996 22.747 452.083 22.6674 452.145C22.5878 452.208 22.4901 452.243 22.3891 452.244Z" fill="#3E3126"/>
<path d="M33.3616 516.028H10.7233C9.99969 516.029 9.30363 515.75 8.77991 515.249C8.25618 514.749 7.94511 514.065 7.91137 513.34L4.28925 457.608C4.27315 457.242 4.3312 456.876 4.45989 456.533C4.5886 456.19 4.78526 455.877 5.03804 455.613C5.29081 455.348 5.59445 455.138 5.93061 454.994C6.26677 454.85 6.62849 454.776 6.99393 454.777H37.1029C37.4693 454.775 37.8323 454.847 38.1699 454.99C38.5074 455.133 38.8125 455.344 39.0666 455.608C39.3206 455.873 39.5183 456.187 39.6478 456.53C39.7772 456.874 39.8356 457.241 39.8195 457.608L36.1855 513.34C36.1516 514.067 35.8389 514.752 35.3126 515.253C34.7863 515.754 34.0873 516.032 33.3616 516.028Z" fill="#F7A1B7"/>
<path d="M39.9142 457.608L36.2802 513.328C36.2496 514.053 35.9415 514.738 35.42 515.241C34.8984 515.743 34.2038 516.025 33.4802 516.028H10.8419C10.1073 516.03 9.40119 515.743 8.87598 515.228C30.9781 502.459 36.6138 468.477 37.984 454.884C38.5596 455.062 39.0607 455.426 39.4095 455.918C39.7584 456.41 39.9358 457.004 39.9142 457.608Z" fill="#EC255A"/>
<path d="M7.01704 499.915C6.87562 499.918 6.73837 499.867 6.634 499.771C6.52964 499.675 6.46623 499.543 6.45704 499.401L5.26555 480.78C5.25006 480.701 5.25146 480.62 5.26963 480.543C5.2878 480.465 5.32233 480.392 5.37091 480.328C5.41952 480.265 5.48103 480.213 5.55138 480.175C5.62172 480.138 5.69928 480.116 5.77883 480.11C5.85839 480.105 5.93812 480.117 6.01271 480.145C6.08729 480.174 6.155 480.218 6.21131 480.274C6.26762 480.331 6.31123 480.399 6.33923 480.474C6.36721 480.548 6.37895 480.628 6.37364 480.708L7.56513 499.306C7.57163 499.379 7.56345 499.452 7.54106 499.522C7.51867 499.592 7.48252 499.657 7.43476 499.713C7.387 499.768 7.32859 499.814 7.26298 499.847C7.19737 499.879 7.12591 499.898 7.05278 499.903L7.01704 499.915Z" fill="#3E3126"/>
<path d="M33.3631 516.589H10.7248C9.85877 516.587 9.02677 516.251 8.40123 515.65C7.7757 515.05 7.40457 514.231 7.3648 513.364L6.90012 506.114C6.89361 506.041 6.90179 505.967 6.92419 505.897C6.94658 505.827 6.98273 505.762 7.03048 505.707C7.07825 505.651 7.13665 505.606 7.20227 505.573C7.26787 505.54 7.33934 505.521 7.41246 505.517C7.48603 505.512 7.55984 505.521 7.62963 505.545C7.69944 505.569 7.76387 505.606 7.81922 505.655C7.87457 505.704 7.91976 505.763 7.95219 505.83C7.98463 505.896 8.00365 505.968 8.00821 506.042L8.4848 513.304C8.50639 513.885 8.75189 514.435 9.16966 514.838C9.58742 515.242 10.1449 515.467 10.7248 515.466H33.3631C33.943 515.47 34.5019 515.248 34.9219 514.847C35.3419 514.446 35.5904 513.897 35.6151 513.316L39.3206 457.572C39.3336 457.281 39.2872 456.991 39.1843 456.718C39.0815 456.446 38.9243 456.198 38.7223 455.989C38.5205 455.78 38.2782 455.614 38.0102 455.502C37.7422 455.39 37.4542 455.334 37.164 455.338H6.99544C6.70622 455.336 6.4196 455.393 6.15323 455.506C5.88687 455.619 5.64635 455.785 5.4465 455.995C5.24191 456.203 5.08318 456.452 4.98056 456.726C4.87795 457 4.83372 457.292 4.85076 457.583L5.95884 474.222C5.96832 474.371 5.91842 474.518 5.82009 474.63C5.72177 474.742 5.58311 474.81 5.43459 474.819C5.28607 474.829 5.13986 474.779 5.02814 474.68C4.91641 474.582 4.84832 474.443 4.83884 474.294L3.75459 457.572C3.73531 457.129 3.80542 456.688 3.96068 456.273C4.11594 455.859 4.35317 455.48 4.65811 455.16C4.96303 454.84 5.32938 454.585 5.73514 454.41C6.14089 454.235 6.57768 454.145 7.01927 454.143H37.1044C37.5459 454.143 37.983 454.232 38.3893 454.406C38.7956 454.579 39.1628 454.833 39.4688 455.152C39.7749 455.471 40.0134 455.848 40.1702 456.262C40.3269 456.676 40.3987 457.117 40.381 457.56L36.7351 513.376C36.698 514.245 36.3257 515.066 35.6967 515.666C35.0676 516.265 34.2309 516.596 33.3631 516.589Z" fill="#3E3126"/>
<path d="M8.87755 490.323C8.76576 490.327 8.65711 490.286 8.57475 490.21C8.4924 490.134 8.44287 490.029 8.43669 489.917L7.93627 482.249C7.92968 482.134 7.96838 482.02 8.0441 481.933C8.11982 481.846 8.22653 481.792 8.34138 481.783C8.39869 481.778 8.45639 481.785 8.51104 481.803C8.56571 481.821 8.61622 481.85 8.65957 481.888C8.70292 481.925 8.73824 481.972 8.7634 482.023C8.78857 482.075 8.80307 482.132 8.80606 482.189L9.30648 489.858C9.31308 489.973 9.27437 490.086 9.19866 490.173C9.12294 490.26 9.01623 490.314 8.90138 490.323H8.87755Z" fill="white"/>
<path d="M9.12891 493.993C9.53603 493.966 9.83692 493.496 9.80096 492.943C9.765 492.39 9.40581 491.964 8.99869 491.99C8.59157 492.017 8.29069 492.487 8.32665 493.04C8.3626 493.593 8.72179 494.019 9.12891 493.993Z" fill="white"/>
<path d="M9.53424 467.82C9.48719 467.831 9.43831 467.831 9.39126 467.82C9.30476 467.783 9.23626 467.713 9.20058 467.626C9.16489 467.539 9.16492 467.441 9.20062 467.354L11.1785 462.66C11.2199 462.574 11.2918 462.507 11.3799 462.472C11.4681 462.437 11.5662 462.435 11.6551 462.469C11.7425 462.508 11.8112 462.58 11.8467 462.669C11.8823 462.758 11.8819 462.858 11.8457 462.947L9.86786 467.581C9.84342 467.65 9.79829 467.71 9.73862 467.753C9.67894 467.796 9.60758 467.819 9.53424 467.82Z" fill="#3E3126"/>
<path d="M12.1668 465.551H12.0239C11.9363 465.511 11.8668 465.44 11.8292 465.352C11.7917 465.263 11.7888 465.163 11.8212 465.073L12.8817 462.565C12.8998 462.52 12.9268 462.48 12.9607 462.446C12.9948 462.412 13.0352 462.386 13.0796 462.368C13.1241 462.35 13.1716 462.341 13.2195 462.342C13.2674 462.343 13.3146 462.354 13.3583 462.373C13.4457 462.413 13.5144 462.485 13.5499 462.574C13.5855 462.663 13.5852 462.762 13.549 462.851L12.4885 465.36C12.4558 465.416 12.4089 465.464 12.3526 465.497C12.2962 465.531 12.2322 465.549 12.1668 465.551Z" fill="#3E3126"/>
<path d="M18.5891 509.924C20.0696 509.924 21.2699 508.721 21.2699 507.237C21.2699 505.753 20.0696 504.549 18.5891 504.549C17.1084 504.549 15.9082 505.753 15.9082 507.237C15.9082 508.721 17.1084 509.924 18.5891 509.924Z" fill="#EC255A"/>
<path d="M14.1082 508.67C14.4636 508.67 14.7517 508.381 14.7517 508.025C14.7517 507.669 14.4636 507.38 14.1082 507.38C13.7528 507.38 13.4648 507.669 13.4648 508.025C13.4648 508.381 13.7528 508.67 14.1082 508.67Z" fill="#EC255A"/>
<path opacity="0.45" d="M15.169 504.442C15.6296 504.442 16.0032 504.067 16.0032 503.606C16.0032 503.144 15.6296 502.77 15.169 502.77C14.7085 502.77 14.335 503.144 14.335 503.606C14.335 504.067 14.7085 504.442 15.169 504.442Z" fill="#EC255A"/>
<path opacity="0.45" d="M15.4555 500.464C15.8635 500.464 16.1942 500.133 16.1942 499.724C16.1942 499.315 15.8635 498.983 15.4555 498.983C15.0474 498.983 14.7168 499.315 14.7168 499.724C14.7168 500.133 15.0474 500.464 15.4555 500.464Z" fill="#EC255A"/>
<path opacity="0.1" d="M17.2903 496.475C17.606 496.475 17.8622 496.218 17.8622 495.901C17.8622 495.585 17.606 495.328 17.2903 495.328C16.9744 495.328 16.7183 495.585 16.7183 495.901C16.7183 496.218 16.9744 496.475 17.2903 496.475Z" fill="#EC255A"/>
<path d="M8.53125 458.085H38.3185V461.346H11.784C10.9213 461.346 10.094 461.003 9.48395 460.391C8.87395 459.779 8.53125 458.95 8.53125 458.085Z" fill="#EC255A"/>
<path d="M43.6431 458.659L42.0585 453.869H23.4831H20.6236H2.04826L0.45166 458.659" fill="#FFEEEB"/>
<path d="M0.453522 459.125H0.310543C0.248907 459.107 0.191535 459.077 0.14203 459.036C0.0925229 458.996 0.0519515 458.945 0.0228618 458.888C-0.00622784 458.831 -0.0232076 458.768 -0.0270117 458.704C-0.0308156 458.64 -0.0213618 458.576 0.000756514 458.515L1.59736 453.738C1.62885 453.648 1.68678 453.571 1.76343 453.515C1.84006 453.46 1.93177 453.429 2.02629 453.427H31.8136C31.9225 453.445 32.0216 453.501 32.0932 453.585C32.1647 453.669 32.204 453.776 32.204 453.887C32.204 453.998 32.1647 454.105 32.0932 454.189C32.0216 454.273 31.9225 454.329 31.8136 454.347H2.38374L0.894373 458.802C0.864213 458.896 0.805332 458.977 0.72615 459.035C0.64697 459.093 0.551545 459.124 0.453522 459.125Z" fill="#3E3126"/>
<path d="M10.9275 456.389H3.25435C3.15137 456.372 3.05779 456.319 2.99028 456.239C2.92279 456.159 2.88574 456.058 2.88574 455.953C2.88574 455.849 2.92279 455.747 2.99028 455.667C3.05779 455.588 3.15137 455.534 3.25435 455.517H10.9275C11.0413 455.517 11.1504 455.563 11.2309 455.643C11.3113 455.724 11.3565 455.833 11.3565 455.947C11.3565 456.062 11.3117 456.173 11.2316 456.256C11.1515 456.338 11.0424 456.386 10.9275 456.389Z" fill="white"/>
<path d="M14.0238 456.688C14.5765 456.688 15.0247 456.356 15.0247 455.947C15.0247 455.538 14.5765 455.207 14.0238 455.207C13.4711 455.207 13.0229 455.538 13.0229 455.947C13.0229 456.356 13.4711 456.688 14.0238 456.688Z" fill="white"/>
<path d="M7.15952 502.495C7.51486 502.495 7.80292 502.206 7.80292 501.85C7.80292 501.494 7.51486 501.205 7.15952 501.205C6.80418 501.205 6.51611 501.494 6.51611 501.85C6.51611 502.206 6.80418 502.495 7.15952 502.495Z" fill="#3E3126"/>
<path d="M5.53061 477.376C5.88596 477.376 6.17402 477.087 6.17402 476.731C6.17402 476.374 5.88596 476.086 5.53061 476.086C5.17527 476.086 4.88721 476.374 4.88721 476.731C4.88721 477.087 5.17527 477.376 5.53061 477.376Z" fill="#3E3126"/>
<path d="M41.7983 459.244H2.31234C2.19114 459.244 2.07471 459.196 1.98791 459.112C1.90109 459.027 1.85077 458.911 1.84766 458.79C1.85068 458.667 1.90061 458.551 1.98711 458.464C2.0736 458.377 2.19005 458.327 2.31234 458.324H41.7983C41.9195 458.327 42.0346 458.378 42.1192 458.465C42.2038 458.552 42.2511 458.668 42.2511 458.79C42.2511 458.91 42.2033 459.026 42.1185 459.111C42.0335 459.196 41.9184 459.244 41.7983 459.244Z" fill="#3E3126"/>
<path d="M43.6549 459.125C43.5568 459.124 43.4614 459.093 43.3823 459.035C43.3031 458.977 43.2442 458.895 43.2141 458.802L41.7009 454.323H35.5766C35.4676 454.305 35.3685 454.249 35.297 454.165C35.2254 454.081 35.186 453.974 35.186 453.863C35.186 453.752 35.2254 453.645 35.297 453.561C35.3685 453.477 35.4676 453.421 35.5766 453.403H42.0583C42.1528 453.405 42.2445 453.436 42.3211 453.491C42.3978 453.547 42.4558 453.624 42.4872 453.714L44.0838 458.492C44.122 458.607 44.1134 458.733 44.06 458.843C44.0065 458.952 43.9124 459.036 43.7979 459.077L43.6549 459.125Z" fill="#3E3126"/>
<path d="M23.4385 503.319C24.3071 503.319 25.0113 502.613 25.0113 501.742C25.0113 500.871 24.3071 500.166 23.4385 500.166C22.5698 500.166 21.8657 500.871 21.8657 501.742C21.8657 502.613 22.5698 503.319 23.4385 503.319Z" fill="#EC255A"/>
<path d="M20.1588 503.773C20.5734 503.773 20.9095 503.436 20.9095 503.02C20.9095 502.605 20.5734 502.268 20.1588 502.268C19.7442 502.268 19.4082 502.605 19.4082 503.02C19.4082 503.436 19.7442 503.773 20.1588 503.773Z" fill="#EC255A"/>
<path opacity="0.45" d="M18.7785 499.557C19.1272 499.557 19.41 499.273 19.41 498.923C19.41 498.574 19.1272 498.29 18.7785 498.29C18.4297 498.29 18.147 498.574 18.147 498.923C18.147 499.273 18.4297 499.557 18.7785 499.557Z" fill="#EC255A"/>
<path opacity="0.6" d="M18.5875 501.563C18.9363 501.563 19.219 501.28 19.219 500.93C19.219 500.581 18.9363 500.297 18.5875 500.297C18.2388 500.297 17.9561 500.581 17.9561 500.93C17.9561 501.28 18.2388 501.563 18.5875 501.563Z" fill="#EC255A"/>
<path d="M35.1396 473.398L35.8069 471.212L43.6826 468.346C43.6826 468.346 48.7226 472.729 48.3294 472.801C47.9362 472.873 35.1396 473.398 35.1396 473.398Z" fill="white"/>
<path opacity="0.45" d="M19.3643 500.584C19.7592 500.584 20.0792 500.263 20.0792 499.867C20.0792 499.471 19.7592 499.15 19.3643 499.15C18.9696 499.15 18.6494 499.471 18.6494 499.867C18.6494 500.263 18.9696 500.584 19.3643 500.584Z" fill="#EC255A"/>
<path d="M53.0473 479.49L47.9358 518.501C47.8146 519.118 47.4836 519.675 46.9992 520.076C46.5147 520.476 45.9068 520.696 45.2788 520.698H26.7511C26.1195 520.699 25.5071 520.481 25.0182 520.08C24.5294 519.68 24.1943 519.121 24.0703 518.501L18.9707 479.49" fill="white"/>
<path d="M47.0766 479.621L46.8383 481.054H19.2314V482.416H43.9787C44.297 482.418 44.6114 482.488 44.9002 482.622C45.189 482.756 45.4456 482.951 45.6525 483.194C45.8594 483.436 46.0118 483.721 46.0992 484.028C46.1866 484.335 46.2071 484.657 46.1591 484.972L42.2629 507.667H22.9727L23.6757 510.175H38.7242C40.3446 510.175 41.5838 514.797 41.3097 516.41L40.9285 518.644C40.7992 519.259 40.4616 519.81 39.973 520.204C39.4844 520.598 38.8747 520.811 38.2476 520.806H45.0748C45.7043 520.804 46.314 520.584 46.8004 520.184C47.2868 519.783 47.6201 519.227 47.7438 518.608L52.8553 479.597L47.0766 479.621Z" fill="#FFEDE1"/>
<path d="M45.2768 521.283H26.7491C25.984 521.283 25.2425 521.017 24.65 520.532C24.0574 520.047 23.65 519.371 23.4964 518.62L18.3849 479.562C18.3644 479.403 18.4074 479.243 18.5046 479.116C18.6019 478.99 18.7452 478.907 18.9032 478.887C19.0612 478.866 19.2208 478.909 19.3471 479.007C19.4733 479.104 19.5559 479.248 19.5764 479.406L24.6521 518.417C24.7579 518.895 25.0236 519.323 25.4049 519.629C25.7863 519.935 26.2605 520.102 26.7491 520.101H45.2768C45.7634 520.099 46.2349 519.931 46.6138 519.625C46.9927 519.319 47.2565 518.893 47.3619 518.417L52.4257 479.406C52.4465 479.253 52.5271 479.114 52.65 479.02C52.7728 478.926 52.9278 478.884 53.0811 478.905C53.235 478.925 53.3748 479.006 53.4706 479.129C53.5662 479.251 53.6103 479.407 53.5934 479.562L48.5177 518.572C48.3742 519.33 47.9727 520.015 47.3816 520.51C46.7906 521.004 46.0466 521.278 45.2768 521.283Z" fill="#3E3126"/>
<path d="M54.5848 488.424L51.5941 505.803C51.5065 506.325 51.2369 506.799 50.8332 507.141C50.4294 507.482 49.9179 507.668 49.3899 507.667H22.6409C22.1149 507.665 21.6062 507.478 21.2049 507.137C20.8038 506.796 20.5358 506.323 20.4486 505.803L17.3865 488.424C17.3331 488.102 17.3499 487.772 17.4359 487.458C17.5218 487.143 17.6748 486.851 17.8844 486.601C18.0938 486.351 18.3549 486.15 18.6494 486.011C18.9441 485.872 19.2652 485.799 19.5907 485.796H52.4282C52.7503 485.804 53.067 485.88 53.3569 486.022C53.6467 486.163 53.9026 486.365 54.1073 486.615C54.312 486.864 54.4607 487.155 54.5431 487.467C54.6255 487.779 54.6397 488.106 54.5848 488.424Z" fill="#7275DA"/>
<path d="M42.2607 507.667C45.1203 501.348 46.0138 485.82 46.0138 485.82H52.424C52.7485 485.819 53.0692 485.889 53.3639 486.025C53.6585 486.162 53.9199 486.361 54.1299 486.609C54.3398 486.857 54.4932 487.148 54.5793 487.461C54.6653 487.775 54.6821 488.103 54.6283 488.424L51.59 505.791C51.505 506.316 51.2365 506.792 50.8326 507.136C50.4285 507.48 49.9156 507.668 49.3857 507.667" fill="#EF4371"/>
<path opacity="0.25" d="M51.9013 506.675C51.6892 506.923 51.426 507.122 51.1298 507.258C50.8336 507.394 50.5114 507.465 50.1856 507.464H34.5532C41.4639 499.377 43.8588 491.781 44.24 485.605H46.7779L43.0605 507.452H50.2094C50.53 507.449 50.8466 507.379 51.1382 507.245C51.4297 507.111 51.6898 506.917 51.9013 506.675Z" fill="#EF4371"/>
<path d="M53.83 493.25H53.7466C53.6894 493.24 53.6349 493.218 53.5859 493.187C53.537 493.156 53.4948 493.115 53.4615 493.067C53.4283 493.02 53.4048 492.966 53.3924 492.909C53.38 492.852 53.3789 492.793 53.3892 492.736L54.1517 488.353C54.1938 488.094 54.1805 487.829 54.1127 487.576C54.0449 487.322 53.9242 487.086 53.7585 486.883C53.5952 486.686 53.3917 486.525 53.1616 486.411C52.9317 486.298 52.6803 486.235 52.4241 486.227H40.3066C40.2037 486.209 40.11 486.156 40.0426 486.076C39.975 485.996 39.938 485.895 39.938 485.791C39.938 485.686 39.975 485.585 40.0426 485.505C40.11 485.425 40.2037 485.372 40.3066 485.355H52.4241C52.8148 485.353 53.2009 485.438 53.5552 485.603C53.9094 485.768 54.223 486.01 54.4734 486.31C54.7269 486.606 54.9108 486.954 55.0119 487.331C55.1129 487.707 55.1284 488.101 55.0573 488.484L54.3066 492.88C54.289 492.99 54.2299 493.09 54.1414 493.159C54.0528 493.228 53.9416 493.26 53.83 493.25Z" fill="#3E3126"/>
<path d="M18.9567 497.944C18.8518 497.943 18.7505 497.906 18.6701 497.838C18.5896 497.77 18.5352 497.677 18.5159 497.574L16.955 488.484C16.8911 488.1 16.9112 487.707 17.014 487.331C17.1167 486.955 17.2997 486.607 17.5502 486.309C17.8006 486.012 18.1126 485.772 18.4644 485.607C18.8164 485.442 19.1998 485.356 19.5882 485.355H33.3618C33.4648 485.372 33.5583 485.425 33.6259 485.505C33.6933 485.585 33.7304 485.686 33.7304 485.791C33.7304 485.895 33.6933 485.996 33.6259 486.076C33.5583 486.156 33.4648 486.209 33.3618 486.227H19.5882C19.3269 486.229 19.0691 486.287 18.8326 486.399C18.5961 486.51 18.3864 486.671 18.218 486.872C18.0557 487.076 17.9406 487.313 17.8809 487.567C17.8211 487.821 17.8183 488.085 17.8725 488.341L19.4333 497.43C19.4435 497.487 19.4423 497.545 19.4298 497.601C19.4172 497.657 19.3935 497.71 19.3603 497.757C19.3269 497.804 19.2846 497.843 19.2358 497.873C19.1869 497.903 19.1325 497.923 19.0759 497.932L18.9567 497.944Z" fill="#3E3126"/>
<path d="M49.3869 508.097H22.638C22.0089 508.095 21.4003 507.872 20.9189 507.466C20.4374 507.059 20.1139 506.496 20.0048 505.875L19.4686 502.758C19.4527 502.643 19.4818 502.527 19.5501 502.434C19.6183 502.341 19.7201 502.279 19.8337 502.26C19.9474 502.241 20.0638 502.268 20.158 502.334C20.2524 502.4 20.3171 502.501 20.3384 502.614L20.8746 505.72C20.945 506.138 21.1608 506.517 21.4837 506.79C21.8064 507.063 22.2155 507.213 22.638 507.213H49.4465C49.8705 507.214 50.2811 507.064 50.6059 506.791C50.9307 506.518 51.1489 506.139 51.2218 505.72L52.4252 498.35C52.4353 498.293 52.4566 498.238 52.4878 498.189C52.519 498.14 52.5596 498.098 52.6072 498.064C52.6548 498.031 52.7084 498.008 52.7652 497.995C52.8219 497.983 52.8805 497.982 52.9376 497.992C53.0516 498.015 53.1523 498.081 53.2189 498.177C53.2854 498.273 53.3126 498.39 53.295 498.505L52.0201 505.875C51.9134 506.497 51.5903 507.062 51.1085 507.468C50.6266 507.875 50.0169 508.097 49.3869 508.097Z" fill="#3E3126"/>
<path d="M46.9835 491.9H46.8882C46.8267 491.876 46.7773 491.829 46.7506 491.768C46.7238 491.708 46.7219 491.639 46.7452 491.577L48.1035 488.341C48.1164 488.31 48.1355 488.282 48.1593 488.258C48.1832 488.235 48.2116 488.217 48.2427 488.204C48.2738 488.192 48.3069 488.186 48.3404 488.187C48.3738 488.188 48.4066 488.195 48.4371 488.209C48.4675 488.221 48.4952 488.239 48.5184 488.262C48.5416 488.284 48.56 488.312 48.5723 488.342C48.5845 488.372 48.5905 488.405 48.5898 488.437C48.5891 488.47 48.5817 488.502 48.5682 488.532L47.198 491.769C47.178 491.808 47.1474 491.842 47.1093 491.865C47.0715 491.888 47.0279 491.9 46.9835 491.9Z" fill="#3E3126"/>
<path d="M48.8497 490.335H48.7544C48.6929 490.311 48.6435 490.264 48.6168 490.204C48.59 490.143 48.5881 490.075 48.6114 490.013L49.3502 488.281C49.3618 488.25 49.3796 488.223 49.4024 488.199C49.4252 488.176 49.4525 488.158 49.4827 488.145C49.5128 488.133 49.5451 488.127 49.5776 488.128C49.6101 488.129 49.6422 488.136 49.6719 488.149C49.7332 488.174 49.7827 488.221 49.8095 488.281C49.8363 488.342 49.8382 488.41 49.8148 488.472L49.0761 490.204C49.0541 490.245 49.0213 490.278 48.9814 490.302C48.9415 490.325 48.8958 490.336 48.8497 490.335Z" fill="#3E3126"/>
<path d="M44.0633 503.451C44.2357 502.604 43.9781 501.836 43.4881 501.736C42.9981 501.636 42.4611 502.241 42.2888 503.088C42.1166 503.935 42.3742 504.702 42.8641 504.803C43.3542 504.903 43.891 504.297 44.0633 503.451Z" fill="#EF4371"/>
<path d="M42.4435 501.217C42.6936 501.217 42.8963 501.014 42.8963 500.763C42.8963 500.512 42.6936 500.309 42.4435 500.309C42.1934 500.309 41.9907 500.512 41.9907 500.763C41.9907 501.014 42.1934 501.217 42.4435 501.217Z" fill="#EF4371"/>
<path d="M40.9182 506.568C41.2538 506.568 41.5259 506.295 41.5259 505.959C41.5259 505.622 41.2538 505.35 40.9182 505.35C40.5827 505.35 40.3105 505.622 40.3105 505.959C40.3105 506.295 40.5827 506.568 40.9182 506.568Z" fill="#EF4371"/>
<path opacity="0.35" d="M40.6773 503.415C40.8747 503.415 41.0347 503.254 41.0347 503.056C41.0347 502.858 40.8747 502.698 40.6773 502.698C40.48 502.698 40.3198 502.858 40.3198 503.056C40.3198 503.254 40.48 503.415 40.6773 503.415Z" fill="#EF4371"/>
<path d="M43.5277 499.807C44.3766 499.807 45.0648 499.117 45.0648 498.267C45.0648 497.415 44.3766 496.726 43.5277 496.726C42.6788 496.726 41.9907 497.415 41.9907 498.267C41.9907 499.117 42.6788 499.807 43.5277 499.807Z" fill="#EF4371"/>
<path d="M41.5854 495.722C41.796 495.722 41.9667 495.551 41.9667 495.34C41.9667 495.129 41.796 494.958 41.5854 494.958C41.3748 494.958 41.2041 495.129 41.2041 495.34C41.2041 495.551 41.3748 495.722 41.5854 495.722Z" fill="#EF4371"/>
<path opacity="0.35" d="M40.7399 499.007C41.1544 499.007 41.4905 498.67 41.4905 498.254C41.4905 497.839 41.1544 497.502 40.7399 497.502C40.3254 497.502 39.9893 497.839 39.9893 498.254C39.9893 498.67 40.3254 499.007 40.7399 499.007Z" fill="#EF4371"/>
<path opacity="0.35" d="M42.8952 493.728C43.3097 493.728 43.6458 493.391 43.6458 492.975C43.6458 492.559 43.3097 492.223 42.8952 492.223C42.4806 492.223 42.1445 492.559 42.1445 492.975C42.1445 493.391 42.4806 493.728 42.8952 493.728Z" fill="#EF4371"/>
<path d="M48.2089 472.729C48.0888 472.729 47.9734 472.682 47.8872 472.598L44.5868 469.444C44.4339 469.291 44.2423 469.182 44.0323 469.129C43.8224 469.077 43.6022 469.082 43.3953 469.146C43.3335 469.173 43.2667 469.187 43.1993 469.187C43.1317 469.186 43.0651 469.171 43.0039 469.143C42.9425 469.115 42.8878 469.074 42.8435 469.023C42.7992 468.972 42.766 468.912 42.7465 468.847C42.727 468.782 42.7214 468.714 42.7301 468.647C42.7388 468.58 42.7616 468.516 42.797 468.458C42.8324 468.4 42.8797 468.351 42.9356 468.313C42.9915 468.275 43.0547 468.25 43.1212 468.238C43.4917 468.12 43.8869 468.102 44.266 468.188C44.6452 468.275 44.9946 468.461 45.2778 468.728L48.5663 471.905C48.6544 471.996 48.7037 472.118 48.7037 472.245C48.7037 472.373 48.6544 472.494 48.5663 472.586C48.52 472.633 48.4642 472.671 48.4027 472.695C48.3411 472.72 48.2751 472.732 48.2089 472.729Z" fill="#3E3126"/>
<path d="M34.866 472.443C34.773 472.442 34.682 472.414 34.6039 472.364C34.5258 472.313 34.4638 472.241 34.4252 472.156C34.378 472.039 34.3792 471.907 34.4283 471.791C34.4774 471.675 34.5706 471.583 34.6873 471.535L40.2873 469.146C40.4044 469.097 40.5359 469.096 40.6537 469.143C40.7715 469.19 40.8666 469.281 40.9188 469.397C40.9667 469.512 40.9673 469.642 40.9205 469.759C40.8737 469.875 40.7832 469.968 40.6686 470.018L35.0567 472.407C34.9958 472.43 34.9312 472.442 34.866 472.443Z" fill="#3E3126"/>
<path d="M22.999 471.953H49.2117C49.6889 471.953 50.1466 472.143 50.4839 472.481C50.8213 472.819 51.0109 473.278 51.0109 473.757V478.367H21.2236V473.745C21.2267 473.272 21.4144 472.82 21.7463 472.485C22.0783 472.15 22.528 471.959 22.999 471.953Z" fill="white"/>
<path d="M53.7379 481.055H18.2316C18.0703 481.054 17.9122 481.01 17.7731 480.929C17.6339 480.847 17.5186 480.73 17.4389 480.59C17.3591 480.449 17.3177 480.29 17.3189 480.128C17.3199 479.967 17.3636 479.808 17.4452 479.669C18.067 478.589 18.9588 477.691 20.033 477.062C21.107 476.434 22.326 476.097 23.5694 476.086H48.4001C49.6452 476.09 50.8669 476.424 51.9422 477.053C53.0174 477.682 53.9082 478.584 54.5243 479.669C54.61 479.808 54.6568 479.967 54.6599 480.13C54.6629 480.293 54.622 480.454 54.5416 480.596C54.4611 480.738 54.3439 480.855 54.2026 480.936C54.0612 481.016 53.9007 481.057 53.7379 481.055Z" fill="white"/>
<path d="M47.4694 480.875C47.3741 481.27 46.9571 480.672 46.9094 481.09H37.7468C37.8142 480.093 37.5953 479.098 37.1161 478.221C36.6367 477.345 35.9169 476.625 35.0422 476.145C33.6958 475.226 34.3988 473.064 32.6592 472.108L42.8941 471.953C43.3964 471.91 43.9002 472.017 44.3419 472.261C44.7834 472.505 45.143 472.874 45.3751 473.323C45.6072 473.772 45.7013 474.279 45.6457 474.782C45.5901 475.284 45.3871 475.759 45.0626 476.145C44.6456 476.707 48.4464 476.528 47.4694 480.875Z" fill="#FFEDE1"/>
<path d="M21.1969 476.981C21.0768 476.981 20.9616 476.933 20.8768 476.848C20.7918 476.763 20.7441 476.648 20.7441 476.528V473.744C20.7472 473.148 20.9859 472.577 21.4078 472.156C21.8298 471.735 22.4008 471.499 22.9961 471.499H49.2088C49.804 471.499 50.3749 471.735 50.797 472.156C51.2189 472.577 51.4575 473.148 51.4607 473.744C51.4607 473.865 51.413 473.98 51.3281 474.065C51.2432 474.15 51.128 474.198 51.008 474.198C50.8879 474.198 50.7727 474.15 50.6878 474.065C50.6029 473.98 50.5552 473.865 50.5552 473.744C50.552 473.389 50.4088 473.048 50.1566 472.798C49.9044 472.547 49.5638 472.407 49.2088 472.407H22.9961C22.6421 472.407 22.3026 472.548 22.0524 472.798C21.8022 473.049 21.6616 473.39 21.6616 473.744V476.528C21.6584 476.649 21.6081 476.764 21.5213 476.849C21.4345 476.934 21.3181 476.981 21.1969 476.981Z" fill="#3E3126"/>
<path d="M53.7392 481.508H18.2328C17.9911 481.507 17.7539 481.443 17.5448 481.321C17.3358 481.2 17.1621 481.026 17.0413 480.816C16.9212 480.605 16.8579 480.366 16.8579 480.123C16.8579 479.88 16.9212 479.641 17.0413 479.43C17.7119 478.295 18.6649 477.353 19.8074 476.698C20.9498 476.042 22.2425 475.696 23.5587 475.692H38.1306C38.2397 475.709 38.3388 475.765 38.4103 475.849C38.4819 475.934 38.5212 476.041 38.5212 476.151C38.5212 476.262 38.4819 476.369 38.4103 476.453C38.3388 476.538 38.2397 476.594 38.1306 476.611H23.5706C22.4193 476.62 21.2898 476.926 20.2917 477.502C19.2937 478.078 18.4613 478.902 17.8753 479.896C17.8356 479.967 17.8149 480.047 17.8149 480.129C17.8149 480.21 17.8356 480.291 17.8753 480.362C17.9132 480.433 17.97 480.492 18.0395 480.532C18.1091 480.572 18.1883 480.591 18.2685 480.589H53.7392C53.8204 480.589 53.9002 480.568 53.9711 480.528C54.042 480.488 54.1016 480.431 54.1443 480.362C54.1863 480.291 54.2085 480.211 54.2085 480.129C54.2085 480.047 54.1863 479.966 54.1443 479.896C53.556 478.894 52.7165 478.063 51.709 477.487C50.7016 476.911 49.5612 476.609 48.4013 476.611H43.814C43.7477 476.622 43.6796 476.618 43.6148 476.6C43.55 476.582 43.49 476.55 43.4387 476.506C43.3875 476.462 43.3463 476.408 43.318 476.347C43.2898 476.286 43.2753 476.219 43.2753 476.151C43.2753 476.084 43.2898 476.017 43.318 475.956C43.3463 475.895 43.3875 475.84 43.4387 475.797C43.49 475.753 43.55 475.721 43.6148 475.703C43.6796 475.685 43.7477 475.681 43.814 475.692H48.4013C49.718 475.693 51.0116 476.039 52.1545 476.695C53.2973 477.35 54.2501 478.293 54.9187 479.43C55.0449 479.639 55.1116 479.879 55.1116 480.123C55.1116 480.367 55.0449 480.607 54.9187 480.816C54.7998 481.025 54.6284 481.198 54.4213 481.32C54.2143 481.442 53.9791 481.507 53.7392 481.508Z" fill="#3E3126"/>
<path d="M21.6365 499.222C21.5486 499.221 21.4639 499.189 21.3966 499.133C21.3293 499.076 21.2835 498.998 21.2671 498.911L20.2543 493.704C20.244 493.654 20.2434 493.603 20.2527 493.554C20.2621 493.504 20.2811 493.457 20.3089 493.414C20.3365 493.372 20.3723 493.336 20.4141 493.308C20.4559 493.279 20.5029 493.26 20.5522 493.25C20.6514 493.232 20.7538 493.253 20.8382 493.308C20.9224 493.364 20.9821 493.45 21.005 493.548L22.0654 498.756C22.0759 498.806 22.0765 498.857 22.0671 498.906C22.0578 498.956 22.0386 499.003 22.0109 499.045C21.9832 499.088 21.9474 499.124 21.9057 499.152C21.8639 499.18 21.817 499.2 21.7675 499.21L21.6365 499.222Z" fill="white"/>
<path d="M20.2807 492.196C20.5578 492.139 20.7205 491.789 20.6439 491.414C20.5673 491.039 20.2805 490.782 20.0032 490.838C19.7261 490.895 19.5634 491.245 19.64 491.62C19.7167 491.995 20.0034 492.253 20.2807 492.196Z" fill="white"/>
<path d="M43.421 503.486H51.2372C51.3447 503.486 51.4477 503.529 51.5236 503.605C51.5996 503.681 51.6423 503.784 51.6423 503.892C51.6423 504 51.5996 504.103 51.5236 504.179C51.4477 504.256 51.3447 504.298 51.2372 504.298H43.3734C43.2659 504.298 43.1628 504.256 43.0869 504.179C43.0109 504.103 42.9683 504 42.9683 503.892C42.9683 503.784 43.0109 503.681 43.0869 503.605C43.1628 503.529 43.2659 503.486 43.3734 503.486H43.421Z" fill="#3E3126"/>
<path d="M39.8221 503.486H40.9302C41.0377 503.486 41.1407 503.529 41.2166 503.605C41.2926 503.681 41.3353 503.784 41.3353 503.892C41.3353 504 41.2926 504.103 41.2166 504.179C41.1407 504.256 41.0377 504.298 40.9302 504.298H39.8221C39.7147 504.298 39.6117 504.256 39.5357 504.179C39.4598 504.103 39.417 504 39.417 503.892C39.417 503.784 39.4598 503.681 39.5357 503.605C39.6117 503.529 39.7147 503.486 39.8221 503.486Z" fill="#3E3126"/>
<path d="M19.1727 500.428C19.5411 500.428 19.8398 500.129 19.8398 499.76C19.8398 499.39 19.5411 499.091 19.1727 499.091C18.8042 499.091 18.5054 499.39 18.5054 499.76C18.5054 500.129 18.8042 500.428 19.1727 500.428Z" fill="#3E3126"/>
<path d="M40.2472 476.826C40.6157 476.826 40.9144 476.527 40.9144 476.157C40.9144 475.788 40.6157 475.488 40.2472 475.488C39.8788 475.488 39.5801 475.788 39.5801 476.157C39.5801 476.527 39.8788 476.826 40.2472 476.826Z" fill="#3E3126"/>
<path d="M53.4744 496.415C53.8429 496.415 54.1416 496.115 54.1416 495.746C54.1416 495.377 53.8429 495.077 53.4744 495.077C53.1058 495.077 52.8071 495.377 52.8071 495.746C52.8071 496.115 53.1058 496.415 53.4744 496.415Z" fill="#3E3126"/>
</g>
<g clip-path="url(#clip2_122_1644)">
<path d="M469.563 494.698C468.389 494.929 466.985 495.437 466.847 496.639C466.686 497.979 468.32 498.764 469.632 499.042C474.581 500.127 479.69 500.266 484.777 500.405C511.66 501.052 538.544 501.167 565.428 500.728C565.036 497.424 561.123 495.992 557.878 495.368C543.929 492.688 529.498 494.213 515.803 491.371C501.372 488.344 483.81 491.764 469.563 494.698Z" fill="url(#paint0_linear_122_1644)"/>
<path d="M469.563 494.698C468.389 494.929 466.985 495.437 466.847 496.639C466.686 497.979 468.32 498.764 469.632 499.042C474.581 500.127 479.69 500.266 484.777 500.405C511.66 501.052 538.544 501.167 565.428 500.728C565.036 497.424 561.123 495.992 557.878 495.368C543.929 492.688 529.498 494.213 515.803 491.371C501.372 488.344 483.81 491.764 469.563 494.698Z" fill="#575BD3"/>
<path d="M542.776 472.934C543.076 472.841 543.398 472.934 543.697 473.026C545.009 473.465 546.298 474.043 547.449 474.805C548.024 475.175 548.6 475.591 548.876 476.215C549.129 476.792 549.106 477.439 549.06 478.04C548.646 485.479 548.254 492.942 547.84 500.382C547.817 500.867 547.748 501.398 547.38 501.699C546.919 502.045 546.275 501.814 545.769 501.583C540.82 499.411 535.895 497.216 530.946 495.044C528.575 494.005 526.136 492.896 524.386 490.978C525.721 488.021 528.529 486.057 531.107 484.07C535.112 480.974 538.795 477.416 542.04 473.534C542.224 473.303 542.454 473.026 542.776 472.934Z" fill="#DDC199"/>
<path d="M566.093 434.604C564.873 434.327 563.63 434.049 562.41 433.772C555.229 447.011 548.876 460.712 543.398 474.759C544.664 475.568 546.344 476.399 547.564 475.521C548.071 475.152 548.37 474.551 548.646 473.974C554.861 461.035 560.684 447.912 566.093 434.604Z" fill="#BDB39B"/>
<g opacity="0.26">
<path opacity="0.26" d="M543.464 499.018C543.441 499.273 543.832 499.365 543.878 499.111C544.868 491.602 546.272 484.232 548.09 476.885C548.205 476.422 547.492 476.284 547.377 476.746C545.489 484.024 544.177 491.51 543.464 499.018Z" fill="#272525"/>
<path opacity="0.26" d="M535.665 495.714C538.703 489.292 541.925 482.961 545.332 476.723C545.539 476.353 544.941 476.053 544.733 476.422C541.189 482.707 537.99 489.176 535.066 495.761C535.112 495.807 535.135 495.853 535.158 495.899C535.32 495.784 535.481 495.738 535.665 495.714Z" fill="#272525"/>
<path opacity="0.26" d="M530.713 491.486C535.8 486.681 540.334 481.343 544.293 475.567C544.546 475.175 543.902 474.851 543.648 475.244C539.759 480.997 535.293 486.311 530.299 491.117C530.046 491.371 530.46 491.74 530.713 491.486Z" fill="#272525"/>
</g>
<path d="M495.432 479.518C495.455 479.172 495.501 478.802 495.524 478.455C492.485 476.376 487.146 477.046 483.923 478.109C480.471 479.241 480.471 481.367 480.517 484.971C480.54 487.004 480.724 489.291 482.289 490.608C483.486 491.625 485.166 491.763 486.731 491.856C488.135 491.948 489.516 492.018 490.92 492.11C491.887 492.156 492.969 492.179 493.728 491.556C494.488 490.909 494.603 489.823 494.695 488.829C494.948 485.71 495.201 482.614 495.432 479.518Z" fill="#2F3F47"/>
<path d="M499.14 479.518C499.117 479.172 499.071 478.802 499.048 478.455C502.086 476.376 507.426 477.046 510.648 478.109C514.101 479.241 514.101 481.367 514.055 484.971C514.032 487.004 513.847 489.291 512.282 490.608C511.086 491.625 509.405 491.763 507.84 491.856C506.436 491.948 505.055 492.018 503.651 492.11C502.684 492.156 501.603 492.179 500.843 491.556C500.084 490.909 499.969 489.823 499.877 488.829C499.646 485.71 499.393 482.614 499.14 479.518Z" fill="#2F3F47"/>
<path d="M473.219 471.802C472.459 471.963 471.723 472.194 471.009 472.495C470.48 472.703 469.95 472.98 469.582 473.396C469.076 473.996 468.938 474.828 468.846 475.637C468.73 476.7 468.684 477.762 468.707 478.825C468.707 479.726 468.777 480.651 469.237 481.413C469.881 482.476 471.147 482.961 472.344 483.261C474.623 483.839 476.993 483.977 479.341 484.093C493.542 484.786 507.79 484.324 521.922 482.73C522.497 482.661 523.142 482.568 523.533 482.129C523.763 481.875 523.878 481.528 523.993 481.205C524.73 478.848 525.213 475.637 523.625 473.442C522.267 471.571 519.758 472.633 517.871 472.61C515.938 472.587 513.981 472.425 512.048 472.356C508.273 472.194 504.498 472.033 500.724 471.917C495.407 471.732 490.067 471.571 484.75 471.432C481.159 471.363 476.924 470.97 473.219 471.802Z" fill="#516770"/>
<path d="M503.739 421.088C513.383 421.134 523.004 421.342 532.648 421.55C532.418 416.398 532.05 411.245 530.945 406.209C529.035 397.383 524.661 388.765 517.273 383.613C505.949 375.711 487.973 376.751 475.774 384.56C470.641 387.841 466.522 392.346 464.358 397.868C461.872 404.175 461.205 411.061 460.813 417.83C460.767 418.731 460.721 419.609 460.675 420.51C474.992 419.956 489.4 421.042 503.739 421.088Z" fill="#EAF1F2"/>
<path d="M502.967 423.676C488.835 423.652 474.657 422.636 460.525 423.144C459.834 438.532 460.479 453.988 462.458 469.284C462.734 471.386 463.08 473.581 464.461 475.244C466.601 477.809 470.307 476.677 473.184 476.677C478.04 476.677 483.035 476.885 487.938 477C497.19 477.208 506.374 477.231 515.581 476.192C519.954 475.707 528.792 477.047 530.887 473.096C532.613 469.884 531.899 463.369 532.152 459.788C532.452 455.536 532.682 451.308 532.82 447.057C533.073 439.41 533.027 431.762 532.728 424.091C522.831 423.907 512.887 423.676 502.967 423.676Z" fill="#E2ECED"/>
<path d="M536.344 448.582C536.528 448.42 536.551 448.143 536.574 447.912C537.057 441.512 537.472 435.112 537.771 428.712C537.794 428.158 537.794 427.511 537.357 427.141C537.034 426.887 536.62 426.864 536.206 426.864C534.779 426.841 533.375 426.818 531.948 426.818C531.05 434.096 530.682 441.42 530.866 448.744C532.454 448.744 534.019 448.767 535.607 448.767C535.861 448.767 536.137 448.767 536.344 448.582Z" fill="#2F3F47"/>
<path d="M543.681 463.323C543.865 462.792 544.072 462.237 544.487 461.844C544.809 461.544 545.246 461.359 545.66 461.22C547.456 460.573 549.297 460.088 551.161 459.765C552.611 460.758 553.923 461.937 555.051 463.3C555.258 463.554 555.465 463.831 555.512 464.155C555.557 464.409 555.488 464.663 555.419 464.917C554.683 467.759 553.969 470.601 553.233 473.443C552.151 473.581 551.069 473.604 550.01 473.466C550.425 471.733 550.839 470 551.23 468.29C551.622 466.65 551.921 464.64 550.678 463.485C549.412 463.808 548.169 464.155 546.903 464.478C546.696 464.524 546.466 464.594 546.282 464.732C546.075 464.917 545.983 465.194 545.89 465.449C545.361 467.066 544.97 468.729 544.694 470.416C543.888 470.185 543.083 469.977 542.277 469.746C542.208 467.551 542.944 465.402 543.681 463.323Z" fill="#2F3F47"/>
<path d="M553.462 460.828C553.531 460.758 553.554 460.666 553.577 460.597C553.807 459.557 554.038 458.517 554.291 457.501C552.68 457.131 551.023 456.877 549.388 456.738C549.135 457.593 548.974 458.494 548.905 459.395C548.882 459.58 548.882 459.811 549.02 459.95C549.112 460.042 549.227 460.065 549.342 460.111C550.562 460.481 551.828 460.758 553.117 460.92C553.209 460.897 553.347 460.92 553.462 460.828Z" fill="#516770"/>
<path d="M555.076 456.785C556.043 455.144 555.26 450.824 555.26 449.091C555.237 446.711 555.237 444.308 554.685 441.998C554.132 439.687 553.004 437.423 551.14 435.968C550.081 435.136 548.838 434.605 547.549 434.166C543.706 432.849 539.586 432.41 535.558 432.895C535.236 432.941 534.89 432.987 534.66 433.218C534.407 433.449 534.361 433.819 534.315 434.166C534.131 435.483 533.878 436.938 533.947 438.278C534.062 440.635 533.579 439.988 535.282 440.658C536.594 441.166 539.056 440.75 540.552 441.097C542.302 441.49 544.005 442.09 545.708 442.691C546.79 443.061 547.941 443.523 548.493 444.516C548.792 445.048 548.885 445.695 548.954 446.319C549.368 450.015 549.552 453.735 549.529 457.455C549.529 458.102 554.27 457.778 554.892 457.062C554.961 456.969 555.007 456.877 555.076 456.785Z" fill="#E2ECED"/>
<g opacity="0.15">
<path opacity="0.15" d="M547.018 435.229C546.88 437.447 546.305 439.457 545.43 441.49C545.269 441.883 545.752 442.183 546.006 441.837C547.386 439.896 548.1 437.585 548.353 435.229C548.445 434.397 547.087 434.374 547.018 435.229Z" fill="#272525"/>
<path opacity="0.15" d="M550.541 436.823C550.15 438.972 549.183 440.381 547.664 441.906C547.457 442.114 547.733 442.46 547.963 442.298C548.999 441.652 549.965 441.236 550.702 440.196C551.392 439.226 551.853 438.186 551.991 437.008C552.083 436.199 550.702 436.014 550.541 436.823Z" fill="#272525"/>
</g>
<path d="M458.266 427.003C458.082 427.164 458.059 427.442 458.036 427.673C457.552 434.073 457.138 440.472 456.839 446.872C456.816 447.427 456.816 448.074 457.253 448.443C457.575 448.698 457.99 448.721 458.404 448.721C459.831 448.744 461.235 448.767 462.662 448.767C463.56 441.489 463.928 434.165 463.744 426.841C462.156 426.841 460.59 426.818 459.002 426.818C458.749 426.818 458.45 426.818 458.266 427.003Z" fill="#2F3F47"/>
<path d="M440.425 419.124C440.494 419.679 440.563 420.279 440.356 420.787C440.195 421.203 439.896 421.55 439.574 421.874C438.262 423.237 436.835 424.507 435.293 425.639C433.543 425.409 431.84 424.923 430.252 424.207C429.953 424.068 429.631 423.93 429.446 423.653C429.308 423.445 429.239 423.19 429.193 422.936C428.595 420.071 427.973 417.183 427.375 414.318C428.273 413.718 429.239 413.209 430.252 412.84C430.643 414.572 431.058 416.305 431.449 418.038C431.84 419.679 432.462 421.619 434.073 422.081C435.062 421.227 436.029 420.372 437.019 419.517C437.18 419.378 437.364 419.217 437.456 419.009C437.571 418.754 437.525 418.454 437.479 418.177C437.226 416.49 436.858 414.827 436.351 413.186C437.18 413.025 437.986 412.863 438.814 412.701C439.873 414.665 440.149 416.929 440.425 419.124Z" fill="#2F3F47"/>
<path d="M432.779 425.709C432.756 425.801 432.779 425.894 432.779 425.963C433.032 427.003 433.285 428.019 433.515 429.059C435.126 428.666 436.715 428.158 438.257 427.557C438.119 426.679 437.865 425.801 437.52 424.969C437.451 424.785 437.359 424.6 437.175 424.53C437.06 424.484 436.945 424.507 436.807 424.53C435.541 424.738 434.298 425.062 433.078 425.478C432.963 425.524 432.825 425.593 432.779 425.709Z" fill="#516770"/>
<path d="M433.13 430.053C432.969 431.947 435.592 435.459 436.375 437.03C437.434 439.156 438.516 441.305 440.035 443.13C441.554 444.955 443.556 446.48 445.881 446.942C447.193 447.219 448.551 447.15 449.886 446.965C453.914 446.434 457.803 445.001 461.187 442.76C461.463 442.575 461.739 442.39 461.854 442.067C461.969 441.744 461.854 441.397 461.762 441.05C461.325 439.78 460.934 438.37 460.266 437.192C459.115 435.136 459.852 435.505 458.011 435.644C456.607 435.76 454.581 437.238 453.085 437.608C451.336 438.047 449.541 438.255 447.768 438.486C446.64 438.624 445.397 438.74 444.454 438.093C443.947 437.747 443.579 437.215 443.257 436.684C441.254 433.565 439.436 430.307 437.802 426.957C437.526 426.379 433.429 428.782 433.176 429.706C433.153 429.845 433.13 429.937 433.13 430.053Z" fill="#E2ECED"/>
<g opacity="0.15">
<path opacity="0.15" d="M449.858 445.763C449.006 443.707 448.638 441.65 448.5 439.433C448.477 438.994 447.901 438.947 447.832 439.386C447.464 441.743 447.832 444.123 448.661 446.341C448.96 447.149 450.203 446.549 449.858 445.763Z" fill="#272525"/>
<path opacity="0.15" d="M446.018 445.925C445.42 443.823 445.65 442.136 446.341 440.08C446.433 439.802 446.041 439.618 445.88 439.849C445.259 440.888 444.568 441.697 444.361 442.945C444.177 444.123 444.223 445.255 444.637 446.364C444.914 447.173 446.226 446.711 446.018 445.925Z" fill="#272525"/>
</g>
<path d="M467.103 405.978C467.126 406.856 467.172 407.757 467.54 408.565C468.484 410.575 470.97 411.222 473.156 411.592C485.654 413.694 498.428 414.411 510.995 412.816C512.653 412.609 514.31 412.355 515.829 411.661C517.348 410.968 518.706 409.79 519.258 408.242C519.604 407.248 519.627 406.186 519.65 405.123C519.673 404.06 519.673 402.974 519.696 401.911C519.696 401.426 519.696 400.941 519.512 400.479C519.304 399.994 518.89 399.601 518.453 399.3C516.796 398.168 514.701 397.914 512.699 397.706C499.395 396.366 485.93 395.188 472.696 396.99C472.143 397.059 471.568 397.152 471.177 397.545C470.97 397.729 470.831 397.984 470.624 398.168C470.233 398.469 469.704 398.446 469.243 398.607C467.954 399.023 467.494 400.618 467.333 401.981C467.149 403.298 467.08 404.638 467.103 405.978Z" fill="#2F3F47"/>
<path opacity="0.2" d="M483.764 407.918C484.201 407.109 484.27 406.162 484.178 405.238C484.132 404.684 483.994 404.106 483.649 403.69C482.912 402.812 481.554 402.905 480.427 402.697C479.437 403.113 478.608 403.921 478.194 404.915C477.941 405.515 477.826 406.162 477.895 406.809C478.056 408.126 479.138 409.258 480.427 409.489C481.739 409.767 483.143 409.096 483.764 407.918Z" fill="#EAF1F2"/>
<path opacity="0.2" d="M505.682 407.918C506.119 407.109 506.188 406.162 506.096 405.238C506.05 404.684 505.912 404.106 505.567 403.69C504.83 402.812 503.472 402.905 502.345 402.697C501.355 403.113 500.526 403.921 500.112 404.915C499.859 405.515 499.744 406.162 499.813 406.809C499.974 408.126 501.056 409.258 502.345 409.489C503.634 409.767 505.037 409.096 505.682 407.918Z" fill="#EAF1F2"/>
</g>
<defs>
<linearGradient id="paint0_linear_122_1644" x1="466.851" y1="495.587" x2="565.454" y2="495.587" gradientUnits="userSpaceOnUse">
<stop stop-color="#4D4D4D"/>
<stop offset="1"/>
</linearGradient>
<clipPath id="clip0_122_1644">
<rect width="39" height="66" fill="white" transform="translate(232)"/>
</clipPath>
<clipPath id="clip1_122_1644">
<rect width="56" height="86" fill="white" transform="translate(0 436)"/>
</clipPath>
<clipPath id="clip2_122_1644">
<rect width="140" height="124" fill="white" transform="translate(426.228 378.005)"/>
</clipPath>
</defs>
</svg>
