<svg width="607" height="607" viewBox="0 0 607 607" fill="none" xmlns="http://www.w3.org/2000/svg">
<path d="M288.75 470.607H348.175V485.175H288.75V470.607Z" fill="#26A8A1"/>
<path d="M304.896 454.643H320.557V478.013H304.896V454.643Z" fill="#FBC3AA"/>
<path d="M288.446 489.242H334.275C334.275 478.984 325.959 470.607 315.64 470.607H288.446V489.242Z" fill="#EF4371"/>
<path d="M303.5 489.242C303.5 476.859 293.424 466.783 281.041 466.783C268.658 466.783 258.582 476.859 258.582 489.242H303.5Z" fill="#EF4371"/>
<path d="M258.582 492.459H334.275C335.185 492.459 335.914 491.731 335.914 490.82C335.914 489.91 335.185 489.181 334.275 489.181H258.582C257.672 489.181 256.943 489.91 256.943 490.82C256.943 491.731 257.672 492.459 258.582 492.459Z" fill="#212D47"/>
<path d="M279.827 472.307C277.045 472.307 274.789 471.545 274.789 470.607C274.789 469.669 277.045 468.907 279.827 468.907C282.61 468.907 284.865 469.669 284.865 470.607C284.865 471.545 282.61 472.307 279.827 472.307Z" fill="white"/>
<path d="M309.449 472.246C309.449 471.942 309.388 471.639 309.267 471.335C308.781 470.364 307.688 470 306.717 470.486" stroke="#C51141" stroke-width="3" stroke-miterlimit="10" stroke-linecap="round" stroke-linejoin="round"/>
<path d="M305.928 472.246C305.928 471.942 305.867 471.639 305.746 471.335C305.26 470.364 304.168 470 303.196 470.486" stroke="#C51141" stroke-width="3" stroke-miterlimit="10" stroke-linecap="round" stroke-linejoin="round"/>
<path d="M302.589 472.246C302.589 471.942 302.529 471.639 302.407 471.335C301.922 470.364 300.829 470 299.858 470.486" stroke="#C51141" stroke-width="3" stroke-miterlimit="10" stroke-linecap="round" stroke-linejoin="round"/>
<path d="M220.462 236.123H228.778C231.813 236.123 234.241 233.695 234.241 230.66V183.193C234.241 180.158 231.813 177.73 228.778 177.73H220.462C217.427 177.73 214.999 180.158 214.999 183.193V230.66C214.999 233.634 217.427 236.123 220.462 236.123Z" fill="#BCBCBC"/>
<path d="M215.182 236.123H223.497C226.532 236.123 228.96 233.695 228.96 230.66V183.193C228.96 180.158 226.532 177.73 223.497 177.73H215.182C212.147 177.73 209.719 180.158 209.719 183.193V230.66C209.719 233.634 212.147 236.123 215.182 236.123Z" fill="#F7F7F7"/>
<path d="M238.672 247.352V273.332C238.672 284.986 247.899 294.82 259.553 295.123C271.572 295.427 281.466 285.715 281.466 273.757V238.308C281.466 231.753 286.747 226.472 293.302 226.472C299.858 226.472 305.139 231.753 305.139 238.308V273.757C305.139 298.644 284.987 318.796 260.1 318.796C235.213 318.796 215.06 298.644 215.06 273.757V247.352H238.672Z" fill="#EF4371"/>
<path d="M238.672 247.352V273.332C238.672 284.986 247.899 294.82 259.553 295.123C271.572 295.427 281.466 285.715 281.466 273.757V238.308C281.466 231.753 286.747 226.472 293.302 226.472C299.858 226.472 305.139 231.753 305.139 238.308V273.757C305.139 298.644 284.987 318.796 260.1 318.796C235.213 318.796 215.06 298.644 215.06 273.757V247.352H238.672Z" fill="#EF4371"/>
<path d="M293.302 232.542C290.146 232.542 287.536 235.152 287.536 238.308V273.757C287.536 281.102 284.683 287.961 279.463 293.181C274.243 298.401 267.383 301.254 260.039 301.254C259.796 301.254 259.614 301.254 259.371 301.254C244.621 300.89 232.542 288.386 232.542 273.393V253.483L228.111 247.413H238.612V273.393C238.612 285.047 247.838 294.881 259.492 295.184C271.511 295.488 281.405 285.776 281.405 273.818V238.369C281.405 231.813 286.686 226.532 293.242 226.532C294.941 226.532 296.58 226.897 298.098 227.564C295.73 230.539 293.97 232.542 293.302 232.542Z" fill="#D82B45"/>
<path d="M297.612 334.518H329.844V461.745H297.612V334.518Z" fill="#212D47"/>
<path d="M297.612 454.643H329.844V461.745H297.612V454.643Z" fill="#2D3854"/>
<path d="M318.675 334.518H350.907V461.745H318.675V334.518Z" fill="#2D3854"/>
<path d="M326.991 454.643H342.651V478.013H326.991V454.643Z" fill="#FBC3AA"/>
<path d="M318.675 454.643H350.907V461.745H318.675V454.643Z" fill="#394663"/>
<path d="M299.737 354.185H351.453C357.644 354.185 362.682 349.146 362.682 342.955V333.243H288.507V342.955C288.507 349.146 293.545 354.185 299.737 354.185Z" fill="#2D3854"/>
<path d="M341.68 325.898H391.758C403.776 325.898 412.699 310.845 410.089 294.941L403.473 254.333C400.802 238.065 390.18 226.411 377.858 226.411H357.826L341.68 325.898Z" fill="#22314C"/>
<path d="M382.592 313.819C391.454 313.819 398.435 306.292 397.828 297.491L396.735 282.498H368.449L367.356 297.491C366.749 306.292 373.73 313.819 382.592 313.819Z" fill="#2D3854"/>
<path d="M288.507 320.132H362.682V336.946H288.507V320.132Z" fill="#EF4371"/>
<path d="M290.267 331.179H364.018C364.989 331.179 365.778 330.39 365.778 329.419V242.132C365.778 233.452 358.737 226.472 350.118 226.472H299.19C293.302 226.472 288.568 231.267 288.568 237.094V329.419C288.507 330.39 289.296 331.179 290.267 331.179Z" fill="#E53E46"/>
<path d="M316.611 242.921H329.965C333.061 242.921 335.55 240.433 335.55 237.337V226.532H307.385V233.695C307.385 238.794 311.512 242.921 316.611 242.921Z" fill="#EF4371"/>
<path d="M308.599 216.213L322.56 217.792L322.196 226.532H308.599C297.551 226.532 288.568 235.516 288.568 246.563V321.71C282.862 321.71 278.249 317.097 278.249 311.391V246.563C278.249 229.81 291.785 216.213 308.599 216.213Z" fill="#2D3854"/>
<path d="M283.894 244.864C283.894 232.056 294.274 221.676 307.081 221.676H317.522V216.213H322.196V226.532H308.599C297.551 226.532 288.568 235.516 288.568 246.563V321.71C286.868 321.71 285.29 321.285 283.894 320.617V244.864Z" fill="#25314C"/>
<path d="M317.522 237.701H329.055C332.575 237.701 335.428 234.848 335.428 231.328V197.882H311.148V231.328C311.148 234.848 314.001 237.701 317.522 237.701Z" fill="#FBC3AA"/>
<path opacity="0.76" d="M327.234 199.217H311.148V197.882H335.428V231.328C335.428 234.848 332.575 237.701 329.055 237.701H327.173V199.217H327.234Z" fill="#F2AD91"/>
<path d="M335.428 215.424C330.876 216.213 323.045 216.578 314.73 212.936C313.394 212.329 312.241 211.722 311.148 210.993V197.882H335.428V215.424Z" fill="#ED9C80"/>
<path d="M352.546 217.306H362.379C367.478 217.306 371.545 221.434 371.545 226.472V228.96L366.082 226.897C357.402 226.897 350.3 232.785 350.3 241.465V312.18C350.3 317.461 346.051 321.71 340.77 321.71C335.489 321.71 331.24 317.461 331.24 312.18V238.49C331.361 226.775 340.83 217.306 352.546 217.306Z" fill="#2D3854"/>
<path d="M344.29 241.465V321.042C347.872 319.646 350.36 316.247 350.36 312.18V252.148C347.022 248.809 344.897 244.196 344.897 239.158C344.897 237.458 345.14 235.82 345.565 234.241C344.776 236.427 344.29 238.915 344.29 241.465Z" fill="#25314C"/>
<path d="M227.2 257.793C217.813 257.793 210.204 250.184 210.204 240.797C210.204 231.41 217.813 223.801 227.2 223.801C236.587 223.801 244.196 231.41 244.196 240.797C244.196 250.184 236.587 257.793 227.2 257.793Z" fill="#FBC3AA"/>
<path opacity="0.76" d="M220.038 252.148C230.721 252.148 239.401 243.468 239.401 232.784C239.401 231.267 239.219 229.81 238.915 228.414C242.193 231.51 244.257 235.941 244.257 240.797C244.257 250.205 236.669 257.793 227.261 257.793C221.737 257.793 216.881 255.183 213.725 251.116C215.667 251.784 217.792 252.148 220.038 252.148Z" fill="#F2AD91"/>
<path d="M310.48 489.242H356.309C356.309 478.984 347.993 470.607 337.674 470.607H310.48V489.242Z" fill="#EF4371"/>
<path d="M325.534 489.242C325.534 476.859 315.458 466.783 303.075 466.783C290.692 466.783 280.616 476.859 280.616 489.242H325.534Z" fill="#E53E46"/>
<path d="M296.398 472.307C293.616 472.307 291.36 471.545 291.36 470.607C291.36 469.669 293.616 468.907 296.398 468.907C299.181 468.907 301.436 469.669 301.436 470.607C301.436 471.545 299.181 472.307 296.398 472.307Z" fill="white"/>
<path d="M331.483 472.246C331.483 471.942 331.422 471.639 331.301 471.335C330.815 470.364 329.722 470 328.751 470.486" stroke="#C51141" stroke-width="3" stroke-miterlimit="10" stroke-linecap="round" stroke-linejoin="round"/>
<path d="M327.962 472.246C327.962 471.942 327.901 471.639 327.78 471.335C327.294 470.364 326.202 470 325.231 470.486" stroke="#C51141" stroke-width="3" stroke-miterlimit="10" stroke-linecap="round" stroke-linejoin="round"/>
<path d="M324.684 472.246C324.684 471.942 324.624 471.639 324.502 471.335C324.017 470.364 322.924 470 321.953 470.486" stroke="#C51141" stroke-width="3" stroke-miterlimit="10" stroke-linecap="round" stroke-linejoin="round"/>
<path d="M315.943 206.076C336.703 210.022 356.734 196.304 360.619 175.544L373.001 109.988L281.162 92.6888L271.936 141.613C266.23 171.538 285.958 200.431 315.943 206.076Z" fill="#FBC3AA"/>
<path opacity="0.76" d="M335.428 175.544L347.811 109.988L280.313 97.2414L281.162 92.6282L373.001 109.928L360.619 175.484C356.673 196.243 336.703 209.901 315.943 206.016C314.001 205.652 312.059 205.166 310.238 204.62C322.803 200.371 332.757 189.566 335.428 175.544Z" fill="#F2AD91"/>
<path d="M279.524 97.5448L282.862 78.3636L373.912 101.005C376.765 101.733 378.525 104.465 377.979 107.378L366.507 168.321L351.453 165.468L358.494 118.79L279.524 97.5448Z" fill="#0F0B0A"/>
<path d="M312.119 172.934C318.736 172.934 324.927 171.72 330.147 169.596C327.841 179.247 320.678 186.288 312.119 186.288C303.561 186.288 296.459 179.247 294.092 169.596C299.372 171.66 305.503 172.934 312.119 172.934Z" fill="white"/>
<path d="M331.422 146.833C331.908 144.284 330.208 141.795 327.659 141.37C325.109 140.885 322.621 142.584 322.196 145.134" stroke="#3F2E21" stroke-width="4" stroke-miterlimit="10" stroke-linecap="round" stroke-linejoin="round"/>
<path d="M339.495 138.457L323.531 130.505" stroke="black" stroke-width="8" stroke-miterlimit="10" stroke-linecap="round" stroke-linejoin="round"/>
<path d="M293.545 137.91C294.031 135.361 296.459 133.661 299.008 134.147C301.558 134.633 303.257 137.061 302.772 139.61" stroke="#3F2E21" stroke-width="4" stroke-miterlimit="10" stroke-linecap="round" stroke-linejoin="round"/>
<path d="M289.357 129.352L307.142 127.773" stroke="black" stroke-width="8" stroke-miterlimit="10" stroke-linecap="round" stroke-linejoin="round"/>
<path d="M284.987 101.248C284.076 105.011 277.096 130.566 277.096 130.566H274.061L280.555 96.0881L284.987 101.248Z" fill="#0F0B0A"/>
<path d="M365.232 173.663C357.052 173.663 350.421 167.032 350.421 158.852C350.421 150.672 357.052 144.041 365.232 144.041C373.412 144.041 380.043 150.672 380.043 158.852C380.043 167.032 373.412 173.663 365.232 173.663Z" fill="#FBC3AA"/>
<path d="M363.168 166.621C358.877 166.621 355.399 163.143 355.399 158.852C355.399 154.561 358.877 151.082 363.168 151.082C367.459 151.082 370.938 154.561 370.938 158.852C370.938 163.143 367.459 166.621 363.168 166.621Z" fill="#F2AD91"/>
<path d="M273.211 68.3481C266.048 86.983 275.335 107.864 293.97 114.966C312.605 122.128 333.486 112.841 340.588 94.2063L273.211 68.3481Z" fill="#231A17"/>
<path d="M315.215 76.2999C308.295 89.5325 313.455 105.861 326.687 112.781C339.92 119.7 356.248 114.541 363.168 101.308L315.215 76.2999Z" fill="#231A17"/>
<path d="M350.36 252.148V241.465C350.36 232.784 357.402 226.897 366.142 226.897L371.605 228.96V226.472C371.605 225.015 371.241 223.619 370.634 222.344C368.388 221.312 365.9 220.766 363.229 220.766C359.83 220.766 356.673 221.676 353.942 223.315C349.936 225.683 346.901 229.567 345.626 234.12C345.201 235.698 344.958 237.337 344.958 239.037C344.897 244.196 347.022 248.809 350.36 252.148Z" fill="#25314C"/>
<path d="M342.712 356.309C333.158 356.309 325.413 348.564 325.413 339.009C325.413 329.455 333.158 321.71 342.712 321.71C352.266 321.71 360.012 329.455 360.012 339.009C360.012 348.564 352.266 356.309 342.712 356.309Z" fill="#FBC3AA"/>
<path d="M322.074 344.29L330.754 340.041C333.061 338.888 334.032 336.096 332.879 333.789L330.815 329.601L317.947 335.914C315.64 337.067 314.669 339.859 315.822 342.166C316.915 344.533 319.707 345.444 322.074 344.29Z" fill="#F2AD91"/>
<path d="M340.163 357.705L337.795 346.961C337.188 344.048 334.336 342.227 331.422 342.894L326.869 343.926C326.505 343.987 326.263 344.351 326.384 344.715L329.722 360.012C330.329 362.925 333.182 364.746 336.096 364.079C338.949 363.411 340.83 360.558 340.163 357.705Z" fill="#F2AD91"/>
<path d="M335.792 341.923C330.451 336.217 331.24 327.173 337.492 322.438C349.875 313.03 358.555 298.705 360.315 282.255C361.772 269.083 358.676 256.457 352.424 245.896C349.814 241.525 349.875 235.88 352.788 231.692C358.191 223.801 369.906 224.104 374.822 232.177C383.867 247.17 388.359 265.077 386.598 283.833C384.292 308.295 371.605 329.54 353.274 343.441C347.872 347.507 340.345 346.779 335.792 341.923Z" fill="#EF4371"/>
<path d="M352.364 245.896C350.725 243.164 350.178 240.008 350.664 236.973C353.213 239.644 355.823 242.193 356.552 243.407C363.654 255.304 366.628 268.962 365.111 282.801C363.229 299.919 354.245 315.822 340.406 326.323C338.949 327.416 334.578 332.272 332.515 335.55C331.543 330.815 333.304 325.655 337.492 322.438C349.875 313.03 358.555 298.705 360.315 282.255C361.711 269.022 358.676 256.457 352.364 245.896Z" fill="#D82B45"/>
<path d="M316.004 270.722C312.987 270.722 310.541 268.276 310.541 265.259C310.541 262.242 312.987 259.796 316.004 259.796C319.022 259.796 321.467 262.242 321.467 265.259C321.467 268.276 319.022 270.722 316.004 270.722Z" fill="#EF4371"/>
<path d="M326.02 284.258C324.511 284.258 323.288 283.035 323.288 281.527C323.288 280.018 324.511 278.795 326.02 278.795C327.528 278.795 328.751 280.018 328.751 281.527C328.751 283.035 327.528 284.258 326.02 284.258Z" fill="#EF4371"/>
<path d="M302.407 275.396C300.899 275.396 299.676 274.173 299.676 272.664C299.676 271.156 300.899 269.933 302.407 269.933C303.916 269.933 305.139 271.156 305.139 272.664C305.139 274.173 303.916 275.396 302.407 275.396Z" fill="#EF4371"/>
<path d="M308.417 286.99C306.908 286.99 305.685 285.767 305.685 284.258C305.685 282.75 306.908 281.527 308.417 281.527C309.925 281.527 311.148 282.75 311.148 284.258C311.148 285.767 309.925 286.99 308.417 286.99Z" fill="#EF4371"/>
<path opacity="0.69" d="M322.715 155.768C318.921 154.65 316.214 152.492 316.669 150.949C317.124 149.405 320.568 149.06 324.363 150.178C328.157 151.297 330.864 153.454 330.41 154.998C329.955 156.542 326.51 156.886 322.715 155.768Z" fill="#F2AD91"/>
<path opacity="0.69" d="M294.67 148.408C290.748 147.889 287.74 146.175 287.951 144.58C288.162 142.985 291.513 142.112 295.435 142.631C299.357 143.15 302.364 144.864 302.153 146.459C301.942 148.055 298.592 148.927 294.67 148.408Z" fill="#F2AD91"/>
<path d="M219.066 191.63C217.591 191.63 216.395 190.434 216.395 188.959C216.395 187.484 217.591 186.288 219.066 186.288C220.541 186.288 221.737 187.484 221.737 188.959C221.737 190.434 220.541 191.63 219.066 191.63Z" fill="#BCBCBC"/>
</svg>
