<svg width="155" height="60" viewBox="0 0 155 60" fill="none" xmlns="http://www.w3.org/2000/svg">
<g clip-path="url(#clip0_45_870)">
<path d="M23.9313 14.3153L11.964 7.15765L0 14.3153V7.15765L11.9657 0L23.933 7.15765V14.3153H23.9313Z" fill="#5256D1"/>
<path d="M0 20.3259H6.26813V36.1042C6.26813 40.1806 9.20632 42.1677 11.9657 42.1677C14.7488 42.1677 17.6649 40.1277 17.6649 36.0495V20.3259H23.933V36.48C23.933 40.2353 22.7935 43.133 20.5145 45.12C18.2338 47.1053 15.3859 48.0724 11.9129 48.0724C8.44324 48.0724 5.59363 47.1071 3.36742 45.12C1.13951 43.1348 0 40.3448 0 36.6406V20.3259ZM78.1234 39.9353C76.2259 41.6859 74.0645 42.5436 71.5998 42.5436C67.1031 42.5436 64.0882 39.8895 63.7476 35.7795H83.9998C83.9998 35.7795 84.136 34.4524 84.136 33.2065C84.136 29.3418 82.9437 26.1212 80.508 23.4918C78.1268 20.8624 75.02 19.5742 71.237 19.5742C67.2496 19.5742 63.9843 20.8624 61.3936 23.4918C58.8557 26.1212 57.5612 29.5553 57.5612 33.8506V34.0624C57.5612 38.303 58.8557 41.6842 61.3936 44.2077C63.9315 46.7295 67.299 48.0177 71.392 48.0177C76.151 48.0177 79.9374 46.073 82.7785 42.72L78.1234 39.9353ZM66.2106 26.7653C67.6073 25.6377 69.3191 25.0483 71.2353 25.0483C73.0476 25.0483 74.5499 25.6377 75.8461 26.82C77.0827 27.8965 77.7504 29.2183 77.8083 30.7377H63.9077C64.1087 29.1671 64.8752 27.8436 66.2123 26.7671L66.2106 26.7653ZM141.22 51.6636C138.677 57.8842 136.017 60 131.937 60H129.11V54.2436H131.396C132.799 54.2436 134.104 53.6965 135.347 50.7248L136.591 47.7495L125.867 20.3259H132.239L139.854 40.0765L147.678 20.3259H154.048L141.222 51.6636H141.22ZM48.3345 9.96887V22.7753C46.2803 20.8695 43.0849 19.7348 39.9951 19.7348C36.316 19.7348 33.2092 21.0759 30.6713 23.8112C28.1845 26.4953 26.941 29.8218 26.941 33.8471C26.941 37.8742 28.1845 41.2006 30.6713 43.9377C33.2092 46.6218 36.3177 47.9648 39.9951 47.9648C44.2363 47.9648 46.9173 46.2371 48.3345 44.8836V47.3736H54.5515V9.97064H48.3345V9.96887ZM46.4693 39.7536C44.967 41.31 43.0508 42.1165 40.8229 42.1165C38.595 42.1165 36.7827 41.31 35.2804 39.7536C33.8326 38.1971 33.1053 36.2118 33.1053 33.8506C33.1053 31.4877 33.8309 29.5024 35.2804 27.9459C36.7827 26.3895 38.595 25.5848 40.8229 25.5848C43.0508 25.5848 44.967 26.3895 46.4693 27.9459C48.0227 29.5024 48.8029 31.4877 48.8029 33.8506C48.8029 36.2118 48.0227 38.1971 46.4693 39.7536ZM116.202 19.7895C111.481 19.7895 109.026 21.8189 107.345 23.7742C106.672 22.4453 104.778 19.7895 100.353 19.7895C96.6127 19.7895 94.4086 21.7483 93.3083 23.1424V20.3295H87.1458V47.3771H93.3083V31.8124C93.3083 28.163 95.4851 25.5336 98.3841 25.5336C101.339 25.5336 103.048 27.8418 103.048 31.5442V47.3753H109.212V31.8106C109.212 28.1083 111.334 25.5318 114.39 25.5318C117.344 25.5318 119.052 27.84 119.052 31.5406V47.3736H125.269V30.63C125.269 23.5783 121.61 19.7912 116.202 19.7912V19.7895Z" fill="#7275DA"/>
</g>
<defs>
<clipPath id="clip0_45_870">
<rect width="155" height="60" fill="white"/>
</clipPath>
</defs>
</svg>
