<svg width="147" height="339" viewBox="0 0 147 339" fill="none" xmlns="http://www.w3.org/2000/svg">
<path d="M37.5437 129.893H19.334C16.4115 129.893 14.9502 128.992 14.9502 127.19C14.9502 125.538 15.5497 123.849 16.7487 122.123C17.9477 120.321 19.4839 118.669 21.3573 117.168C23.3057 115.666 25.4414 114.39 27.7646 113.339C30.1624 112.288 32.4855 111.687 34.7335 111.537L43.726 111.312C55.6411 111.312 66.7318 112.813 76.9982 115.816C87.2646 118.744 96.1823 123.436 103.751 129.893C111.32 136.349 117.24 144.645 121.511 154.78C125.857 164.915 128.031 177.19 128.031 191.605C128.031 198.436 127.319 205.118 125.895 211.65C124.546 218.181 122.56 224.337 119.937 230.118C117.314 235.899 114.13 241.192 110.383 245.997C106.711 250.802 102.59 254.968 98.0181 258.497C93.447 261.95 88.4637 264.653 83.0682 266.605C77.6728 268.557 72.0149 269.533 66.095 269.533C63.472 269.533 62.1607 268.669 62.1607 266.943C62.1607 265.591 62.985 264.54 64.6336 263.789C71.0034 260.862 76.661 257.446 81.6071 253.542C86.5529 249.638 90.7119 244.983 94.0841 239.578C97.5311 234.097 100.117 227.716 101.84 220.434C103.639 213.151 104.538 204.668 104.538 194.983C104.538 185.374 103.376 176.627 101.053 168.744C98.805 160.861 95.0582 154.067 89.8125 148.361C84.5671 142.656 77.6728 138.226 69.1298 135.073C60.5869 131.845 50.0584 130.118 37.5437 129.893ZM14.9502 264.69V143.406C14.9502 140.704 15.8494 138.902 17.6479 138.001C19.5214 137.1 22.369 136.65 26.1908 136.65C30.3873 136.65 33.3098 137.1 34.9584 138.001C36.682 138.827 37.5437 140.629 37.5437 143.406V246.447C37.5437 249.525 39.08 251.064 42.1526 251.064H60.8119C64.0342 251.064 65.6454 252.003 65.6454 253.88C65.6454 255.006 64.4838 256.47 62.1607 258.272C59.9127 260.073 57.1025 261.8 53.7303 263.452C50.3579 265.103 46.5362 266.53 42.2649 267.731C37.9933 268.932 34.0967 269.533 30.5745 269.533H19.5588C16.4864 269.533 14.9502 267.919 14.9502 264.69Z" fill="#2DC0B7"/>
<path d="M45.8645 127.114H27.6548C24.7323 127.114 23.271 126.213 23.271 124.411C23.271 122.76 23.8705 121.071 25.0695 119.344C26.2685 117.542 27.8046 115.891 29.6781 114.389C31.6266 112.887 33.7622 111.611 36.0854 110.56C38.4832 109.509 40.8063 108.909 43.0543 108.758L52.0468 108.533C63.9619 108.533 75.0526 110.035 85.319 113.038C95.5854 115.966 104.503 120.658 112.072 127.114C119.64 133.571 125.56 141.867 129.832 152.002C134.178 162.137 136.351 174.412 136.351 188.826C136.351 195.658 135.64 202.34 134.216 208.871C132.867 215.403 130.881 221.559 128.258 227.34C125.635 233.12 122.451 238.413 118.704 243.218C115.032 248.023 110.91 252.19 106.339 255.718C101.768 259.172 96.7845 261.874 91.389 263.826C85.9936 265.778 80.3357 266.754 74.4158 266.754C71.7928 266.754 70.4815 265.891 70.4815 264.164C70.4815 262.813 71.3058 261.762 72.9544 261.011C79.3242 258.083 84.9818 254.667 89.9279 250.763C94.8738 246.859 99.0327 242.205 102.405 236.799C105.852 231.319 108.437 224.937 110.161 217.655C111.959 210.373 112.859 201.889 112.859 192.204C112.859 182.595 111.697 173.848 109.374 165.966C107.126 158.083 103.379 151.289 98.1333 145.583C92.8879 139.877 85.9936 135.448 77.4506 132.295C68.9077 129.066 58.3792 127.339 45.8645 127.114ZM23.271 261.912V140.628C23.271 137.925 24.1702 136.123 25.9687 135.223C27.842 134.321 30.6897 133.871 34.5117 133.871C38.7081 133.871 41.6306 134.321 43.2793 135.223C45.0028 136.048 45.8645 137.85 45.8645 140.628V243.669C45.8645 246.747 47.4008 248.286 50.4734 248.286H69.1327C72.355 248.286 73.9662 249.224 73.9662 251.101C73.9662 252.227 72.8046 253.691 70.4815 255.493C68.2335 257.295 65.4233 259.021 62.0512 260.673C58.6787 262.325 54.857 263.751 50.5857 264.952C46.3141 266.154 42.4175 266.754 38.8953 266.754H27.8798C24.8072 266.754 23.271 265.14 23.271 261.912Z" fill="white"/>
</svg>
